<svg width="24" height="24" viewBox="0 0 24 24" fill="none" xmlns="http://www.w3.org/2000/svg">
<g clip-path="url(#clip0)">
<path fill-rule="evenodd" clip-rule="evenodd" d="M20.963 13.1087C21.7935 13.2688 22.574 13.6091 23.2544 14.1094C23.9349 14.6097 23.8048 15.19 23.6947 15.5303C22.8542 18.272 21.0431 20.6235 18.6115 22.1544C16.18 23.6854 13.2782 24.2958 10.4364 23.8655C7.5946 23.4352 4.99297 22.0043 3.12179 19.823C1.25062 17.6416 0.219971 14.8598 0.219971 11.988C0.219971 9.11623 1.25062 6.33448 3.12179 4.15311C5.00298 1.97174 7.5946 0.540842 10.4264 0.130584C13.2682 -0.28968 16.17 0.310697 18.6015 1.84166C21.033 3.36261 22.8342 5.71409 23.6847 8.46582C23.7848 8.80603 23.9149 9.37639 23.2344 9.88671C22.524 10.407 21.7035 10.7573 20.8329 10.9174H20.8429C20.973 11.6378 20.973 12.3682 20.8429 13.0886V13.0787C20.4527 13.0086 20.0625 12.9686 19.6622 12.9686C17.3565 12.9686 16.3887 13.8261 15.5202 14.5957C14.8131 15.2221 14.1718 15.7904 12.928 15.7904H11.8973C9.99613 15.7904 8.74534 14.4295 8.74534 12.6884V11.2775C8.74534 9.53644 9.99613 8.18559 11.8973 8.18559H12.928C14.1718 8.18559 14.8131 8.75382 15.5202 9.3803C16.3887 10.1499 17.3565 11.0074 19.6622 11.0074C20.0625 11.0074 20.4527 10.9673 20.8429 10.8973V10.8773C20.7729 10.467 20.6528 10.0568 20.4927 9.66652C20.2226 9.71655 19.9424 9.73656 19.6622 9.73656C17.8494 9.73656 17.1669 9.13177 16.381 8.43538L16.3701 8.42574C15.6097 7.74531 14.6591 6.90479 12.928 6.90479H11.8973C10.6465 6.90479 9.51583 7.35507 8.69531 8.18559C7.90482 8.98609 7.46454 10.0868 7.46454 11.2875V12.6984C7.46454 13.8892 7.90482 14.9899 8.69531 15.8004C9.50582 16.6209 10.6465 17.0812 11.8973 17.0812H12.928C14.6591 17.0812 15.6097 16.2407 16.3701 15.5602L16.381 15.5506C17.1669 14.8542 17.8494 14.2494 19.6622 14.2494C19.9424 14.2494 20.2125 14.2694 20.4927 14.3194C20.6528 13.9292 20.7629 13.5189 20.8429 13.0987V13.0887H20.8629C20.8829 13.0887 20.963 13.0987 20.963 13.1087ZM20.8429 13.0887V13.0886C20.8429 13.0887 20.8429 13.0887 20.8429 13.0887H20.8429ZM17.9411 21.0637C20.1125 19.6929 21.7235 17.6016 22.484 15.15C22.484 15.1468 22.484 15.1447 22.4843 15.1426C22.485 15.138 22.4871 15.1337 22.494 15.12C21.9136 14.6997 21.2332 14.4196 20.5227 14.3095H20.5027L20.4927 14.3295C20.3826 14.5997 20.2626 14.8698 20.1125 15.12L18.8917 17.2213C18.3414 18.1719 17.5509 18.9624 16.6003 19.5128C15.6497 20.0631 14.579 20.3533 13.4783 20.3533H11.0468C9.95609 20.3533 8.87541 20.0631 7.92481 19.5128C6.97421 18.9624 6.18372 18.1719 5.63337 17.2213L4.4126 15.11C3.86226 14.1594 3.57208 13.0887 3.57208 11.988C3.57208 10.8873 3.86226 9.81667 4.4026 8.86607L5.62337 6.75475C6.17371 5.80415 6.96421 5.01365 7.93482 4.46331C8.88541 3.91296 9.95609 3.62278 11.0568 3.62278H13.4883C14.579 3.62278 15.6597 3.91296 16.6103 4.46331C17.5609 5.01365 18.3514 5.80415 18.9017 6.75475L20.1225 8.86607C20.2626 9.12624 20.3926 9.3864 20.5027 9.65657V9.66657H20.5327C21.2432 9.55651 21.9136 9.27633 22.494 8.85607C22.4882 8.85031 22.4858 8.84787 22.4847 8.84492C22.484 8.84275 22.484 8.84031 22.484 8.83605C21.7235 6.38451 20.1125 4.28319 17.9411 2.92234C15.7697 1.56148 13.1881 1.02114 10.6465 1.40138C8.10492 1.78162 5.79347 3.06243 4.12242 5.00365C2.45137 6.94486 1.53079 9.42642 1.53079 11.988C1.53079 14.5496 2.45137 17.0412 4.12242 18.9824C5.79347 20.9236 8.11493 22.2045 10.6465 22.5847C13.1781 22.9649 15.7697 22.4246 17.9411 21.0637Z" fill="#006BFF"/>
<path d="M20.4927 9.66652C20.2226 9.71655 19.9424 9.73656 19.6622 9.73656C17.8411 9.73656 17.1606 9.12618 16.3701 8.42574C15.6097 7.74531 14.6591 6.90479 12.928 6.90479H11.8973C10.6465 6.90479 9.51583 7.35507 8.69531 8.18559C7.90482 8.98609 7.46454 10.0868 7.46454 11.2875V12.6984C7.46454 13.8892 7.90482 14.9899 8.69531 15.8004C9.50582 16.6209 10.6465 17.0812 11.8973 17.0812H12.928C14.6591 17.0812 15.6097 16.2406 16.3701 15.5602C17.1606 14.8598 17.8411 14.2494 19.6622 14.2494C19.9424 14.2494 20.2125 14.2694 20.4927 14.3194C20.6528 13.9292 20.7629 13.5189 20.8429 13.0987C20.8429 13.0887 20.8429 13.0887 20.8429 13.0787C20.4527 13.0086 20.0625 12.9686 19.6622 12.9686C15.4796 12.9686 15.6997 15.7904 12.928 15.7904H11.8973C9.99613 15.7904 8.74534 14.4295 8.74534 12.6884V11.2775C8.74534 9.53644 9.99613 8.18559 11.8973 8.18559H12.928C15.6997 8.18559 15.4796 11.0074 19.6622 11.0074C20.0625 11.0074 20.4527 10.9673 20.8429 10.8973C20.8429 10.8873 20.8429 10.8873 20.8429 10.8773C20.7729 10.467 20.6528 10.0568 20.4927 9.66652Z" fill="#0AE8F0"/>
</g>
<defs>
<clipPath id="clip0">
<rect width="24" height="24" fill="white"/>
</clipPath>
</defs>
</svg>
