<svg xmlns="http://www.w3.org/2000/svg" viewBox="0 0 225.7 8" class="sage-svg-loader">
  <style>
    .loader-blob { animation: movingBlobs 2s linear infinite forwards }
    @keyframes movingBlobs {
      20% { transform: translateX(40%) }
      60% { transform: translateX(215%) }
      78% { opacity: 1; transform: translateX(250%) }
      79% { opacity: 0; transform: translateX(250%) }
      80% { opacity: 0; transform: none }
      81% { opacity: 1; transform: none }
    }
  </style>
  <path class="loader-blob" fill="currentColor" d="M-187.3,0h53c2.2,0,4,1.8,4,4s-1.8,4-4,4h-53c-2.2,0-4-1.8-4-4C-191.3,1.8-189.5,0-187.3,0z"/>
  <path class="loader-blob" fill="currentColor" d="M-234,0h26c2.2,0,4,1.8,4,4s-1.8,4-4,4h-26c-2.2,0-4-1.8-4-4S-236.2,0-234,0z"/>
  <path class="loader-blob" fill="currentColor" d="M-113.5,0H-4c2.2,0,4,1.8,4,4s-1.8,4-4,4h-109.5c-2.2,0-4-1.8-4-4S-115.7,0-113.5,0z"/>
</svg>