<svg viewBox="0 0 48 48" xmlns="http://www.w3.org/2000/svg" class="sage-svg-spinner">
  <style>
    .spinner-circle { transform-origin: center; animation: rotateSpinner 0.9s linear forwards infinite }
    @keyframes rotateSpinner {
      100% {
        transform: rotate(360deg)
      }
    }
  <style>
  <path class="spinner-circle" d="M14.3434 45.9716C9.30821 43.7586 5.03752 39.8062 2.64097 34.8206C2.09869 33.8176 2.5302 32.5873 3.49292 32.1365C4.49588 31.5943 5.72624 32.0258 6.17698 32.9885C8.26566 37.1834 11.7416 40.4588 15.9528 42.3096C26.0231 46.7355 37.8837 42.1174 42.3096 32.0471C46.7355 21.9767 42.1173 10.1162 32.047 5.69029C21.9767 1.26438 10.1161 5.88253 5.69022 15.9529C4.52339 18.6078 3.98632 21.321 3.94723 24.1438C4.00262 25.2605 3.06205 26.1579 1.98562 26.1217C0.868963 26.1771 -0.0284391 25.2365 0.00772265 24.1601C-0.0266529 20.7588 0.660281 17.4561 2.02829 14.3434C7.33938 2.25905 21.572 -3.28274 33.6564 2.02835C45.7408 7.33944 51.2826 21.5721 45.9715 33.6565C40.6604 45.7409 26.4278 51.2827 14.3434 45.9716Z" fill="currentColor"/>
</svg>