<?xml version="1.0" standalone="no"?>
<!DOCTYPE svg PUBLIC "-//W3C//DTD SVG 1.1//EN" "http://www.w3.org/Graphics/SVG/1.1/DTD/svg11.dtd" >
<svg xmlns="http://www.w3.org/2000/svg">
<metadata>Generated by IcoMoon</metadata>
<defs>
<font id="201026_SageFont" horiz-adv-x="1024">
<font-face units-per-em="1024" ascent="960" descent="-64" />
<missing-glyph horiz-adv-x="1024" />
<glyph unicode="&#x20;" horiz-adv-x="512" d="" />
<glyph unicode="&#xe900;" glyph-name="horizontal-line" d="M938.667 490.667h-853.333c-25.6 0-42.667-17.067-42.667-42.667s17.067-42.667 42.667-42.667h853.333c25.6 0 42.667 17.067 42.667 42.667s-17.067 42.667-42.667 42.667z" />
<glyph unicode="&#xe901;" glyph-name="list-numbers" d="M66.537 709.062v-30.354l134.833-0.001v30.354l-31.5 2.688c-5.771 0.375-6.146 1.521-6.146 7.667v180.542h-92.187l-4.229-31.5 33.417-6.917c3.854-1.146 5-3.458 5-8.062v-134.063c0-5.75-0.771-7.292-6.146-7.667l-33.041-2.688zM341.333 832c-23.564 0-42.667-19.103-42.667-42.667s19.103-42.667 42.667-42.667h640c23.565 0 42.667 19.103 42.667 42.667s-19.102 42.667-42.667 42.667h-640zM341.333 490.667c-23.564 0-42.667-19.102-42.667-42.667s19.103-42.667 42.667-42.667h640c23.565 0 42.667 19.102 42.667 42.667s-19.102 42.667-42.667 42.667h-640zM298.667 106.667c0 23.565 19.103 42.667 42.667 42.667h640c23.565 0 42.667-19.102 42.667-42.667s-19.102-42.667-42.667-42.667h-640c-23.564 0-42.667 19.102-42.667 42.667zM46.568 334.49v35.729l54.874 53.606c36.362 35.268 51.917 50.355 51.917 71.603 0 14.229-6.917 24.58-27.271 24.58-21.146 0-29.979-6.916-29.979-34.185l-52.229 4.625c0.375 61.062 46.854 71.061 87.188 71.061 59.542 0 80.666-25.354 80.666-61.457 0-36.019-24.812-59.797-52.752-86.575l-0.248-0.239-43.416-41.498h56.479c3.833 0 5.375 0.768 6.146 4.621l5.375 30.336h40.708v-72.209h-177.458zM226.912 51.742c0 34.56-18.042 54.144-50.708 59.145v1.54c24.208 7.292 44.187 27.648 44.187 59.917 0 41.105-22.667 63.77-81.812 63.77-40.333 0-86.042-10.372-86.042-71.061l52.625-4.625c0 27.273 9.979 34.189 30.708 34.189 21.521 0 28.042-11.895 28.042-26.5 0-24.585-14.979-38.020-42.625-41.481l-18.833-2.313v-38.396c11.541 1.916 18.833 2.688 28.437 2.688 23.812 0 38.417-9.604 38.417-33.041 0-26.897-18.438-34.564-39.958-34.564-26.896 0-43.021 11.127-57.625 25.335l-30.729-33.792c19.604-21.521 54.167-35.332 92.959-35.332 54.938 0 92.958 23.812 92.958 74.522z" />
<glyph unicode="&#xe902;" glyph-name="strikethrough" d="M42.667 917.333c0 23.564 19.103 42.667 42.667 42.667h853.333c23.565 0 42.667-19.103 42.667-42.667v-128c0-23.564-19.102-42.667-42.667-42.667s-42.667 19.103-42.667 42.667v85.333h-341.333v-384h426.667c23.565 0 42.667-19.102 42.667-42.667s-19.102-42.667-42.667-42.667h-938.667c-23.564 0-42.667 19.102-42.667 42.667s19.103 42.667 42.667 42.667h426.667v384h-341.333v-85.333c0-23.564-19.103-42.667-42.667-42.667s-42.667 19.103-42.667 42.667v128zM298.667 21.333c-23.564 0-42.667-19.102-42.667-42.667s19.103-42.667 42.667-42.667h426.667c23.565 0 42.667 19.102 42.667 42.667s-19.102 42.667-42.667 42.667h-170.667v256c0 23.565-19.102 42.667-42.667 42.667s-42.667-19.102-42.667-42.667v-256h-170.667z" />
<glyph unicode="&#xe903;" glyph-name="align-justify" d="M42.667 874.667c-23.564 0-42.667-19.103-42.667-42.667s19.103-42.667 42.667-42.667h938.667c23.565 0 42.667 19.103 42.667 42.667s-19.102 42.667-42.667 42.667h-938.667zM42.667 618.667c-23.564 0-42.667-19.103-42.667-42.667s19.103-42.667 42.667-42.667h938.667c23.565 0 42.667 19.103 42.667 42.667s-19.102 42.667-42.667 42.667h-938.667zM0 320c0 23.565 19.103 42.667 42.667 42.667h938.667c23.565 0 42.667-19.102 42.667-42.667s-19.102-42.667-42.667-42.667h-938.667c-23.564 0-42.667 19.102-42.667 42.667zM42.667 106.667c-23.564 0-42.667-19.102-42.667-42.667s19.103-42.667 42.667-42.667h938.667c23.565 0 42.667 19.102 42.667 42.667s-19.102 42.667-42.667 42.667h-938.667z" />
<glyph unicode="&#xe904;" glyph-name="align-right" d="M42.667 874.667c-23.564 0-42.667-19.103-42.667-42.667s19.103-42.667 42.667-42.667h938.667c23.565 0 42.667 19.103 42.667 42.667s-19.102 42.667-42.667 42.667h-938.667zM469.333 618.667c-23.565 0-42.667-19.103-42.667-42.667s19.102-42.667 42.667-42.667h512c23.565 0 42.667 19.103 42.667 42.667s-19.102 42.667-42.667 42.667h-512zM0 320c0 23.565 19.103 42.667 42.667 42.667h938.667c23.565 0 42.667-19.102 42.667-42.667s-19.102-42.667-42.667-42.667h-938.667c-23.564 0-42.667 19.102-42.667 42.667zM469.333 106.667c-23.565 0-42.667-19.102-42.667-42.667s19.102-42.667 42.667-42.667h512c23.565 0 42.667 19.102 42.667 42.667s-19.102 42.667-42.667 42.667h-512z" />
<glyph unicode="&#xe905;" glyph-name="code" d="M638.724 778.985c5.717 22.861-8.183 46.026-31.044 51.741s-46.025-8.184-51.738-31.045l-170.668-682.668c-5.715-22.861 8.184-46.025 31.044-51.738 22.863-5.717 46.026 8.183 51.739 31.044l170.667 682.665zM286.17 648.837c16.662-16.662 16.662-43.677 0-60.34l-140.497-140.497 140.497-140.497c16.662-16.661 16.662-43.678 0-60.339s-43.677-16.661-60.34 0l-170.667 170.667c-16.662 16.661-16.662 43.678 0 60.339l170.667 170.667c16.663 16.663 43.677 16.663 60.34 0zM737.83 648.837c16.661 16.663 43.678 16.663 60.339 0l170.667-170.667c16.661-16.661 16.661-43.678 0-60.339l-170.667-170.667c-16.661-16.661-43.678-16.661-60.339 0s-16.661 43.678 0 60.339l140.497 140.497-140.497 140.497c-16.661 16.662-16.661 43.677 0 60.34z" />
<glyph unicode="&#xe906;" glyph-name="list-bullet" d="M85.333 789.333c0 23.564 19.103 42.667 42.667 42.667s42.667-19.103 42.667-42.667c0-23.564-19.103-42.667-42.667-42.667s-42.667 19.103-42.667 42.667zM128 917.333c-70.692 0-128-57.308-128-128s57.308-128 128-128c70.692 0 128 57.308 128 128s-57.308 128-128 128zM85.333 448c0 23.565 19.103 42.667 42.667 42.667s42.667-19.102 42.667-42.667c0-23.565-19.103-42.667-42.667-42.667s-42.667 19.102-42.667 42.667zM128 576c-70.692 0-128-57.306-128-128s57.308-128 128-128c70.692 0 128 57.306 128 128s-57.308 128-128 128zM128 149.333c-23.564 0-42.667-19.102-42.667-42.667s19.103-42.667 42.667-42.667c23.564 0 42.667 19.102 42.667 42.667s-19.103 42.667-42.667 42.667zM0 106.667c0 70.694 57.308 128 128 128s128-57.306 128-128c0-70.694-57.308-128-128-128s-128 57.306-128 128zM384 832c-23.564 0-42.667-19.103-42.667-42.667s19.102-42.667 42.667-42.667h597.333c23.565 0 42.667 19.103 42.667 42.667s-19.102 42.667-42.667 42.667h-597.333zM341.333 448c0 23.565 19.102 42.667 42.667 42.667h597.333c23.565 0 42.667-19.102 42.667-42.667s-19.102-42.667-42.667-42.667h-597.333c-23.564 0-42.667 19.102-42.667 42.667zM384 149.333c-23.564 0-42.667-19.102-42.667-42.667s19.102-42.667 42.667-42.667h597.333c23.565 0 42.667 19.102 42.667 42.667s-19.102 42.667-42.667 42.667h-597.333z" />
<glyph unicode="&#xe907;" glyph-name="italic" d="M768 960h-127.087c-0.627 0.014-1.254 0.014-1.877 0h-127.036c-23.565 0-42.667-19.103-42.667-42.667s19.102-42.667 42.667-42.667h72.141l-232.729-853.333h-95.412c-23.564 0-42.667-19.102-42.667-42.667s19.103-42.667 42.667-42.667h127.060c0.646-0.013 1.29-0.013 1.932 0h127.009c23.565 0 42.667 19.102 42.667 42.667s-19.102 42.667-42.667 42.667h-72.137l232.725 853.333h95.411c23.565 0 42.667 19.103 42.667 42.667s-19.102 42.667-42.667 42.667z" />
<glyph unicode="&#xe908;" glyph-name="superscript" d="M823.893 744.277v-40.277h200.107v81.451h-45.909l-6.059-34.219c-0.853-4.352-2.603-5.205-6.912-5.205h-63.701l49.271 47.126c31.479 30.162 59.443 56.954 59.443 97.557 0 40.704-23.808 69.291-90.965 69.291-45.483 0-97.877-11.264-98.261-80.171l58.88-5.205c0 30.763 9.941 38.571 33.792 38.571 22.955 0 30.763-11.691 30.763-27.733 0-23.918-17.54-40.933-58.492-80.664-1.271-1.236-2.569-2.493-3.887-3.773l-58.069-56.747zM42.667 789.333c-23.564 0-42.667-19.103-42.667-42.667v-85.333c0-23.564 19.103-42.667 42.667-42.667s42.667 19.103 42.667 42.667v42.667h256v-640h-128c-23.564 0-42.667-19.102-42.667-42.667s19.103-42.667 42.667-42.667h341.333c23.565 0 42.667 19.102 42.667 42.667s-19.102 42.667-42.667 42.667h-128v640h256v-42.667c0-23.564 19.102-42.667 42.667-42.667s42.667 19.103 42.667 42.667v85.333c0 23.564-19.102 42.667-42.667 42.667h-682.667z" />
<glyph unicode="&#xe909;" glyph-name="fullscreen" d="M609.83 606.17l225.83 225.83h-152.994c-23.565 0-42.667 19.103-42.667 42.667s19.102 42.667 42.667 42.667h256c5.786 0 11.302-1.152 16.333-3.238 5.030-2.082 9.745-5.169 13.837-9.259 7.812-7.811 11.959-17.896 12.45-28.123 0.030-0.682 0.047-1.364 0.047-2.047v-256c0-23.564-19.102-42.667-42.667-42.667s-42.667 19.103-42.667 42.667v152.994l-225.83-225.83c-16.661-16.661-43.678-16.661-60.339 0-16.661 16.663-16.661 43.677 0 60.34zM188.34 64l225.83 225.83c16.661 16.661 16.661 43.678 0 60.339-16.663 16.661-43.677 16.661-60.34 0l-225.83-225.83v152.994c0 23.565-19.103 42.667-42.667 42.667s-42.667-19.102-42.667-42.667v-256c0-5.786 1.152-11.302 3.238-16.333 2.082-5.030 5.169-9.745 9.259-13.837 7.811-7.812 17.896-11.959 28.123-12.45 0.682-0.030 1.364-0.047 2.047-0.047h256c23.564 0 42.667 19.102 42.667 42.667s-19.103 42.667-42.667 42.667h-152.994zM981.333 21.376v255.957c0 23.565-19.102 42.667-42.667 42.667s-42.667-19.102-42.667-42.667v-152.994l-225.83 225.83c-16.661 16.661-43.678 16.661-60.339 0s-16.661-43.678 0-60.339l225.83-225.83h-152.994c-23.565 0-42.667-19.102-42.667-42.667s19.102-42.667 42.667-42.667h255.957c0.013 0 0.030 0 0.043 0 0.683 0 1.365 0.017 2.048 0.047 10.227 0.491 20.309 4.638 28.122 12.45 4.092 4.092 7.177 8.806 9.259 13.837 2.039 4.915 3.187 10.295 3.238 15.94 0 0.128 0 0.26 0 0.393v0.043zM341.333 832h-152.994l268.497-268.497c16.661-16.663 16.661-43.678 0-60.34s-43.677-16.661-60.34 0l-268.497 268.497v-152.994c0-23.564-19.103-42.667-42.667-42.667s-42.667 19.103-42.667 42.667v256c0 23.564 19.103 42.667 42.667 42.667h256c23.564 0 42.667-19.103 42.667-42.667s-19.103-42.667-42.667-42.667z" />
<glyph unicode="&#xe90a;" glyph-name="margin-right" d="M0 832c0 23.564 19.103 42.667 42.667 42.667h938.667c23.565 0 42.667-19.103 42.667-42.667s-19.102-42.667-42.667-42.667h-938.667c-23.564 0-42.667 19.103-42.667 42.667zM0 576c0 23.564 19.103 42.667 42.667 42.667h384c23.565 0 42.667-19.103 42.667-42.667s-19.102-42.667-42.667-42.667h-384c-23.564 0-42.667 19.103-42.667 42.667zM42.667 362.667c-23.564 0-42.667-19.102-42.667-42.667s19.103-42.667 42.667-42.667h384c23.565 0 42.667 19.102 42.667 42.667s-19.102 42.667-42.667 42.667h-384zM0 64c0 23.565 19.103 42.667 42.667 42.667h938.667c23.565 0 42.667-19.102 42.667-42.667s-19.102-42.667-42.667-42.667h-938.667c-23.564 0-42.667 19.102-42.667 42.667zM725.333 533.333v-42.667h256c23.565 0 42.667-19.102 42.667-42.667s-19.102-42.667-42.667-42.667h-256v-42.667c0-17.259-10.394-32.815-26.338-39.42s-34.295-2.953-46.498 9.25l-85.333 85.333c-16.661 16.661-16.661 43.678 0 60.339l85.333 85.332c12.203 12.203 30.554 15.853 46.498 9.249s26.338-22.162 26.338-39.418z" />
<glyph unicode="&#xe90b;" glyph-name="color" d="M429.154 931.684l-121.538-340.303c-0.262-0.68-0.509-1.368-0.737-2.064l-80.946-226.65h-55.267c-23.564 0-42.667-19.102-42.667-42.667s19.103-42.667 42.667-42.667h84.341c0.663-0.017 1.324-0.017 1.984 0h84.341c23.564 0 42.667 19.102 42.667 42.667s-19.103 42.667-42.667 42.667h-24.788l60.952 170.667h269.009l60.949-170.667h-24.789c-23.565 0-42.667-19.102-42.667-42.667s19.102-42.667 42.667-42.667h84.343c0.661-0.017 1.323-0.017 1.984 0h84.339c23.565 0 42.667 19.102 42.667 42.667s-19.102 42.667-42.667 42.667h-55.266l-81.024 226.87c-0.183 0.547-0.375 1.090-0.58 1.627l-121.613 340.52c-6.067 16.981-22.153 28.316-40.183 28.316h-85.333c-18.031 0-34.116-11.335-40.179-28.316zM524.599 874.667l91.43-256h-208.056l91.427 256h25.199zM42.667 192c-23.564 0-42.667-19.102-42.667-42.667v-170.667c0-23.565 19.103-42.667 42.667-42.667h938.667c23.565 0 42.667 19.102 42.667 42.667v170.667c0 23.565-19.102 42.667-42.667 42.667h-938.667zM85.333 21.333v85.333h853.333v-85.333h-853.333z" />
<glyph unicode="&#xe90c;" glyph-name="underline" d="M298.667 874.667h-42.667v-426.667c0-141.385 114.615-256 256-256s256 114.615 256 256v426.667h-42.667c-23.565 0-42.667 19.103-42.667 42.667s19.102 42.667 42.667 42.667h170.667c23.565 0 42.667-19.103 42.667-42.667s-19.102-42.667-42.667-42.667h-42.667v-426.667c0-188.514-152.819-341.333-341.333-341.333s-341.333 152.819-341.333 341.333v426.667h-42.667c-23.564 0-42.667 19.103-42.667 42.667s19.103 42.667 42.667 42.667h170.667c23.564 0 42.667-19.103 42.667-42.667s-19.103-42.667-42.667-42.667zM42.667 21.333c-23.564 0-42.667-19.102-42.667-42.667s19.103-42.667 42.667-42.667h938.667c23.565 0 42.667 19.102 42.667 42.667s-19.102 42.667-42.667 42.667h-938.667z" />
<glyph unicode="&#xe90d;" glyph-name="align-left" d="M42.667 874.667c-23.564 0-42.667-19.103-42.667-42.667s19.103-42.667 42.667-42.667h938.667c23.565 0 42.667 19.103 42.667 42.667s-19.102 42.667-42.667 42.667h-938.667zM42.667 618.667c-23.564 0-42.667-19.103-42.667-42.667s19.103-42.667 42.667-42.667h512c23.565 0 42.667 19.103 42.667 42.667s-19.102 42.667-42.667 42.667h-512zM0 320c0 23.565 19.103 42.667 42.667 42.667h938.667c23.565 0 42.667-19.102 42.667-42.667s-19.102-42.667-42.667-42.667h-938.667c-23.564 0-42.667 19.102-42.667 42.667zM42.667 106.667c-23.564 0-42.667-19.102-42.667-42.667s19.103-42.667 42.667-42.667h512c23.565 0 42.667 19.102 42.667 42.667s-19.102 42.667-42.667 42.667h-512z" />
<glyph unicode="&#xe90e;" glyph-name="undo" d="M184.846 647.833c4.156 23.195-11.279 45.367-34.473 49.522s-45.367-11.279-49.523-34.473l-53.069-296.201c-0.32-1.626-0.544-3.264-0.674-4.911-0.874-11.093 2.575-22.468 10.345-31.377 4.067-4.681 9.167-8.503 15.031-11.072 3.203-1.404 6.544-2.398 9.941-2.978l296.648-53.193c23.194-4.156 45.369 11.273 49.527 34.466 4.16 23.198-11.272 45.372-34.466 49.527l-208.449 37.38c94.208 68.523 208.365 106.142 326.316 106.142 147.059 0 288.23-58.483 392.183-162.436 16.666-16.661 43.678-16.661 60.343 0 16.661 16.661 16.661 43.678 0 60.339-119.962 119.962-282.833 187.43-452.527 187.43-129.226 0-254.495-39.126-359.869-110.763l32.715 182.595z" />
<glyph unicode="&#xe90f;" glyph-name="flag" d="M128 917.333h554.667v-170.667h315.196l-99.554-298.667 99.554-298.667h-656.529v85.333h538.138l-71.113 213.333 71.113 213.333h-196.804v-341.333h-554.667v-384h-85.333v1024h85.333v-42.667zM128 832v-426.667h469.333v426.667h-469.333z" />
<glyph unicode="&#xe910;" glyph-name="draft" d="M999.006 746.66l-188.339 188.34-507.861-507.86-62.78-251.119 251.119 62.78 507.861 507.859zM357.306 293.299l22.553 90.214 430.808 430.807 67.661-67.66-430.81-430.807-90.212-22.554zM426.667 789.333h-384v-810.667h810.667v384h-85.333v-298.667h-640v640h298.667v85.333z" />
<glyph unicode="&#xe911;" glyph-name="hashtag" d="M432.998 916.861c23.3-3.495 39.36-25.22 35.866-48.524l-128.002-853.335c-3.496-23.3-25.22-39.36-48.524-35.861-23.303 3.494-39.361 25.22-35.865 48.521l128 853.335c3.495 23.303 25.22 39.361 48.526 35.865zM731.665 916.861c23.3-3.495 39.36-25.22 35.866-48.524l-128-853.335c-3.499-23.3-25.225-39.36-48.525-35.861-23.305 3.494-39.36 25.22-35.866 48.521l128 853.335c3.494 23.303 25.22 39.361 48.525 35.865zM170.667 618.667c0 23.564 19.103 42.667 42.667 42.667h640c23.565 0 42.667-19.103 42.667-42.667s-19.102-42.667-42.667-42.667h-640c-23.564 0-42.667 19.103-42.667 42.667zM128 277.333c0 23.565 19.103 42.667 42.667 42.667h640c23.565 0 42.667-19.102 42.667-42.667s-19.102-42.667-42.667-42.667h-640c-23.564 0-42.667 19.102-42.667 42.667z" />
<glyph unicode="&#xe912;" glyph-name="product" d="M89.011 721.328c9.571 21.533 34.785 31.231 56.318 21.661l366.671-162.965 366.673 162.965c21.534 9.57 46.746-0.128 56.316-21.661s-0.128-46.747-21.662-56.318l-384-170.666c-11.029-4.902-23.625-4.902-34.654 0l-384.001 170.666c-21.533 9.571-31.231 34.785-21.661 56.318zM512 576c23.565 0 42.667-19.103 42.667-42.667v-512c0-23.565-19.102-42.667-42.667-42.667s-42.667 19.102-42.667 42.667v512c0 23.564 19.102 42.667 42.667 42.667zM494.673 913.656c11.029 4.903 23.625 4.903 34.654 0l384-170.667c15.411-6.848 25.34-22.128 25.34-38.989v-512c0-16.862-9.929-32.141-25.34-38.989l-384-170.667c-11.029-4.902-23.625-4.902-34.654 0l-384.002 170.667c-15.408 6.848-25.338 22.127-25.338 38.989v512c0 16.861 9.93 32.141 25.338 38.989l384.002 170.667zM170.667 676.272v-456.543l341.333-151.706 341.333 151.706v456.543l-341.333 151.703-341.333-151.703z" />
<glyph unicode="&#xe913;" glyph-name="form" d="M256 448c0 23.565 19.103 42.667 42.667 42.667h426.667c23.565 0 42.667-19.102 42.667-42.667s-19.102-42.667-42.667-42.667h-426.667c-23.564 0-42.667 19.102-42.667 42.667zM256 234.667c0 23.565 19.103 42.667 42.667 42.667h426.667c23.565 0 42.667-19.102 42.667-42.667s-19.102-42.667-42.667-42.667h-426.667c-23.564 0-42.667 19.102-42.667 42.667zM42.667 832c0 23.564 19.103 42.667 42.667 42.667h85.333c23.564 0 42.667-19.103 42.667-42.667s-19.103-42.667-42.667-42.667h-42.667v-768h768v768h-42.667c-23.565 0-42.667 19.103-42.667 42.667s19.102 42.667 42.667 42.667h85.333c23.565 0 42.667-19.103 42.667-42.667v-853.333c0-23.565-19.102-42.667-42.667-42.667h-853.333c-23.564 0-42.667 19.102-42.667 42.667v853.333zM256 917.333c0 23.564 19.103 42.667 42.667 42.667h426.667c23.565 0 42.667-19.103 42.667-42.667v-256c0-23.564-19.102-42.667-42.667-42.667h-128c-23.565 0-42.667 19.103-42.667 42.667 0 23.583-19.085 42.667-42.667 42.667s-42.667-19.084-42.667-42.667c0-23.564-19.102-42.667-42.667-42.667h-128c-23.564 0-42.667 19.103-42.667 42.667v256zM341.333 874.667v-170.667h49.946c17.565 49.723 64.973 85.333 120.721 85.333s103.155-35.61 120.721-85.333h49.946v170.667h-341.333z" />
<glyph unicode="&#xe914;" glyph-name="broadcast" d="M128 376.875c23.564 0 42.667-19.102 42.667-42.667v-152.691l213.333-60.954v114.103c0 23.565 19.103 42.667 42.667 42.667s42.667-19.102 42.667-42.667v-170.667c0-13.389-6.285-26.001-16.973-34.061-10.688-8.064-24.542-10.641-37.415-6.963l-298.667 85.333c-18.317 5.231-30.945 21.973-30.945 41.024v184.875c0 23.565 19.103 42.667 42.667 42.667zM707.614 866.612c11.127-8.019 17.719-20.898 17.719-34.613v-682.666c0-13.717-6.592-26.594-17.719-34.615-11.127-8.017-25.429-10.197-38.438-5.862l-640.001 213.333c-17.423 5.807-29.174 22.114-29.174 40.478v256c0 18.365 11.752 34.67 29.174 40.477l640.001 213.333c13.009 4.337 27.311 2.155 38.438-5.865zM85.333 587.914v-194.493l554.667-184.892v564.274l-554.667-184.889zM853.333 490.667c0 23.565 19.102 42.667 42.667 42.667h85.333c23.565 0 42.667-19.102 42.667-42.667s-19.102-42.667-42.667-42.667h-85.333c-23.565 0-42.667 19.102-42.667 42.667zM954.108 746.964c11.947-20.311 5.167-46.461-15.142-58.409l-72.533-42.667c-20.309-11.948-46.464-5.168-58.411 15.143s-5.167 46.461 15.142 58.409l72.533 42.667c20.314 11.948 46.464 5.168 58.411-15.143zM808.021 320.299c11.947 20.309 38.101 27.089 58.411 15.142l72.533-42.667c20.309-11.947 27.089-38.097 15.142-58.411-11.947-20.309-38.097-27.089-58.411-15.142l-72.533 42.667c-20.309 11.947-27.089 38.097-15.142 58.411z" />
<glyph unicode="&#xe915;" glyph-name="email-activity1" d="M512 704c23.565 0 42.667-19.103 42.667-42.667v-213.333c0-23.565-19.102-42.667-42.667-42.667s-42.667 19.102-42.667 42.667v213.333c0 23.564 19.102 42.667 42.667 42.667zM682.667 618.667c23.565 0 42.667-19.103 42.667-42.667v-128c0-23.565-19.102-42.667-42.667-42.667s-42.667 19.102-42.667 42.667v128c0 23.564 19.102 42.667 42.667 42.667zM341.333 533.333c23.564 0 42.667-19.102 42.667-42.667v-42.667c0-23.565-19.103-42.667-42.667-42.667s-42.667 19.102-42.667 42.667v42.667c0 23.565 19.103 42.667 42.667 42.667zM213.333 789.333c-23.583 0-42.667-19.084-42.667-42.667v-341.333c0-23.565-19.103-42.667-42.667-42.667s-42.667 19.102-42.667 42.667v341.333c0 70.711 57.289 128 128 128h597.333c70.711 0 128-57.289 128-128v-341.333c0-23.565-19.102-42.667-42.667-42.667s-42.667 19.102-42.667 42.667v341.333c0 23.583-19.085 42.667-42.667 42.667h-597.333zM0 277.333c0 23.565 19.103 42.667 42.667 42.667h938.667c23.565 0 42.667-19.102 42.667-42.667v-85.333c0-70.711-57.289-128-128-128h-768c-70.711 0-128 57.289-128 128v85.333zM85.333 234.667v-42.667c0-23.582 19.084-42.667 42.667-42.667h768c23.582 0 42.667 19.085 42.667 42.667v42.667h-853.333z" />
<glyph unicode="&#xe916;" glyph-name="custom-field1" d="M491.597 917.344c15.531 0 29.717-9.429 36.595-24.324l116.612-252.609 260.774-40.515c15.373-2.388 28.147-13.903 32.947-29.701s0.798-33.141-10.33-44.733l-122.436-127.603c-16.141-16.823-41.975-16.465-57.711 0.794-15.731 17.259-15.398 44.885 0.742 61.709l63.211 65.877-200.166 31.101c-13.291 2.065-24.785 10.991-30.729 23.87l-89.51 193.905-89.513-193.905c-5.945-12.879-17.436-21.805-30.728-23.87l-200.175-31.101 144.844-150.976c9.617-10.027 14.007-24.469 11.737-38.622l-34.185-213.193 97.408 54.746c19.952 11.213 44.625 3.008 55.113-18.325s2.816-47.718-17.139-58.931l-170.591-95.876c-13.75-7.727-30.41-6.438-42.977 3.324-12.567 9.766-18.86 26.308-16.235 42.679l44.532 277.713-188.695 196.685c-11.124 11.595-15.127 28.937-10.326 44.735s17.573 27.311 32.945 29.7l260.777 40.515 116.61 252.609c6.878 14.895 21.065 24.324 36.599 24.324zM532.407 22.31c0 24.098 18.27 43.639 40.811 43.639h367.305c22.541 0 40.811-19.541 40.811-43.639 0-24.102-18.27-43.639-40.811-43.639h-367.305c-22.541 0-40.811 19.537-40.811 43.639zM532.407 240.516c0 24.102 18.27 43.639 40.811 43.639h367.305c22.541 0 40.811-19.537 40.811-43.639s-18.27-43.639-40.811-43.639h-367.305c-22.541 0-40.811 19.537-40.811 43.639z" />
<glyph unicode="&#xe917;" glyph-name="assessment" d="M794.654 865.315c18.402-14.72 21.385-41.57 6.665-59.971l-512.001-639.999c-7.581-9.476-18.84-15.279-30.958-15.949s-23.948 3.849-32.529 12.433l-170.667 170.667c-16.662 16.661-16.662 43.674 0 60.339 16.663 16.661 43.677 16.661 60.34 0l136.959-136.96 482.22 602.776c14.72 18.4 41.57 21.384 59.972 6.663zM810.667 618.667c0 23.564 19.102 42.667 42.667 42.667h128c23.565 0 42.667-19.103 42.667-42.667s-19.102-42.667-42.667-42.667h-128c-23.565 0-42.667 19.103-42.667 42.667zM640 405.333c0 23.565 19.102 42.667 42.667 42.667h298.667c23.565 0 42.667-19.102 42.667-42.667s-19.102-42.667-42.667-42.667h-298.667c-23.565 0-42.667 19.102-42.667 42.667zM469.333 192c0 23.565 19.102 42.667 42.667 42.667h469.333c23.565 0 42.667-19.102 42.667-42.667s-19.102-42.667-42.667-42.667h-469.333c-23.565 0-42.667 19.102-42.667 42.667z" />
<glyph unicode="&#xe918;" glyph-name="skipped" horiz-adv-x="1117" d="M1099.19 950.141c11.297-8.821 17.901-22.354 17.901-36.687v-418.909c0-25.707-20.838-46.545-46.545-46.545s-46.545 20.838-46.545 46.545v359.294l-314.531-78.632c-8.588-2.147-17.608-1.8-26.005 0.999l-266.415 88.805-323.958-80.99v-741.861l314.529 78.629c8.588 2.15 17.61 1.801 26.008-0.996l139.635-46.545c24.39-8.131 37.567-34.49 29.44-58.875-8.131-24.39-34.49-37.567-58.875-29.44l-126.779 42.259-359.214-89.805c-13.905-3.472-28.636-0.349-39.934 8.471s-17.901 22.356-17.901 36.687v837.818c0 21.358 14.536 39.976 35.257 45.156l372.363 93.091c8.588 2.147 17.61 1.8 26.008-0.999l266.415-88.805 359.215 89.804c13.903 3.476 28.635 0.352 39.931-8.468zM1056.912 294.73c18.176-18.176 18.176-47.649 0-65.825l-106.724-106.724 106.724-106.724c18.176-18.176 18.176-47.649 0-65.825s-47.649-18.176-65.825 0l-106.724 106.724-106.724-106.724c-18.176-18.176-47.649-18.176-65.825 0s-18.176 47.649 0 65.825l106.724 106.724-106.724 106.724c-18.176 18.176-18.176 47.649 0 65.825s47.649 18.176 65.825 0l106.724-106.724 106.724 106.724c18.176 18.176 47.649 18.176 65.825 0z" />
<glyph unicode="&#xe919;" glyph-name="connect" d="M85.333 661.333c0 70.687 57.313 128 128 128h384c70.686 0 128-57.313 128-128v-170.667c0-70.686-57.314-128-128-128h-170.667c-23.564 0-42.667-19.102-42.667-42.667s19.102-42.667 42.667-42.667h170.667c117.815 0 213.333 95.518 213.333 213.333v170.667c0 117.815-95.518 213.333-213.333 213.333h-384c-117.815 0-213.333-95.519-213.333-213.333v-170.667c0-63.735 28.003-121.007 72.256-160.038 17.672-15.59 44.634-13.901 60.221 3.772s13.898 44.634-3.773 60.22c-26.659 23.518-43.371 57.809-43.371 96.047v170.667zM298.667 405.333c0 70.686 57.313 128 128 128h170.667c23.565 0 42.667 19.103 42.667 42.667s-19.102 42.667-42.667 42.667h-170.667c-117.815 0-213.333-95.518-213.333-213.333v-170.667c0-117.815 95.519-213.333 213.333-213.333h384c117.815 0 213.333 95.518 213.333 213.333v170.667c0 63.735-28.002 121.007-72.256 160.040-17.673 15.588-44.634 13.898-60.22-3.773-15.59-17.672-13.901-44.634 3.772-60.22 26.658-23.518 43.371-57.809 43.371-96.047v-170.667c0-70.686-57.314-128-128-128h-384c-70.687 0-128 57.314-128 128v170.667z" />
<glyph unicode="&#xe91a;" glyph-name="round-dollar" d="M512 874.667c-235.642 0-426.667-191.025-426.667-426.667 0-235.639 191.025-426.667 426.667-426.667 235.639 0 426.667 191.027 426.667 426.667 0 235.642-191.027 426.667-426.667 426.667zM0 448c0 282.77 229.23 512 512 512s512-229.23 512-512c0-282.769-229.231-512-512-512s-512 229.231-512 512zM512 789.333c23.565 0 42.667-19.103 42.667-42.667v-22.921c47.876-5.476 93.244-18.628 121.886-34.371 20.651-11.351 28.19-37.293 16.841-57.943-11.354-20.65-37.295-28.189-57.946-16.838-16.282 8.95-46.682 18.27-80.781 23.136v-148.010c24.226-8.508 49.634-18.722 70.852-32.397 34.551-22.268 62.78-56.764 62.78-109.636 0-44.698-14.959-81.766-43.392-108.646-25.203-23.825-57.587-36.433-90.24-42.406v-47.3c0-23.565-19.102-42.667-42.667-42.667s-42.667 19.102-42.667 42.667v43.844c-49.259 3.738-99.619 15.919-142.481 31.386-22.165 8-33.649 32.452-25.651 54.618s32.451 33.651 54.616 25.651c36.213-13.069 76.217-22.511 113.516-26.018v149.709c-27.716 9.835-57.651 22.246-82.353 40.358-35.111 25.745-60.664 63.693-60.664 118.548 0 46.758 20.483 82.48 53.204 105.547 26.403 18.613 58.633 27.596 89.814 31.304v22.387c0 23.564 19.102 42.667 42.667 42.667zM469.333 638.076c-17.681-3.080-31.356-8.296-40.649-14.845-10.287-7.253-17.036-17.088-17.036-35.802 0-23.524 9.028-37.442 25.791-49.732 8.922-6.544 19.58-12.236 31.893-17.612v117.991zM554.667 398.353v-114.142c14.089 4.215 24.465 10.078 31.616 16.841 9.169 8.666 16.683 22.17 16.683 46.635 0 16.286-6.349 26.743-23.671 37.905-7.198 4.638-15.403 8.789-24.627 12.762z" />
<glyph unicode="&#xe91b;" glyph-name="coupon" d="M42.667 832c-23.564 0-42.667-19.103-42.667-42.667v-213.333c0-23.564 19.103-42.667 42.667-42.667 48.969 0 85.333-36.365 85.333-85.333s-36.364-85.333-85.333-85.333c-23.564 0-42.667-19.102-42.667-42.667v-213.333c0-23.565 19.103-42.667 42.667-42.667h938.667c23.565 0 42.667 19.102 42.667 42.667v213.333c0 23.565-19.102 42.667-42.667 42.667-48.969 0-85.333 36.365-85.333 85.333s36.365 85.333 85.333 85.333c23.565 0 42.667 19.103 42.667 42.667v213.333c0 23.564-19.102 42.667-42.667 42.667h-938.667zM85.333 613.556v133.111h853.333v-133.111c-74.628-18.364-128-84.255-128-165.556s53.372-147.191 128-165.555v-133.111h-853.333v133.111c74.627 18.364 128 84.254 128 165.555s-53.373 147.192-128 165.556zM414.17 289.83l256 256c16.661 16.663 16.661 43.677 0 60.34s-43.678 16.662-60.339 0l-256-256c-16.662-16.661-16.662-43.678 0-60.339s43.677-16.661 60.34 0zM405.333 533.333c35.345 0 64 28.654 64 64s-28.655 64-64 64c-35.346 0-64-28.654-64-64s28.654-64 64-64zM682.667 298.667c0-35.345-28.655-64-64-64s-64 28.655-64 64c0 35.345 28.655 64 64 64s64-28.655 64-64z" />
<glyph unicode="&#xe91c;" glyph-name="add-image" d="M0 917.333c0 23.564 19.103 42.667 42.667 42.667h896c23.565 0 42.667-19.103 42.667-42.667v-512c0-23.565-19.102-42.667-42.667-42.667s-42.667 19.102-42.667 42.667v469.333h-810.667v-810.667h469.333c23.565 0 42.667-19.102 42.667-42.667s-19.102-42.667-42.667-42.667h-512c-23.564 0-42.667 19.102-42.667 42.667v896zM755.503 520.836c16.661-16.661 16.661-43.678 0-60.339l-213.333-213.333c-15.014-15.014-38.784-16.704-55.77-3.964l-141.063 105.796-101.834-101.833c-16.663-16.661-43.677-16.661-60.34 0s-16.662 43.678 0 60.339l128 128c15.014 15.014 38.784 16.704 55.77 3.964l141.065-105.796 187.166 187.166c16.661 16.663 43.678 16.663 60.339 0zM341.333 661.333c0 23.564 19.102 42.667 42.667 42.667s42.667-19.103 42.667-42.667c0-23.564-19.103-42.667-42.667-42.667s-42.667 19.103-42.667 42.667zM384 789.333c-70.692 0-128-57.308-128-128s57.308-128 128-128c70.694 0 128 57.308 128 128s-57.306 128-128 128zM853.333 277.333c23.565 0 42.667-19.102 42.667-42.667v-85.333h85.333c23.565 0 42.667-19.102 42.667-42.667s-19.102-42.667-42.667-42.667h-85.333v-85.333c0-23.565-19.102-42.667-42.667-42.667s-42.667 19.102-42.667 42.667v85.333h-85.333c-23.565 0-42.667 19.102-42.667 42.667s19.102 42.667 42.667 42.667h85.333v85.333c0 23.565 19.102 42.667 42.667 42.667z" />
<glyph unicode="&#xe91d;" glyph-name="automations" d="M512 917.333c23.565 0 42.667-19.103 42.667-42.667v-896c0-23.565-19.102-42.667-42.667-42.667s-42.667 19.102-42.667 42.667v896c0 23.564 19.102 42.667 42.667 42.667zM213.333 576c23.564 0 42.667-19.103 42.667-42.667v-256c0-33.946 13.486-66.505 37.49-90.509s56.562-37.491 90.51-37.491h128c23.565 0 42.667-19.102 42.667-42.667s-19.102-42.667-42.667-42.667h-128c-56.579 0-110.842 22.477-150.849 62.485-40.008 40.004-62.484 94.268-62.484 150.848v256c0 23.564 19.103 42.667 42.667 42.667zM810.667 704c23.565 0 42.667-19.103 42.667-42.667v-213.333c0-56.58-22.477-110.844-62.485-150.848-40.004-40.009-94.268-62.485-150.848-62.485h-128c-23.565 0-42.667 19.102-42.667 42.667s19.102 42.667 42.667 42.667h128c33.946 0 66.505 13.487 90.509 37.491s37.491 56.563 37.491 90.509v213.333c0 23.564 19.102 42.667 42.667 42.667zM481.83 904.837c16.661 16.662 43.678 16.662 60.339 0l128-128c16.661-16.663 16.661-43.677 0-60.34s-43.678-16.662-60.339 0l-97.83 97.83-97.83-97.83c-16.663-16.662-43.677-16.662-60.34 0s-16.662 43.677 0 60.34l128 128zM183.163 563.503c16.663 16.662 43.677 16.662 60.34 0l128-128c16.662-16.661 16.662-43.678 0-60.339s-43.677-16.661-60.34 0l-97.83 97.83-97.83-97.83c-16.663-16.661-43.677-16.661-60.34 0s-16.662 43.678 0 60.339l128 128zM780.497 691.503c16.661 16.662 43.678 16.662 60.339 0l128-128c16.661-16.663 16.661-43.678 0-60.34s-43.678-16.661-60.339 0l-97.83 97.83-97.83-97.83c-16.661-16.661-43.678-16.661-60.339 0s-16.661 43.677 0 60.34l128 128z" />
<glyph unicode="&#xe91e;" glyph-name="list-stack" d="M42.667 874.667c0 23.564 19.103 42.667 42.667 42.667h853.333c23.565 0 42.667-19.103 42.667-42.667v-170.667c0-23.564-19.102-42.667-42.667-42.667h-853.333c-23.564 0-42.667 19.103-42.667 42.667v170.667zM128 832v-85.333h768v85.333h-768zM42.667 533.333c0 23.564 19.103 42.667 42.667 42.667h853.333c23.565 0 42.667-19.102 42.667-42.667v-170.667c0-23.565-19.102-42.667-42.667-42.667h-853.333c-23.564 0-42.667 19.102-42.667 42.667v170.667zM128 490.667v-85.333h768v85.333h-768zM85.333 234.667c-23.564 0-42.667-19.102-42.667-42.667v-170.667c0-23.565 19.103-42.667 42.667-42.667h853.333c23.565 0 42.667 19.102 42.667 42.667v170.667c0 23.565-19.102 42.667-42.667 42.667h-853.333zM128 64v85.333h768v-85.333h-768z" />
<glyph unicode="&#xe91f;" glyph-name="list-details" d="M85.333 917.333c-23.564 0-42.667-19.103-42.667-42.667v-298.667c0-23.564 19.103-42.667 42.667-42.667h298.667c23.564 0 42.667 19.103 42.667 42.667v298.667c0 23.564-19.103 42.667-42.667 42.667h-298.667zM128 618.667v213.333h213.333v-213.333h-213.333zM85.333 362.667c-23.564 0-42.667-19.102-42.667-42.667v-298.667c0-23.565 19.103-42.667 42.667-42.667h298.667c23.564 0 42.667 19.102 42.667 42.667v298.667c0 23.565-19.103 42.667-42.667 42.667h-298.667zM128 64v213.333h213.333v-213.333h-213.333zM554.667 832c0 23.564 19.102 42.667 42.667 42.667h341.333c23.565 0 42.667-19.103 42.667-42.667s-19.102-42.667-42.667-42.667h-341.333c-23.565 0-42.667 19.103-42.667 42.667zM597.333 661.333c-23.565 0-42.667-19.103-42.667-42.667s19.102-42.667 42.667-42.667h341.333c23.565 0 42.667 19.103 42.667 42.667s-19.102 42.667-42.667 42.667h-341.333zM554.667 277.333c0 23.565 19.102 42.667 42.667 42.667h341.333c23.565 0 42.667-19.102 42.667-42.667s-19.102-42.667-42.667-42.667h-341.333c-23.565 0-42.667 19.102-42.667 42.667zM597.333 106.667c-23.565 0-42.667-19.102-42.667-42.667s19.102-42.667 42.667-42.667h341.333c23.565 0 42.667 19.102 42.667 42.667s-19.102 42.667-42.667 42.667h-341.333z" />
<glyph unicode="&#xe920;" glyph-name="sort" d="M282.335 914.096c-5.033-2.082-9.747-5.169-13.838-9.259l-170.667-170.667c-16.662-16.663-16.662-43.677 0-60.34s43.677-16.662 60.34 0l97.83 97.83v-536.994c0-23.565 19.103-42.667 42.667-42.667s42.667 19.102 42.667 42.667v536.994l97.83-97.83c16.661-16.662 43.678-16.662 60.339 0s16.661 43.677 0 60.34l-170.666 170.667-46.502 9.259zM282.335 914.096c5.030 2.086 10.547 3.238 16.332 3.238 11.736 0 22.365-4.739 30.079-12.407l-46.411 9.169zM724.941-21.333c-10.79 0.102-21.547 4.267-29.777 12.497l-170.667 170.667c-16.661 16.661-16.661 43.678 0 60.339s43.678 16.661 60.339 0l97.83-97.83v579.661c0 23.564 19.102 42.667 42.667 42.667s42.667-19.103 42.667-42.667v-579.661l97.83 97.83c16.661 16.661 43.678 16.661 60.339 0s16.661-43.678 0-60.339l-170.667-170.667c-8.23-8.23-18.987-12.395-29.777-12.497z" />
<glyph unicode="&#xe921;" glyph-name="funnel" d="M42.667 917.333c0 23.564 19.103 42.667 42.667 42.667h853.333c23.565 0 42.667-19.103 42.667-42.667v-128c0-11.316-4.497-22.168-12.497-30.17l-328.836-328.836v-323.661c0-16.162-9.131-30.933-23.586-38.161l-170.667-85.333c-13.227-6.613-28.933-5.909-41.512 1.865-12.579 7.778-20.236 21.508-20.236 36.297v408.994l-328.837 328.836c-8.001 8.002-12.497 18.854-12.497 30.17v128zM128 874.667v-67.66l328.836-328.837c8-8 12.497-18.854 12.497-30.17v-357.632l85.333 42.667v314.965c0 11.315 4.497 22.17 12.497 30.17l328.836 328.837v67.66h-768z" />
<glyph unicode="&#xe922;" glyph-name="filters" d="M42.667 874.667h938.667c23.595 0 42.667-19.072 42.667-42.667s-19.072-42.667-42.667-42.667h-938.667c-23.595 0-42.667 19.072-42.667 42.667s19.072 42.667 42.667 42.667zM170.667 618.667h682.667c23.595 0 42.667-19.072 42.667-42.667s-19.072-42.667-42.667-42.667h-682.667c-23.595 0-42.667 19.072-42.667 42.667s19.072 42.667 42.667 42.667zM725.333 362.667h-426.667c-23.595 0-42.667-19.072-42.667-42.667s19.072-42.667 42.667-42.667h426.667c23.595 0 42.667 19.072 42.667 42.667s-19.072 42.667-42.667 42.667zM426.667 106.667h170.667c23.595 0 42.667-19.072 42.667-42.667s-19.072-42.667-42.667-42.667h-170.667c-23.595 0-42.667 19.072-42.667 42.667s19.072 42.667 42.667 42.667z" />
<glyph unicode="&#xe923;" glyph-name="folder-group" d="M42.667 960c-23.564 0-42.667-19.103-42.667-42.667v-512c0-23.565 19.103-42.667 42.667-42.667h256c23.564 0 42.667 19.102 42.667 42.667s-19.103 42.667-42.667 42.667h-213.333v426.667h110.327l72.836-72.837c8.002-8.001 18.854-12.497 30.17-12.497h213.333v-128c0-23.564 19.102-42.667 42.667-42.667s42.667 19.103 42.667 42.667v170.667c0 23.564-19.102 42.667-42.667 42.667h-238.327l-72.836 72.837c-8.002 8.002-18.854 12.497-30.17 12.497h-170.667zM469.333 533.333c-23.565 0-42.667-19.102-42.667-42.667v-512c0-23.565 19.102-42.667 42.667-42.667h512c23.565 0 42.667 19.102 42.667 42.667v426.667c0 23.565-19.102 42.667-42.667 42.667h-238.327l-72.836 72.836c-8 8-18.854 12.497-30.17 12.497h-170.667zM512 21.333v426.667h110.327l72.836-72.836c8-8 18.854-12.497 30.17-12.497h213.333v-341.333h-426.667z" />
<glyph unicode="&#xe924;" glyph-name="upload" d="M46.545 308.365c25.706 0 46.545-20.838 46.545-46.545v-232.73h837.819v232.73c0 25.707 20.838 46.545 46.545 46.545s46.545-20.838 46.545-46.545v-279.275c0-25.707-20.838-46.545-46.545-46.545h-930.909c-25.706 0-46.545 20.838-46.545 46.545v279.275c0 25.707 20.839 46.545 46.545 46.545zM512.004 960c25.707 0 46.545-20.839 46.545-46.545v-698.18c0-25.707-20.838-46.549-46.545-46.549s-46.545 20.843-46.545 46.549v698.18c0 25.706 20.838 46.545 46.545 46.545zM479.083 946.367c18.176 18.177 47.65 18.177 65.826 0l279.27-279.273c18.18-18.177 18.18-47.648 0-65.825-18.176-18.177-47.646-18.177-65.822 0l-246.362 246.36-246.361-246.36c-18.177-18.177-47.648-18.177-65.825 0s-18.177 47.648 0 65.825l279.273 279.273z" />
<glyph unicode="&#xe925;" glyph-name="attach" d="M746.364 793.298c-60.139 60.137-152.589 60.137-212.727 0l-332.8-332.801c-90.004-90.005-90.004-242.189 0-332.194 90.004-90.001 242.188-90.001 332.194 0l375.467 375.467c16.661 16.666 43.678 16.666 60.339 0 16.661-16.661 16.661-43.678 0-60.339l-375.467-375.467c-123.328-123.328-329.544-123.328-452.873 0s-123.329 329.545 0 452.873l332.8 332.801c93.461 93.462 239.945 93.462 333.406 0s93.461-239.944 0-333.407l-0.209-0.209h-0.004l-306.987-302.724c-0.038-0.038-0.077-0.077-0.115-0.115-58.146-58.022-154.084-60.625-210.343 0.909-57.351 58.189-59.716 153.553 1.509 209.604l255.276 255.276c16.661 16.663 43.678 16.663 60.339 0s16.661-43.677 0-60.34l-256-256.001c-0.529-0.529-1.072-1.041-1.628-1.545-22.902-20.612-25.309-60.51 1.628-87.45 0.529-0.529 1.044-1.071 1.544-1.626 20.612-22.903 60.513-25.31 87.45 1.626l0.209 0.213h0.004l307.085 302.822c60.041 60.14 60.006 152.522-0.098 212.627z" />
<glyph unicode="&#xe926;" glyph-name="quote" d="M272.303 792.58c21.776 9.004 32.131 33.956 23.127 55.732s-33.956 32.13-55.732 23.127c-77.604-32.086-138.539-84.084-179.512-156.609-40.609-71.88-60.185-161.34-60.185-266.822v-426.667c0-23.565 19.103-42.667 42.667-42.667h341.333c23.564 0 42.667 19.102 42.667 42.667v426.667c0 23.565-19.102 42.667-42.667 42.667h-297.412c4.554 75.119 21.349 135.195 47.893 182.181 31.027 54.919 76.759 94.478 137.821 119.724zM85.333 64.009v341.333h256v-341.333h-256zM869.636 792.58c21.777 9.004 32.128 33.956 23.125 55.732s-33.954 32.13-55.731 23.127c-77.602-32.086-138.539-84.084-179.511-156.609-40.61-71.88-60.186-161.34-60.186-266.822v-426.667c0-23.565 19.102-42.667 42.667-42.667h341.333c23.565 0 42.667 19.102 42.667 42.667v426.667c0 23.565-19.102 42.667-42.667 42.667h-297.412c4.553 75.119 21.35 135.195 47.893 182.181 31.027 54.919 76.757 94.478 137.822 119.724zM682.667 64.009v341.333h256v-341.333h-256z" />
<glyph unicode="&#xe927;" glyph-name="margin-left" d="M0 832c0 23.564 19.103 42.667 42.667 42.667h938.667c23.565 0 42.667-19.103 42.667-42.667s-19.102-42.667-42.667-42.667h-938.667c-23.564 0-42.667 19.103-42.667 42.667zM554.667 576c0 23.564 19.102 42.667 42.667 42.667h384c23.565 0 42.667-19.103 42.667-42.667s-19.102-42.667-42.667-42.667h-384c-23.565 0-42.667 19.103-42.667 42.667zM597.333 362.667c-23.565 0-42.667-19.102-42.667-42.667s19.102-42.667 42.667-42.667h384c23.565 0 42.667 19.102 42.667 42.667s-19.102 42.667-42.667 42.667h-384zM0 64c0 23.565 19.103 42.667 42.667 42.667h938.667c23.565 0 42.667-19.102 42.667-42.667s-19.102-42.667-42.667-42.667h-938.667c-23.564 0-42.667 19.102-42.667 42.667zM42.667 490.667c-23.564 0-42.667-19.102-42.667-42.667s19.103-42.667 42.667-42.667h256v-42.667c0-17.259 10.395-32.815 26.339-39.42s34.295-2.953 46.498 9.25l85.333 85.333c16.661 16.661 16.661 43.678 0 60.339l-85.333 85.334c-12.203 12.202-30.554 15.853-46.498 9.249s-26.339-22.162-26.339-39.419v-42.667h-256z" />
<glyph unicode="&#xe928;" glyph-name="bold" d="M85.333 917.333c0 23.564 19.103 42.667 42.667 42.667h469.333c141.385 0 256-114.615 256-256 0-78.9-35.695-149.464-91.814-196.425 104.384-46.549 177.148-151.232 177.148-272.909 0-164.949-133.717-298.667-298.667-298.667h-512c-23.564 0-42.667 19.102-42.667 42.667s19.103 42.667 42.667 42.667h42.667v853.333h-42.667c-23.564 0-42.667 19.103-42.667 42.667zM256 533.333h341.333c94.255 0 170.667 76.41 170.667 170.667s-76.412 170.667-170.667 170.667h-341.333v-341.333zM256 448v-426.667h384c117.82 0 213.333 95.514 213.333 213.333s-95.514 213.333-213.333 213.333h-384z" />
<glyph unicode="&#xe929;" glyph-name="subscript" d="M85.333 917.333c-23.564 0-42.667-19.103-42.667-42.667v-85.333c0-23.564 19.103-42.667 42.667-42.667s42.667 19.103 42.667 42.667v42.667h256v-640h-128c-23.564 0-42.667-19.102-42.667-42.667s19.103-42.667 42.667-42.667h341.333c23.565 0 42.667 19.102 42.667 42.667s-19.102 42.667-42.667 42.667h-128v640h256v-42.667c0-23.564 19.102-42.667 42.667-42.667s42.667 19.103 42.667 42.667v85.333c0 23.564-19.102 42.667-42.667 42.667h-682.667zM738.56 61.611v-40.277h200.107v81.451h-45.909l-6.059-34.219c-0.853-4.352-2.603-5.205-6.912-5.205h-63.701l49.271 47.125c31.479 30.161 59.443 56.956 59.443 97.557 0 40.704-23.808 69.291-90.965 69.291-45.483 0-97.877-11.264-98.261-80.171l58.88-5.205c0 30.763 9.941 38.571 33.792 38.571 22.955 0 30.763-11.691 30.763-27.733 0-23.919-17.54-40.934-58.492-80.666-1.271-1.233-2.569-2.492-3.887-3.772l-58.069-56.747z" />
<glyph unicode="&#xe92a;" glyph-name="align-center" d="M42.667 874.667c-23.564 0-42.667-19.103-42.667-42.667s19.103-42.667 42.667-42.667h938.667c23.565 0 42.667 19.103 42.667 42.667s-19.102 42.667-42.667 42.667h-938.667zM256 618.667c-23.564 0-42.667-19.103-42.667-42.667s19.103-42.667 42.667-42.667h512c23.565 0 42.667 19.103 42.667 42.667s-19.102 42.667-42.667 42.667h-512zM0 320c0 23.565 19.103 42.667 42.667 42.667h938.667c23.565 0 42.667-19.102 42.667-42.667s-19.102-42.667-42.667-42.667h-938.667c-23.564 0-42.667 19.102-42.667 42.667zM256 106.667c-23.564 0-42.667-19.102-42.667-42.667s19.103-42.667 42.667-42.667h512c23.565 0 42.667 19.102 42.667 42.667s-19.102 42.667-42.667 42.667h-512z" />
<glyph unicode="&#xe92b;" glyph-name="redo" d="M923.145 662.882c-4.156 23.194-26.325 38.629-49.523 34.473-23.194-4.156-38.626-26.327-34.47-49.522l32.717-182.612c-105.374 71.655-230.643 110.78-359.863 110.78-169.695 0-332.569-67.469-452.528-187.43-16.663-16.661-16.663-43.678 0-60.339s43.677-16.661 60.34 0c103.956 103.953 245.124 162.436 392.189 162.436 117.939 0 232.085-37.611 326.289-106.146l-208.431-37.376c-23.194-4.156-38.626-26.33-34.466-49.527 4.16-23.194 26.334-38.622 49.527-34.466l295.078 52.911c8.969 1.19 17.63 5.231 24.521 12.122 10.423 10.415 14.332 24.887 11.721 38.34l-53.099 296.358z" />
<glyph unicode="&#xe92c;" glyph-name="9" d="M1024 448c0 282.77-229.231 512-512 512s-512-229.23-512-512c0-282.769 229.23-512 512-512s512 229.231 512 512zM938.662 448c0-235.644-191.023-426.667-426.667-426.667-235.64 0-426.665 191.023-426.665 426.667 0 235.64 191.025 426.666 426.665 426.666 235.644 0 426.667-191.025 426.667-426.666zM343.042 532.425c0 91.926 67.796 162.020 169.837 161.331 90.317-0.46 179.486-55.846 179.716-227.289 0.23-162.022-71.701-256.247-184.546-256.247-89.167 0-150.759 56.764-160.411 134.673h83.884c8.503-37.461 35.853-60.902 76.527-60.902 65.041 0 101.581 59.981 101.811 160.644h-3.217c-22.754-40.448-66.876-65.041-117.666-65.041-82.505 0-145.705 64.119-145.935 152.832zM600.439 534.951c0 48.032-37.001 89.859-87.334 89.859-49.869 0-87.329-39.988-87.329-90.548 0.23-50.332 36.312-89.858 86.412-89.858 49.643 0 88.482 41.826 88.252 90.548z" />
<glyph unicode="&#xe92d;" glyph-name="8" d="M1024 448c0 282.77-229.231 512-512 512s-512-229.23-512-512c0-282.769 229.23-512 512-512s512 229.231 512 512zM938.662 448c0-235.644-191.023-426.667-426.667-426.667-235.64 0-426.665 191.023-426.665 426.667 0 235.64 191.025 426.666 426.665 426.666 235.644 0 426.667-191.025 426.667-426.666zM687.936 337.702c-0.23-76.527-73.084-132.604-174.891-132.604-102.73 0-175.352 56.077-175.122 132.604-0.23 58.833 42.746 108.015 98.361 117.21v3.217c-48.49 10.569-81.125 53.316-80.895 104.336-0.23 72.623 66.417 126.17 157.656 126.17 90.547 0 157.193-53.777 157.423-126.17-0.23-51.020-33.323-93.768-80.896-104.336v-3.217c54.699-9.195 98.133-58.377 98.364-117.21zM425.713 343.68c-0.46-43.439 34.011-72.853 87.332-72.853 52.629 0 86.869 29.414 87.33 72.853-0.461 44.813-37.231 76.988-87.33 76.988-50.79 0-87.792-31.945-87.332-76.988zM438.583 554.422c-0.461-40.907 30.797-69.174 74.462-69.174 42.974 0 74.001 28.036 74.462 69.174-0.461 40.448-30.566 67.567-74.462 67.567-44.587 0-74.923-27.119-74.462-67.567z" />
<glyph unicode="&#xe92e;" glyph-name="7" d="M1024 448c0 282.77-229.231 512-512 512s-512-229.23-512-512c0-282.769 229.23-512 512-512s512 229.231 512 512zM938.662 448c0-235.644-191.023-426.667-426.667-426.667-235.64 0-426.665 191.023-426.665 426.667 0 235.64 191.025 426.666 426.665 426.666 235.644 0 426.667-191.025 426.667-426.666zM484.177 207.727h-88.482l200.17 396.208v3.217h-232.345v71.244h320.596v-72.852l-199.94-397.817z" />
<glyph unicode="&#xe92f;" glyph-name="mapped" d="M1024 874.666c0 13.139-6.054 25.545-16.41 33.63s-23.859 10.949-36.604 7.762l-329.28-82.32-244.214 81.404c-7.698 2.566-15.968 2.884-23.841 0.916l-341.333-85.333c-18.994-4.748-32.318-21.814-32.318-41.393v-768c0-13.137 6.053-25.545 16.409-33.63s23.859-10.948 36.606-7.765l329.28 82.321 73.59-24.529c22.353-7.45 46.515 4.629 53.969 26.987 7.45 22.353-4.629 46.515-26.987 53.969l-85.375 28.459c-7.698 2.564-15.968 2.884-23.841 0.913l-288.318-72.077v680.039l296.961 74.24 244.214-81.404c7.697-2.566 15.966-2.884 23.838-0.916l288.32 72.079v-414.686c0-23.565 19.102-42.667 42.667-42.667s42.667 19.102 42.667 42.667v469.333zM968.836 204.497c16.661 16.661 16.661 43.678 0 60.339s-43.678 16.661-60.339 0l-183.164-183.164-55.164 55.164c-16.661 16.661-43.678 16.661-60.339 0s-16.661-43.678 0-60.339l85.333-85.333c16.661-16.661 43.678-16.661 60.339 0l213.333 213.333z" />
<glyph unicode="&#xe930;" glyph-name="unmapped" d="M1024 874.666c0 13.139-6.054 25.545-16.41 33.63s-23.859 10.949-36.604 7.762l-329.28-82.32-244.214 81.404c-7.698 2.566-15.968 2.884-23.841 0.916l-341.333-85.333c-18.994-4.748-32.318-21.814-32.318-41.393v-768c0-13.137 6.053-25.545 16.409-33.63s23.859-10.948 36.606-7.765l341.333 85.333c22.86 5.717 36.76 28.881 31.044 51.742s-28.88 36.762-51.741 31.044l-288.318-72.077v680.039l296.961 74.24 244.214-81.404c7.697-2.566 15.966-2.884 23.838-0.916l288.32 72.079v-329.353c0-23.565 19.102-42.667 42.667-42.667s42.667 19.102 42.667 42.667v384zM840.836 435.503c-16.661 16.661-43.678 16.661-60.339 0l-256-256c-8-8-12.497-18.854-12.497-30.17v-128c0-23.565 19.102-42.667 42.667-42.667h128c11.315 0 22.17 4.497 30.17 12.497l256 256c16.661 16.661 16.661 43.678 0 60.339l-128 128zM597.333 64v67.661l213.333 213.333 67.661-67.661-213.333-213.333h-67.661z" />
<glyph unicode="&#xe931;" glyph-name="arrow-corner" d="M298.667 917.333c23.564 0 42.667-19.103 42.667-42.667v-597.333h597.333c23.565 0 42.667-19.102 42.667-42.667s-19.102-42.667-42.667-42.667h-640c-23.564 0-42.667 19.102-42.667 42.667v640c0 23.564 19.103 42.667 42.667 42.667zM695.164 478.17c16.661 16.661 43.678 16.661 60.339 0l213.333-213.333c16.661-16.661 16.661-43.678 0-60.339l-213.333-213.333c-16.661-16.661-43.678-16.661-60.339 0s-16.661 43.678 0 60.339l183.164 183.164-183.164 183.164c-16.661 16.661-16.661 43.678 0 60.339zM268.497 904.837c16.663 16.662 43.677 16.662 60.34 0l213.333-213.333c16.661-16.663 16.661-43.677 0-60.34s-43.678-16.662-60.339 0l-183.164 183.164-183.163-183.164c-16.663-16.662-43.677-16.662-60.34 0s-16.662 43.677 0 60.34l213.333 213.333z" />
<glyph unicode="&#xe932;" glyph-name="customize" d="M321.705 831.946c19.972 0.799 25.94-5.353 26.794-6.635 0.842-1.263 1.751-2.481 2.723-3.647 2.256-2.708 3.673-5.818 3.352-13.066-0.391-8.849-3.209-19.667-8.124-35.506l-1.493-4.768c-4.15-13.194-9.638-30.644-11.701-47.302-2.488-20.096-1.062-46.252 17.426-69.363l0.54-0.661c32.899-39.479 75.517-48.294 116.558-44.578 32.875 2.976 69.385 14.497 103.27 25.189 4.689 1.479 9.327 2.942 13.897 4.365 79.791 24.835 161.267 45.172 249.549 4.047 58.449-30.359 84.881-83.041 94.626-141.042 9.839-58.573 1.553-118.046-6.174-151.313-50.692-177.801-217.425-309.355-410.948-309.355-236.703 0-426.667 189.965-426.667 426.667 0 143.672 69.765 271.412 182.090 348.878l0.001-0.001 0.244 0.171c14.464 10.125 35.322 17.172 54.038 17.921zM418.193 874.557c-24.934 35.51-67.118 43.965-99.898 42.654-34.566-1.383-71.249-13.5-99.435-33.189-135.073-93.21-218.86-247.030-218.86-419.045 0-283.827 228.169-512 512-512 232.815 0 432.772 158.127 493.325 372.399 0.171 0.606 0.329 1.216 0.474 1.83 9.284 39.45 19.947 111.684 7.479 185.907-12.621 75.109-50.018 156.644-140.433 203.142-0.457 0.235-0.917 0.462-1.382 0.681-120.516 56.568-230.814 25.747-311.876 0.515-4.774-1.487-9.399-2.935-13.879-4.34l-0.081-0.025-0.026-0.009c-35.755-11.206-62.507-19.591-85.513-21.673-21.577-1.953-32.806 2.216-42.361 13.111-0.119 0.87-0.195 2.698 0.217 6.020 1.049 8.475 4.051 18.123 8.698 33.055v0l1.31 4.208c4.685 15.094 10.931 35.743 11.874 57.027 0.986 22.308-3.725 47.282-21.632 69.731zM417.892 703.86c-0.013-0.016-0.068 0.1-0.124 0.398 0.109-0.233 0.137-0.382 0.124-0.398zM725.333 507.648c-23.565 0-42.667-19.102-42.667-42.667s19.102-42.667 42.667-42.667c23.565 0 42.667 19.102 42.667 42.667s-19.102 42.667-42.667 42.667zM597.333 464.981c0 70.691 57.306 127.999 128 127.999s128-57.308 128-127.999c0-70.694-57.306-128-128-128s-128 57.306-128 128zM213.333 550.313c-47.128 0-85.333-38.207-85.333-85.332 0-47.13 38.205-85.333 85.333-85.333s85.333 38.204 85.333 85.333c0 47.125-38.205 85.332-85.333 85.332zM234.667 251.648c0 47.125 38.205 85.333 85.333 85.333s85.333-38.208 85.333-85.333c0-47.13-38.205-85.333-85.333-85.333s-85.333 38.204-85.333 85.333zM554.667 251.648c-47.13 0-85.333-38.208-85.333-85.333 0-47.13 38.204-85.333 85.333-85.333s85.333 38.204 85.333 85.333c0 47.125-38.204 85.333-85.333 85.333z" />
<glyph unicode="&#xe933;" glyph-name="6" d="M1024 448c0 282.77-229.231 512-512 512s-512-229.23-512-512c0-282.769 229.23-512 512-512s512 229.231 512 512zM938.662 448c0-235.644-191.023-426.667-426.667-426.667-235.641 0-426.666 191.023-426.666 426.667 0 235.64 191.025 426.666 426.666 426.666 235.644 0 426.667-191.025 426.667-426.666zM682.125 362.236c0.23-93.077-68.023-162.94-169.604-162.253-90.319 0.461-179.948 55.846-179.718 228.442 0 160.871 71.473 255.096 184.544 255.096 88.939 0 150.302-57.225 160.414-133.295h-83.883c-8.734 36.081-36.083 59.523-76.531 59.523-65.267 0-101.579-60.212-101.809-159.266h3.217c22.521 40.448 67.108 65.041 117.668 65.041 82.505 0 145.933-64.35 145.702-153.289zM424.73 359.706c0.23-49.178 37-90.778 87.33-90.778 49.873 0 87.561 39.987 87.33 91.469 0.23 50.56-36.309 90.086-86.178 90.086-49.873 0-88.022-41.365-88.482-90.778z" />
<glyph unicode="&#xe934;" glyph-name="5" d="M1024 448c0 282.77-229.231 512-512 512s-512-229.23-512-512c0-282.769 229.23-512 512-512s512 229.231 512 512zM938.662 448c0-235.644-191.023-426.667-426.667-426.667-235.64 0-426.665 191.023-426.665 426.667 0 235.64 191.025 426.666 426.665 426.666 235.644 0 426.667-191.025 426.667-426.666zM681.574 362.398c0-93.538-69.406-161.105-168.917-161.105-91.926 0-160.182 56.307-162.48 134.443h82.736c2.987-38.609 37.231-65.498 79.744-65.498 50.33 0 86.643 37.461 86.413 90.091 0.23 53.316-37.001 91.465-88.708 91.695-28.271 0.23-58.146-11.49-74.001-28.954l-76.991 12.638 24.591 242.688h273.025v-71.244h-202.47l-13.559-124.793h2.756c17.468 20.685 51.251 35.853 89.399 35.853 85.491 0 148.463-65.267 148.463-155.814z" />
<glyph unicode="&#xe935;" glyph-name="4" d="M1024 448c0 282.77-229.231 512-512 512s-512-229.23-512-512c0-282.769 229.23-512 512-512s512 229.231 512 512zM938.662 448c0-235.644-191.023-426.667-426.667-426.667-235.64 0-426.665 191.023-426.665 426.667 0 235.64 191.025 426.666 426.665 426.666 235.644 0 426.667-191.025 426.667-426.666zM536.849 310.426h-224.531v67.793l199.712 315.542h106.176v-313.242h60.211v-70.093h-60.211v-87.334h-81.357v87.334zM399.648 380.518h138.122v216.719h-3.678l-134.444-213.041v-3.678z" />
<glyph unicode="&#xe936;" glyph-name="3" d="M1024 448c0 282.77-229.231 512-512 512s-512-229.23-512-512c0-282.769 229.23-512 512-512s512 229.231 512 512zM938.662 448c0-235.644-191.023-426.667-426.667-426.667-235.64 0-426.665 191.023-426.665 426.667 0 235.64 191.025 426.666 426.665 426.666 235.644 0 426.667-191.025 426.667-426.666zM691.686 342.298c0.23-79.514-73.084-137.199-173.743-137.199-99.282 0-170.296 54.925-172.594 134.443h86.412c2.069-38.379 38.609-62.972 85.952-62.972 50.33 0 86.413 28.497 86.182 70.097 0.23 42.517-35.162 72.393-94.686 72.393h-41.596v65.728h41.596c48.721 0 82.735 27.349 82.505 68.485 0.23 39.529-28.958 66.188-72.853 66.188-43.435 0-80.205-24.591-81.583-64.119h-82.047c1.839 78.828 72.622 133.295 164.090 133.295 93.995 0 155.127-58.604 154.897-130.307 0.23-52.856-34.014-90.778-85.035-101.808v-3.678c65.958-9.425 102.733-51.708 102.502-110.545z" />
<glyph unicode="&#xe937;" glyph-name="2" d="M1024 448c0 282.77-229.231 512-512 512s-512-229.23-512-512c0-282.769 229.23-512 512-512s512 229.231 512 512zM938.662 448c0-235.644-191.023-426.667-426.667-426.667-235.641 0-426.666 191.023-426.666 426.667 0 235.64 191.025 426.666 426.666 426.666 235.644 0 426.667-191.025 426.667-426.666zM683.819 226.897h-322.665v61.594l163.399 160.179c46.426 47.117 70.327 75.153 70.327 114.452 0 44.355-33.327 71.703-78.14 71.703-46.882 0-77.218-30.106-77.218-78.138h-81.126c0 89.399 66.188 147.313 159.492 147.313 94.686 0 158.805-57.684 158.805-136.512 0-53.090-25.28-95.834-116.749-183.625l-81.122-82.505v-3.217h204.996v-71.245z" />
<glyph unicode="&#xe938;" glyph-name="1" d="M1024 448c0 282.77-229.231 512-512 512s-512-229.23-512-512c0-282.769 229.23-512 512-512s512 229.231 512 512zM938.662 448c0-235.644-191.023-426.667-426.667-426.667-235.64 0-426.665 191.023-426.665 426.667 0 235.64 191.025 426.666 426.665 426.666 235.644 0 426.667-191.025 426.667-426.666zM501.82 688.489h85.577v-496.485h-89.937v408.97h-2.91l-116.122-74.182v82.424l123.393 79.273z" />
<glyph unicode="&#xe939;" glyph-name="handle" d="M42.667 618.667c-23.564 0-42.667-19.103-42.667-42.667s19.103-42.667 42.667-42.667h938.667c23.565 0 42.667 19.103 42.667 42.667s-19.102 42.667-42.667 42.667h-938.667zM42.667 320c-23.564 0-42.667-19.102-42.667-42.667s19.103-42.667 42.667-42.667h938.667c23.565 0 42.667 19.102 42.667 42.667s-19.102 42.667-42.667 42.667h-938.667z" />
<glyph unicode="&#xe93a;" glyph-name="menu" d="M0 746.667c0 23.564 19.103 42.667 42.667 42.667h938.667c23.565 0 42.667-19.103 42.667-42.667s-19.102-42.667-42.667-42.667h-938.667c-23.564 0-42.667 19.103-42.667 42.667zM0 448c0 23.565 19.103 42.667 42.667 42.667h938.667c23.565 0 42.667-19.102 42.667-42.667s-19.102-42.667-42.667-42.667h-938.667c-23.564 0-42.667 19.102-42.667 42.667zM42.667 192c-23.564 0-42.667-19.102-42.667-42.667s19.103-42.667 42.667-42.667h938.667c23.565 0 42.667 19.102 42.667 42.667s-19.102 42.667-42.667 42.667h-938.667z" />
<glyph unicode="&#xe93b;" glyph-name="launch" d="M968.836 904.837c16.661-16.663 16.661-43.677 0-60.34l-469.333-469.333c-16.661-16.661-43.678-16.661-60.339 0-16.663 16.661-16.663 43.678 0 60.339l469.333 469.334c16.661 16.662 43.678 16.662 60.339 0zM554.667 874.667c0 23.564 19.102 42.667 42.667 42.667h341.333c23.565 0 42.667-19.103 42.667-42.667v-341.333c0-23.565-19.102-42.667-42.667-42.667s-42.667 19.102-42.667 42.667v298.667h-298.667c-23.565 0-42.667 19.103-42.667 42.667zM42.667 789.333c0 23.564 19.103 42.667 42.667 42.667h298.667c23.564 0 42.667-19.103 42.667-42.667s-19.103-42.667-42.667-42.667h-256v-682.667h682.667v256c0 23.565 19.102 42.667 42.667 42.667s42.667-19.102 42.667-42.667v-298.667c0-23.565-19.102-42.667-42.667-42.667h-768c-23.564 0-42.667 19.102-42.667 42.667v768z" />
<glyph unicode="&#xe93c;" glyph-name="search" d="M128 533.329c0 164.948 133.718 298.666 298.667 298.666s298.667-133.718 298.667-298.666c0-164.949-133.717-298.667-298.667-298.667s-298.667 133.717-298.667 298.667zM426.667 917.328c-212.077 0-384-171.923-384-383.999 0-212.079 171.923-384 384-384 86.025 0 165.44 28.284 229.457 76.066l252.373-252.373c16.661-16.666 43.678-16.666 60.339 0 16.661 16.661 16.661 43.674 0 60.339l-250.355 250.355c57.472 67.127 92.186 154.317 92.186 249.613 0 212.076-171.921 383.999-384 383.999z" />
<glyph unicode="&#xe93d;" glyph-name="monitor" d="M128 874.667c-23.583 0-42.667-19.084-42.667-42.667v-469.333h853.333v469.333c0 23.583-19.085 42.667-42.667 42.667h-768zM938.667 277.333h-853.333v-42.667c0-23.582 19.084-42.667 42.667-42.667h768c23.582 0 42.667 19.085 42.667 42.667v42.667zM0 320v512c0 70.711 57.289 128 128 128h768c70.711 0 128-57.289 128-128v-597.333c0-70.711-57.289-128-128-128h-341.333v-85.333h213.333c23.565 0 42.667-19.102 42.667-42.667s-19.102-42.667-42.667-42.667h-512c-23.564 0-42.667 19.102-42.667 42.667s19.103 42.667 42.667 42.667h213.333v85.333h-341.333c-70.711 0-128 57.289-128 128v85.333z" />
<glyph unicode="&#xe93e;" glyph-name="tag" d="M42.667 960c-23.564 0-42.667-19.103-42.667-42.667v-384c0-11.315 4.495-22.17 12.497-30.17l512-512c16.661-16.661 43.678-16.661 60.339 0l384 384c16.661 16.661 16.661 43.678 0 60.339l-512 512c-8 8.002-18.854 12.497-30.17 12.497h-384zM85.333 551.006v323.66h323.66l469.334-469.333-323.661-323.661-469.333 469.334zM256 661.333c0 23.564 19.103 42.667 42.667 42.667s42.667-19.103 42.667-42.667c0-23.564-19.103-42.667-42.667-42.667s-42.667 19.103-42.667 42.667zM298.667 789.333c-70.692 0-128-57.308-128-128s57.308-128 128-128c70.692 0 128 57.308 128 128s-57.308 128-128 128z" />
<glyph unicode="&#xe93f;" glyph-name="megaphone" d="M833.097 910.961c12.578-7.774 20.237-21.507 20.237-36.294v-682.667c0-14.788-7.659-28.518-20.237-36.297-12.578-7.774-28.284-8.478-41.51-1.865l-329.485 164.74 83.307-206.767c12.638-31.471 12.267-66.671-1.028-97.873-13.299-31.198-38.43-55.842-69.884-68.527l-15.957 39.573 15.898-39.599c-31.471-12.634-66.672-12.262-97.871 1.033-31.179 13.286-55.815 38.396-68.506 69.82l-0.024 0.060-124.253 305.758c-45.661 6.383-88.322 27.452-121.298 60.429-40.008 40.004-62.484 94.268-62.484 150.848s22.476 110.842 62.484 150.849c40.008 40.008 94.27 62.484 150.849 62.484h245.926l332.326 166.162c13.227 6.613 28.932 5.906 41.51-1.868zM397.328 405.333c0.664 0.017 1.328 0.017 1.99 0h70.016c6.622 0 13.158-1.54 19.081-4.506l279.586-139.793v544.596l-279.586-139.793c-5.922-2.962-12.459-4.504-19.081-4.504h-256c-33.948 0-66.505-13.486-90.51-37.49s-37.49-56.562-37.49-90.51c0-33.946 13.486-66.505 37.49-90.509 23.799-23.799 56.005-37.261 89.638-37.487 0.618 0.013 1.235 0.009 1.851-0.004h183.015zM369.528 320h-92.8l110.448-271.787c4.228-10.483 12.444-18.863 22.843-23.292 10.388-4.429 22.108-4.557 32.591-0.358 10.47 4.233 18.837 12.442 23.266 22.831 4.429 10.398 4.553 22.123 0.346 32.61l-96.695 239.996zM896 405.333v256c33.946 0 66.505-13.486 90.509-37.49s37.491-56.562 37.491-90.51c0-33.95-13.487-66.505-37.491-90.509s-56.563-37.491-90.509-37.491z" />
<glyph unicode="&#xe940;" glyph-name="user-circle" d="M85.333 448c0 235.642 191.025 426.667 426.667 426.667 235.639 0 426.667-191.025 426.667-426.667 0-102.464-36.117-196.493-96.32-270.046-13.807 36.582-40.009 67.947-75.034 87.962l-87.654 50.159c28.604 36.301 45.675 82.121 45.675 131.925v85.333c0 117.815-95.518 213.333-213.333 213.333s-213.333-95.519-213.333-213.333v-85.333c0-49.766 17.044-95.556 45.612-131.844l-87.63-50.261c-35.017-20.011-61.202-51.366-75.002-87.936-60.197 73.553-96.314 167.582-96.314 270.042zM185.408 53.67c0.511-0.444 1.032-0.875 1.563-1.293 88.409-72.717 201.62-116.378 325.029-116.378 123.43 0 236.659 43.678 325.077 116.42 0.499 0.393 0.986 0.794 1.463 1.207 113.297 93.914 185.459 235.716 185.459 394.372 0 282.77-229.231 512-512 512s-512-229.23-512-512c0-158.635 72.143-300.416 185.408-394.33zM768 106.633c-71.309-53.559-159.949-85.299-256-85.299s-184.69 31.74-256 85.303v11.081c0 30.639 16.412 58.91 43.005 74.095l115.628 66.321c29.189-15.002 62.29-23.467 97.366-23.467 35.021 0 68.066 8.439 97.225 23.394l115.767-66.249c26.594-15.185 43.008-43.456 43.008-74.095v-11.085zM512 661.333c70.686 0 128-57.313 128-128v-85.333c0-43.277-21.483-81.54-54.366-104.708-0.721-0.469-1.434-0.956-2.129-1.472-20.42-13.777-45.022-21.82-71.505-21.82-70.686 0-128 57.314-128 128v85.333c0 70.687 57.314 128 128 128z" />
<glyph unicode="&#xe941;" glyph-name="gear" d="M512 960c-70.711 0-128-57.289-128-128v-22.296c-12.744-4.503-25.179-9.657-37.274-15.429l-15.756 15.756c-49.985 49.985-131.016 49.985-181.001 0s-49.985-131.016 0-181.001l15.756-15.756c-5.772-12.095-10.925-24.53-15.429-37.274h-22.296c-70.654 0-128-57.276-128-128 0-70.711 57.289-128 128-128h22.296c4.503-12.745 9.657-25.178 15.429-37.274l-15.756-15.757c-49.985-49.984-49.985-131.017 0-181.001s131.016-49.984 181.001 0l15.75 15.748c12.096-5.773 24.536-10.923 37.28-15.424v-22.293c0-70.656 57.276-128 128-128 70.711 0 128 57.289 128 128v22.298c12.745 4.501 25.178 9.655 37.274 15.428l15.757-15.757c49.984-49.984 131.017-49.984 181.001 0s49.984 131.017 0 181.001l-15.748 15.748c5.773 12.1 10.923 24.538 15.424 37.282h22.293c70.656 0 128 57.276 128 128 0 70.711-57.289 128-128 128h-22.298c-4.501 12.744-9.655 25.179-15.428 37.274l15.757 15.756c49.984 49.985 49.984 131.016 0 181.001s-131.017 49.985-181.001 0l-15.757-15.756c-12.096 5.772-24.529 10.925-37.274 15.429v22.296c0 70.654-57.276 128-128 128zM469.333 832c0 23.583 19.085 42.667 42.667 42.667 23.569 0 42.667-19.113 42.667-42.667v-53.845c0-19.456 13.163-36.448 32-41.312 27.341-7.059 53.077-17.805 76.804-31.793 16.759-9.882 38.084-7.174 51.84 6.583l38.059 38.059c16.661 16.66 43.661 16.66 60.322 0s16.661-43.661 0-60.321l-38.059-38.059c-13.76-13.758-16.465-35.081-6.583-51.841 13.99-23.725 24.734-49.464 31.795-76.804 4.864-18.837 21.854-32 41.31-32h53.845c23.582 0 42.667-19.085 42.667-42.667 0-23.569-19.115-42.667-42.667-42.667h-53.845c-19.456 0-36.446-13.163-41.31-32-7.066-27.358-17.813-53.129-31.782-76.779-9.899-16.764-7.194-38.101 6.571-51.866l38.059-38.059c16.661-16.661 16.661-43.661 0-60.322s-43.661-16.661-60.322 0l-38.059 38.059c-13.756 13.76-35.081 16.465-51.84 6.583-23.727-13.99-49.463-24.734-76.804-31.795-18.837-4.864-32-21.854-32-41.31v-53.845c0-23.582-19.085-42.667-42.667-42.667-23.569 0-42.667 19.115-42.667 42.667v53.845c0 19.456-13.163 36.446-32 41.31-27.357 7.066-53.127 17.813-76.779 31.782-16.763 9.899-38.1 7.194-51.866-6.571l-38.059-38.059c-16.66-16.661-43.661-16.661-60.321 0s-16.66 43.661 0 60.322l38.059 38.059c13.758 13.756 16.465 35.081 6.583 51.84-13.989 23.727-24.735 49.463-31.793 76.804-4.864 18.837-21.856 32-41.312 32h-53.845c-23.583 0-42.667 19.085-42.667 42.667 0 23.569 19.113 42.667 42.667 42.667h53.845c19.456 0 36.448 13.163 41.312 32 7.059 27.34 17.805 53.079 31.793 76.804 9.882 16.76 7.174 38.083-6.583 51.841l-38.059 38.059c-16.66 16.66-16.66 43.661 0 60.321s43.661 16.66 60.321 0l38.059-38.059c13.758-13.758 35.081-16.465 51.841-6.583 23.725 13.989 49.464 24.735 76.804 31.793 18.837 4.864 32 21.856 32 41.312v53.845zM426.667 448c0 47.13 38.204 85.333 85.333 85.333s85.333-38.204 85.333-85.333c0-47.13-38.204-85.333-85.333-85.333s-85.333 38.204-85.333 85.333zM512 618.667c-94.257 0-170.667-76.41-170.667-170.667 0-94.255 76.41-170.667 170.667-170.667 94.255 0 170.667 76.412 170.667 170.667 0 94.257-76.412 170.667-170.667 170.667z" />
<glyph unicode="&#xe942;" glyph-name="pen" d="M798.17 904.837l170.667-170.667c16.661-16.663 16.661-43.677 0-60.34l-639.999-640c-5.956-5.956-13.542-10.018-21.802-11.669l-213.333-42.667c-13.989-2.799-28.45 1.583-38.537 11.669s-14.466 24.55-11.668 38.537l42.667 213.333c1.652 8.26 5.712 15.846 11.668 21.803l469.188 469.188c0.047 0.049 0.098 0.097 0.145 0.146s0.098 0.097 0.145 0.145l170.522 170.522c16.661 16.662 43.678 16.662 60.339 0zM768 593.673l110.327 110.327-110.327 110.327-110.327-110.327 110.327-110.327zM597.333 643.66l-430.028-430.028-27.582-137.907 137.908 27.58 430.029 430.029-110.327 110.327z" />
<glyph unicode="&#xe943;" glyph-name="file" d="M640 917.333v-256h256l-256 256zM640 960c23.565 0 42.667-19.103 42.667-42.667v-213.333h213.333c23.565 0 42.667-19.103 42.667-42.667s-19.102-42.667-42.667-42.667h-256c-23.565 0-42.667 19.103-42.667 42.667v256c0 23.564 19.102 42.667 42.667 42.667zM85.333 917.333c0 23.564 19.103 42.667 42.667 42.667h512c11.315 0 22.17-4.495 30.17-12.497l256-256c8-8.002 12.497-18.854 12.497-30.17v-682.667c0-23.565-19.102-42.667-42.667-42.667h-768c-23.564 0-42.667 19.102-42.667 42.667v938.667zM170.667 874.667v-853.333h682.667v622.327l-231.006 231.006h-451.661zM256 661.333c0 23.564 19.103 42.667 42.667 42.667h170.667c23.565 0 42.667-19.103 42.667-42.667s-19.102-42.667-42.667-42.667h-170.667c-23.564 0-42.667 19.103-42.667 42.667zM256 448c0 23.565 19.103 42.667 42.667 42.667h426.667c23.565 0 42.667-19.102 42.667-42.667s-19.102-42.667-42.667-42.667h-426.667c-23.564 0-42.667 19.102-42.667 42.667zM256 234.667c0 23.565 19.103 42.667 42.667 42.667h426.667c23.565 0 42.667-19.102 42.667-42.667s-19.102-42.667-42.667-42.667h-426.667c-23.564 0-42.667 19.102-42.667 42.667z" />
<glyph unicode="&#xe944;" glyph-name="image" d="M725.333 576c12.8 0 25.6-4.267 34.133-12.8l256-298.667c17.067-17.067 12.8-46.933-4.267-59.733-17.067-17.067-46.933-12.8-59.733 4.267l-226.133 260.267-264.533-302.933c-8.533-12.8-21.333-17.067-34.133-17.067s-21.333 4.267-29.867 12.8l-136.533 136.533-183.467-221.867c-17.067-17.067-42.667-21.333-59.733-4.267s-21.333 42.667-4.267 59.733l213.333 256c4.267 12.8 17.067 17.067 29.867 17.067s25.6-4.267 34.133-12.8l136.533-136.533 268.8 307.2c4.267 8.533 17.067 12.8 29.867 12.8zM0 832c0 25.6 17.067 42.667 42.667 42.667h938.667c25.6 0 42.667-17.067 42.667-42.667v-768c0-25.6-17.067-42.667-42.667-42.667h-938.667c-25.6 0-42.667 17.067-42.667 42.667v768zM85.333 789.333v-682.667h853.333v682.667h-853.333zM384 661.333c-25.6 0-42.667-17.067-42.667-42.667s17.067-42.667 42.667-42.667c25.6 0 42.667 17.067 42.667 42.667s-17.067 42.667-42.667 42.667zM256 618.667c0 72.533 55.467 128 128 128s128-55.467 128-128c0-72.533-55.467-128-128-128s-128 55.467-128 128z" />
<glyph unicode="&#xe945;" glyph-name="folder" d="M0 874.667c0 23.564 19.103 42.667 42.667 42.667h341.333c13.43 0 26.076-6.323 34.133-17.067l115.2-153.6h448c23.565 0 42.667-19.103 42.667-42.667v-597.333c0-33.95-13.487-66.505-37.491-90.509s-56.559-37.491-90.509-37.491h-768c-33.948 0-66.505 13.487-90.51 37.491s-37.49 56.559-37.49 90.509v768zM85.333 832v-725.333c0-11.315 4.495-22.17 12.497-30.17s18.854-12.497 30.17-12.497h768c11.315 0 22.17 4.497 30.17 12.497s12.497 18.854 12.497 30.17v554.667h-426.667c-13.431 0-26.074 6.323-34.133 17.067l-115.2 153.6h-277.333z" />
<glyph unicode="&#xe946;" glyph-name="users" d="M981.333 21.333h-170.667c-25.6 0-42.667 17.067-42.667 42.667s17.067 42.667 42.667 42.667h128v140.8l-157.867 64c-17.067 4.267-29.867 17.067-38.4 29.867s-12.8 29.867-12.8 46.933v38.4c0 17.067 8.533 29.867 21.333 38.4 21.333 12.8 34.133 25.6 46.933 46.933 8.533 21.333 12.8 42.667 12.8 64v85.333c0 21.333-4.267 42.667-17.067 64s-25.6 34.133-46.933 46.933c-38.4 21.333-89.6 21.333-128 0-21.333-12.8-46.933-4.267-59.733 17.067s-4.267 46.933 17.067 59.733c64 38.4 149.333 38.4 213.333 0 34.133-17.067 59.733-46.933 76.8-76.8 21.333-34.133 29.867-72.533 29.867-110.933v-85.333c0-38.4-8.533-72.533-29.867-106.667-12.8-25.6-34.133-46.933-55.467-64v-12.8l157.867-64c17.067-4.267 29.867-17.067 38.4-29.867s12.8-29.867 12.8-46.933v-187.733c4.267-21.333-12.8-42.667-38.4-42.667zM640 21.333h-597.333c-25.6 0-42.667 17.067-42.667 42.667v140.8c0 17.067 4.267 34.133 12.8 46.933s21.333 25.6 38.4 29.867l162.133 68.267v12.8c-21.333 17.067-42.667 38.4-55.467 64-21.333 34.133-29.867 68.267-29.867 106.667v85.333c0 55.467 21.333 110.933 64 149.333 38.4 42.667 93.867 64 149.333 64s110.933-21.333 149.333-64c42.667-38.4 64-93.867 64-149.333v-85.333c0-38.4-8.533-72.533-29.867-106.667-12.8-25.6-34.133-46.933-55.467-64v-12.8l157.867-64c17.067-4.267 29.867-17.067 38.4-29.867s12.8-29.867 12.8-46.933v-145.067c4.267-21.333-12.8-42.667-38.4-42.667zM85.333 106.667h512v98.133l-157.867 64c-17.067 4.267-29.867 17.067-38.4 29.867-12.8 17.067-17.067 34.133-17.067 51.2v38.4c0 17.067 8.533 29.867 21.333 38.4 21.333 12.8 34.133 25.6 46.933 46.933 12.8 17.067 17.067 38.4 17.067 59.733v85.333c0 34.133-12.8 68.267-38.4 89.6-46.933 51.2-132.267 51.2-179.2 0-25.6-21.333-38.4-55.467-38.4-89.6v-85.333c0-21.333 4.267-42.667 17.067-64s25.6-34.133 46.933-46.933c12.8-4.267 21.333-21.333 21.333-34.133v-38.4c0-17.067-4.267-34.133-12.8-46.933s-21.333-25.6-38.4-29.867l-162.133-68.267v-98.133z" />
<glyph unicode="&#xe947;" glyph-name="chart" d="M384 832c0 23.564 19.102 42.667 42.667 42.667h170.667c23.565 0 42.667-19.103 42.667-42.667v-768c0-23.565-19.102-42.667-42.667-42.667h-170.667c-23.564 0-42.667 19.102-42.667 42.667v768zM469.333 789.333v-682.667h85.333v682.667h-85.333zM0 362.667c0 23.565 19.103 42.667 42.667 42.667h170.667c23.564 0 42.667-19.102 42.667-42.667v-298.667c0-23.565-19.103-42.667-42.667-42.667h-170.667c-23.564 0-42.667 19.102-42.667 42.667v298.667zM85.333 320v-213.333h85.333v213.333h-85.333zM768 576c0 23.564 19.102 42.667 42.667 42.667h170.667c23.565 0 42.667-19.103 42.667-42.667v-512c0-23.565-19.102-42.667-42.667-42.667h-170.667c-23.565 0-42.667 19.102-42.667 42.667v512zM853.333 533.333v-426.667h85.333v426.667h-85.333z" />
<glyph unicode="&#xe948;" glyph-name="preview-on" d="M135.679 448c4.11 6.221 9.137 13.602 15.040 21.867 19.020 26.628 46.857 62.037 82.118 97.297 71.604 71.604 167.942 136.837 279.163 136.837 111.223 0 207.561-65.233 279.164-136.837 35.26-35.259 63.095-70.668 82.116-97.297 5.905-8.265 10.931-15.646 15.040-21.867-4.109-6.221-9.135-13.602-15.040-21.867-19.021-26.628-46.857-62.037-82.116-97.297-71.603-71.603-167.94-136.836-279.164-136.836-111.222 0-207.559 65.233-279.163 136.836-35.261 35.26-63.098 70.669-82.118 97.297-5.903 8.265-10.93 15.646-15.040 21.867zM938.667 448c37.043 21.167 37.039 21.18 37.030 21.197l-0.073 0.119-0.145 0.256-0.486 0.836c-0.405 0.695-0.981 1.668-1.719 2.897-1.476 2.462-3.61 5.956-6.383 10.338-5.542 8.764-13.653 21.099-24.171 35.823-20.979 29.372-51.81 68.63-91.217 108.037-77.73 77.729-194.726 161.83-339.503 161.83s-261.774-84.101-339.503-161.83c-39.406-39.407-70.235-78.665-91.216-108.037-10.517-14.724-18.628-27.059-24.171-35.823-2.773-4.382-4.908-7.876-6.384-10.338-0.738-1.229-1.312-2.202-1.719-2.897l-0.634-1.092-0.050-0.085c-0.008-0.017-0.035-0.064 37.010-21.231l-37.045 21.167c-7.496-13.116-7.496-29.218 0-42.334l37.045 21.167c-37.045-21.167-37.053-21.154-37.045-21.167l0.085-0.149 0.634-1.092c0.407-0.695 0.981-1.668 1.719-2.897 1.476-2.462 3.611-5.956 6.384-10.338 5.543-8.764 13.654-21.099 24.171-35.823 20.98-29.372 51.81-68.629 91.216-108.036 77.729-77.73 194.725-161.83 339.503-161.83s261.773 84.1 339.503 161.83c39.407 39.407 70.238 78.665 91.217 108.036 10.517 14.724 18.628 27.059 24.171 35.823 2.773 4.382 4.907 7.876 6.383 10.338 0.738 1.229 1.314 2.202 1.719 2.897l0.486 0.836 0.145 0.256 0.051 0.085c0.009 0.017 0.034 0.064-37.009 21.231zM938.667 448l37.043-21.167c7.497 13.116 7.484 29.244-0.013 42.364l-37.030-21.197zM512 533.333c-47.13 0-85.333-38.204-85.333-85.333s38.204-85.333 85.333-85.333c47.13 0 85.333 38.204 85.333 85.333s-38.204 85.333-85.333 85.333zM341.333 448c0 94.257 76.41 170.667 170.667 170.667 94.255 0 170.667-76.41 170.667-170.667 0-94.255-76.412-170.667-170.667-170.667-94.257 0-170.667 76.412-170.667 170.667z" />
<glyph unicode="&#xe949;" glyph-name="preview-off" d="M926.17 801.83l-126.869-126.87c18.961-15.575 36.395-31.648 52.203-47.456 39.407-39.407 70.238-78.665 91.217-108.037 10.517-14.724 18.628-27.059 24.171-35.823 2.773-4.382 4.907-7.876 6.383-10.338 0.738-1.229 1.314-2.202 1.719-2.897l0.486-0.836 0.145-0.256 0.073-0.119c7.497-13.12 7.509-29.248 0.013-42.364l-37.043 21.167c37.043-21.167 37.009-21.231 37.009-21.231l-0.051-0.085-0.145-0.256-0.486-0.836c-0.405-0.695-0.981-1.668-1.719-2.897-1.476-2.462-3.61-5.956-6.383-10.338-5.542-8.764-13.653-21.099-24.171-35.823-20.979-29.372-51.81-68.629-91.217-108.036-77.73-77.73-194.726-161.83-339.503-161.83-81.813 0-154.755 26.854-216.752 64.243l-137.078-137.079c-16.663-16.661-43.677-16.661-60.34 0s-16.662 43.678 0 60.339l126.87 126.869c-18.961 15.578-36.394 31.65-52.204 47.458-39.406 39.407-70.235 78.665-91.216 108.036-10.517 14.724-18.628 27.059-24.171 35.823-2.773 4.382-4.908 7.876-6.384 10.338-0.738 1.229-1.312 2.202-1.719 2.897l-0.634 1.092-0.085 0.149c-7.496 13.116-7.496 29.218 0 42.334l37.045-21.167c-37.045 21.167-37.010 21.231-37.010 21.231l0.050 0.085 0.634 1.092c0.407 0.695 0.981 1.668 1.719 2.897 1.476 2.462 3.611 5.956 6.384 10.338 5.543 8.764 13.654 21.099 24.171 35.823 20.98 29.372 51.81 68.63 91.216 108.037 77.729 77.729 194.725 161.83 339.503 161.83 81.813 0 154.756-26.856 216.751-64.242l137.079 137.079c16.661 16.662 43.678 16.662 60.339 0s16.661-43.677 0-60.34zM666.214 662.554c-46.878 25.19-98.692 41.446-154.214 41.446-111.222 0-207.559-65.233-279.163-136.837-35.261-35.259-63.098-70.668-82.118-97.297-5.903-8.265-10.93-15.646-15.040-21.867 4.11-6.221 9.137-13.602 15.040-21.867 19.020-26.628 46.857-62.037 82.118-97.297 16.27-16.269 33.818-32.213 52.527-47.134l79.6 79.599c-15.014 25.408-23.63 55.049-23.63 86.699 0 94.257 76.41 170.667 170.667 170.667 31.65 0 61.291-8.616 86.699-23.63l67.516 67.517zM659.038 534.697c15.014-25.407 23.629-55.047 23.629-86.697 0-94.255-76.412-170.667-170.667-170.667-31.65 0-61.291 8.614-86.697 23.629l-67.517-67.516c46.879-25.19 98.692-41.446 154.214-41.446 111.223 0 207.561 65.233 279.164 136.836 35.26 35.26 63.095 70.669 82.116 97.297 5.905 8.265 10.931 15.646 15.040 21.867-4.109 6.221-9.135 13.602-15.040 21.867-19.021 26.628-46.857 62.037-82.116 97.297-16.269 16.271-33.818 32.212-52.527 47.134l-79.599-79.6zM534.101 530.445c-7.049 1.882-14.455 2.889-22.101 2.889-47.13 0-85.333-38.204-85.333-85.333 0-7.646 1.007-15.053 2.889-22.101l104.546 104.546zM489.899 365.555c7.049-1.882 14.455-2.889 22.101-2.889 47.13 0 85.333 38.204 85.333 85.333 0 7.646-1.007 15.053-2.889 22.101l-104.546-104.546zM975.697 469.197l-37.030-21.197c37.043 21.167 37.030 21.197 37.030 21.197zM48.288 426.833l37.045 21.167c-37.045-21.167-37.045-21.167-37.045-21.167z" />
<glyph unicode="&#xe94a;" glyph-name="comment" d="M0 490.667c0 244.528 236.604 426.667 512 426.667s512-182.138 512-426.667c0-100.356-42.675-190.4-108.915-262.498l23.3-201.946c1.728-14.972-4.574-29.747-16.576-38.865s-27.925-11.226-41.886-5.547l-238.234 96.909c-42.807-11.102-85.248-14.72-129.69-14.72-275.396 0-512 182.14-512 426.667zM512 832c-245.137 0-426.667-159.195-426.667-341.333 0-182.14 181.529-341.333 426.667-341.333 44.301 0 82.547 4.028 120.009 15.266 9.323 2.799 19.319 2.325 28.335-1.344l185.015-75.26-17.344 150.315c-1.493 12.937 3.004 25.852 12.215 35.059 62.076 62.076 98.436 137.075 98.436 217.297 0 182.138-181.53 341.333-426.667 341.333z" />
<glyph unicode="&#xe94b;" glyph-name="conversation" d="M469.333 960c-249.837 0-469.333-163.543-469.333-384 0-83.226 32.533-159.023 85.333-220.48v-206.187c0-14.788 7.656-28.518 20.234-36.292s28.285-8.482 41.511-1.873l172.847 86.409c70.087-82.5 189.247-133.577 320.071-133.577 22.686 0 44.783 1.609 66.206 4.527l170.714-85.355c13.227-6.613 28.937-5.905 41.515 1.869s20.237 21.504 20.237 36.292v153.463c51.823 49.822 85.333 114.726 85.333 187.87 0 73.574-33.911 138.752-86.255 188.702 0.61 8.126 0.922 16.338 0.922 24.631 0 220.457-219.494 384-469.333 384zM851.238 545.225c-0.717-2.76-1.148-5.572-1.301-8.391-24.397-140.308-177.792-259.501-380.604-259.501-43.414 0-85.070 5.875-124.116 16.303-10.066 2.688-20.768 1.604-30.087-3.055l-0.827-0.414c-0.387-0.188-0.773-0.38-1.156-0.58l-142.48-71.223v153.476c0 10.829-4.119 21.257-11.522 29.163-47.117 50.321-73.812 110.775-73.812 174.997 0 156.546 162.541 298.667 384 298.667 221.457 0 384-142.121 384-298.667 0-10.333-0.708-20.604-2.095-30.775zM461.926 192.047c2.462-0.030 4.932-0.047 7.407-0.047 198.711 0 378.231 103.462 443.383 256.73 17.028-26.999 25.95-56.209 25.95-86.063 0-49.724-24.704-97.613-70.336-136.478-9.515-8.107-14.997-19.981-14.997-32.482v-103.339l-121.037 60.518c-8.038 4.019-17.143 5.397-26.010 3.938-21.453-3.529-43.58-5.491-66.291-5.491-68.006 0-129.156 16.324-178.069 42.714z" />
<glyph unicode="&#xe94c;" glyph-name="add" d="M554.667 874.667c0 23.564-19.102 42.667-42.667 42.667s-42.667-19.103-42.667-42.667v-384h-384c-23.564 0-42.667-19.102-42.667-42.667s19.103-42.667 42.667-42.667h384v-384c0-23.565 19.102-42.667 42.667-42.667s42.667 19.102 42.667 42.667v384h384c23.565 0 42.667 19.102 42.667 42.667s-19.102 42.667-42.667 42.667h-384v384z" />
<glyph unicode="&#xe94d;" glyph-name="dot-menu-horizontal" d="M0 448c0 70.694 57.308 128 128 128s128-57.306 128-128c0-70.694-57.308-128-128-128s-128 57.306-128 128zM128 490.667c-23.564 0-42.667-19.102-42.667-42.667s19.103-42.667 42.667-42.667c23.564 0 42.667 19.102 42.667 42.667s-19.103 42.667-42.667 42.667zM384 448c0 70.694 57.306 128 128 128s128-57.306 128-128c0-70.694-57.306-128-128-128s-128 57.306-128 128zM512 490.667c-23.565 0-42.667-19.102-42.667-42.667s19.102-42.667 42.667-42.667c23.565 0 42.667 19.102 42.667 42.667s-19.102 42.667-42.667 42.667zM896 576c-70.694 0-128-57.306-128-128s57.306-128 128-128c70.694 0 128 57.306 128 128s-57.306 128-128 128zM853.333 448c0 23.565 19.102 42.667 42.667 42.667s42.667-19.102 42.667-42.667c0-23.565-19.102-42.667-42.667-42.667s-42.667 19.102-42.667 42.667z" />
<glyph unicode="&#xe94e;" glyph-name="remove" d="M840.836 716.497c16.661 16.663 16.661 43.677 0 60.34s-43.678 16.662-60.339 0l-268.497-268.497-268.497 268.497c-16.663 16.662-43.677 16.662-60.34 0s-16.662-43.677 0-60.34l268.497-268.497-268.497-268.497c-16.662-16.661-16.662-43.678 0-60.339s43.677-16.661 60.34 0l268.497 268.497 268.497-268.497c16.661-16.661 43.678-16.661 60.339 0s16.661 43.678 0 60.339l-268.497 268.497 268.497 268.497z" />
<glyph unicode="&#xe94f;" glyph-name="url" d="M609.173 783.504l-109.675-109.673c-16.661-16.662-43.678-16.662-60.339 0-16.663 16.663-16.663 43.677 0 60.34l110.234 110.233c47.906 46.755 112.196 72.926 179.136 72.926s131.226-26.173 179.132-72.928l-29.798-30.534 30.532 29.801c46.758-47.906 72.93-112.194 72.93-179.134s-26.172-131.23-72.93-179.136l-0.363-0.367-109.867-109.867c-16.661-16.661-43.678-16.661-60.339 0-16.666 16.661-16.666 43.678 0 60.339l109.67 109.674c31.095 31.948 48.495 74.771 48.495 119.357 0 44.495-17.331 87.234-48.303 119.161-31.927 30.972-74.667 48.302-119.159 48.302-44.587 0-87.411-17.401-119.356-48.492zM286.166 520.836c16.662-16.661 16.662-43.678 0-60.339l-109.673-109.675c-31.092-31.949-48.492-74.769-48.492-119.356 0-44.497 17.329-87.232 48.302-119.159 31.927-30.972 74.665-48.303 119.161-48.303 44.586 0 87.409 17.399 119.357 48.491l109.674 109.675c16.661 16.661 43.678 16.661 60.339 0s16.661-43.678 0-60.339l-110.234-110.234c-47.906-46.754-112.195-72.926-179.136-72.926s-131.229 26.172-179.134 72.93l29.801 30.532-30.534-29.803c-46.755 47.906-72.928 112.196-72.928 179.136s26.173 131.23 72.928 179.136l0.362 0.371 109.869 109.862c16.663 16.663 43.677 16.663 60.34 0zM712.832 588.497c16.661 16.663 16.661 43.677 0 60.34s-43.678 16.662-60.339 0l-341.335-341.334c-16.662-16.661-16.662-43.678 0-60.339s43.677-16.661 60.34 0l341.334 341.333z" />
<glyph unicode="&#xe950;" glyph-name="trash" d="M341.333 960h341.333c23.565 0 42.667-19.103 42.667-42.667v-128h256c23.565 0 42.667-19.103 42.667-42.667s-19.102-42.667-42.667-42.667h-938.667c-23.564 0-42.667 19.103-42.667 42.667s19.103 42.667 42.667 42.667h256v128c0 23.564 19.103 42.667 42.667 42.667zM640 789.333v85.333h-256v-85.333h256zM170.667 618.667c23.564 0 42.667-19.102 42.667-42.667v-512c0-11.315 4.495-22.17 12.497-30.17s18.854-12.497 30.17-12.497h512c11.315 0 22.17 4.497 30.17 12.497s12.497 18.854 12.497 30.17v512c0 23.564 19.102 42.667 42.667 42.667s42.667-19.102 42.667-42.667v-512c0-33.95-13.487-66.505-37.491-90.509s-56.559-37.491-90.509-37.491h-512c-33.948 0-66.505 13.487-90.51 37.491s-37.49 56.559-37.49 90.509v512c0 23.564 19.103 42.667 42.667 42.667zM670.17 478.81c16.661-16.661 16.661-43.678 0-60.339l-97.83-97.83 97.83-97.83c16.661-16.661 16.661-43.678 0-60.339s-43.678-16.661-60.339 0l-97.83 97.83-97.83-97.83c-16.663-16.661-43.677-16.661-60.34 0s-16.662 43.678 0 60.339l97.831 97.83-97.831 97.83c-16.662 16.661-16.662 43.678 0 60.339s43.677 16.661 60.34 0l97.83-97.83 97.83 97.83c16.661 16.661 43.678 16.661 60.339 0z" />
<glyph unicode="&#xe951;" glyph-name="cart" d="M42.667 917.333c-23.564 0-42.667-19.103-42.667-42.667s19.103-42.667 42.667-42.667h90.644l80.396-602.974c2.826-21.197 20.908-37.026 42.292-37.026h597.333c20.339 0 37.85 14.357 41.839 34.3l85.333 426.666c2.505 12.535-0.738 25.533-8.845 35.418-8.102 9.885-20.211 15.616-32.994 15.616h-702.2l-23.507 176.305c-2.826 21.197-20.908 37.028-42.292 37.028h-128zM293.356 277.333l-45.511 341.333h638.778l-68.267-341.333h-525zM256 106.667c-47.128 0-85.333-38.204-85.333-85.333s38.205-85.333 85.333-85.333c47.128 0 85.333 38.204 85.333 85.333s-38.205 85.333-85.333 85.333zM853.333 106.667c-47.13 0-85.333-38.204-85.333-85.333s38.204-85.333 85.333-85.333c47.13 0 85.333 38.204 85.333 85.333s-38.204 85.333-85.333 85.333z" />
<glyph unicode="&#xe952;" glyph-name="delete-key" d="M308.938 774.434c8.106 9.457 19.94 14.9 32.395 14.9h640c23.565 0 42.667-19.103 42.667-42.667v-597.333c0-23.565-19.102-42.667-42.667-42.667h-640c-12.455 0-24.289 5.444-32.395 14.899l-256 298.667c-13.695 15.979-13.695 39.556 0 55.535l256 298.666zM360.957 704l-219.429-256 219.429-256h577.709v512h-577.709z" />
<glyph unicode="&#xe953;" glyph-name="delete-x" d="M481.83 563.503c16.661 16.662 43.678 16.662 60.339 0l55.164-55.164 55.164 55.164c16.661 16.662 43.678 16.662 60.339 0s16.661-43.678 0-60.34l-55.164-55.164 55.164-55.164c16.661-16.661 16.661-43.678 0-60.339s-43.678-16.661-60.339 0l-55.164 55.164-55.164-55.164c-16.661-16.661-43.678-16.661-60.339 0s-16.661 43.678 0 60.339l55.164 55.164-55.164 55.164c-16.661 16.661-16.661 43.677 0 60.34zM308.938 774.434c8.106 9.457 19.94 14.9 32.395 14.9h640c23.565 0 42.667-19.103 42.667-42.667v-597.333c0-23.565-19.102-42.667-42.667-42.667h-640c-12.455 0-24.289 5.444-32.395 14.899l-256 298.667c-13.695 15.979-13.695 39.556 0 55.535l256 298.666zM360.957 704l-219.429-256 219.429-256h577.709v512h-577.709z" />
<glyph unicode="&#xe954;" glyph-name="send-message" d="M968.836 904.837c-7.514 7.516-17.139 11.641-26.965 12.377-2.705 0.204-5.44 0.151-8.162-0.167-3.644-0.424-7.241-1.316-10.697-2.676l-809.762-298.334c-15.965-5.882-26.91-20.687-27.851-37.676s8.302-32.912 23.52-40.522l328.615-164.308 164.305-328.61c7.607-15.219 23.531-24.461 40.521-23.522 16.99 0.943 31.795 11.887 37.679 27.853l298.338 809.775c6.025 15.322 2.846 33.426-9.54 45.812zM771.136 767.474l-310.225-310.224-225.62 112.808 535.846 197.416zM521.25 396.911l310.225 310.224-197.419-535.845-112.806 225.621z" />
<glyph unicode="&#xe955;" glyph-name="mail" d="M39.924 839.546c22.946 21.767 53.952 35.12 88.076 35.12h768c70.694 0 128-57.308 128-128v-597.333c0-70.694-57.306-128-128-128h-768c-70.692 0-128 57.306-128 128v597.333c0 35.988 14.852 68.507 38.761 91.763 0.382 0.381 0.77 0.753 1.163 1.117zM85.333 735.558v-586.225c0-23.565 19.103-42.667 42.667-42.667h768c23.565 0 42.667 19.102 42.667 42.667v586.22l-397.965-361.789c-16.273-14.797-41.126-14.797-57.404 0l-397.965 361.794zM870.967 789.333h-717.93l358.963-326.336 358.967 326.336z" />
<glyph unicode="&#xe956;" glyph-name="loop" d="M968.533 733.867c8.533-8.533 12.8-17.067 12.8-29.867s-4.267-21.333-12.8-29.867l-170.667-170.667c-17.067-17.067-42.667-17.067-59.733 0s-17.067 42.667 0 59.733l98.133 98.133h-708.267v-213.333c0-25.6-17.067-42.667-42.667-42.667s-42.667 17.067-42.667 42.667v256c0 25.6 17.067 42.667 42.667 42.667h750.933l-98.133 98.133c-17.067 17.067-17.067 42.667 0 59.733s42.667 17.067 59.733 0l170.667-170.667zM896 448c0 25.6 17.067 42.667 42.667 42.667s42.667-17.067 42.667-42.667v-256c0-25.6-17.067-42.667-42.667-42.667h-750.933l98.133-98.133c17.067-17.067 17.067-42.667 0-59.733s-42.667-17.067-59.733 0l-170.667 170.667c-4.267 4.267-8.533 8.533-8.533 12.8-4.267 4.267-4.267 12.8-4.267 17.067s0 12.8 4.267 17.067c0 4.267 4.267 8.533 8.533 12.8l170.667 170.667c17.067 17.067 42.667 17.067 59.733 0s17.067-42.667 0-59.733l-98.133-98.133h708.267v213.333z" />
<glyph unicode="&#xe957;" glyph-name="restore" d="M156.18 754.203c85.514 100.796 213.8 163.13 355.82 163.13 258.231 0 469.333-211.103 469.333-469.333s-211.102-469.333-469.333-469.333c-258.231 0-469.333 211.102-469.333 469.333 0 23.565 19.103 42.667 42.667 42.667s42.667-19.102 42.667-42.667c0-211.102 172.897-384 384-384s384 172.898 384 384c0 211.103-172.898 384-384 384-116.983 0-221.856-51.372-291.367-133.738l114.851 19.476c23.232 3.94 45.26-11.7 49.199-34.933s-11.7-45.26-34.933-49.199l-209.756-35.569c-8.634-1.597-17.836-0.553-26.342 3.572-13.151 6.376-21.551 18.615-23.583 32.050l-35.535 209.557c-3.939 23.232 11.7 45.26 34.933 49.199s45.26-11.7 49.199-34.933l17.513-103.279zM512 704c23.565 0 42.667-19.103 42.667-42.667v-195.661l158.17-158.17c16.661-16.661 16.661-43.678 0-60.339s-43.678-16.661-60.339 0l-170.667 170.667c-8 8-12.497 18.854-12.497 30.17v213.333c0 23.564 19.102 42.667 42.667 42.667z" />
<glyph unicode="&#xe958;" glyph-name="clock" d="M554.667 704c0 23.564-19.102 42.667-42.667 42.667s-42.667-19.103-42.667-42.667v-256c0-23.565 19.102-42.667 42.667-42.667h256c23.565 0 42.667 19.102 42.667 42.667s-19.102 42.667-42.667 42.667h-213.333v213.333zM512 960c-282.77 0-512-229.23-512-512s229.23-512 512-512c282.769 0 512 229.231 512 512s-229.231 512-512 512zM85.333 448c0 235.642 191.025 426.667 426.667 426.667 235.639 0 426.667-191.025 426.667-426.667 0-235.639-191.027-426.667-426.667-426.667-235.642 0-426.667 191.027-426.667 426.667z" />
<glyph unicode="&#xe959;" glyph-name="calendar-date" d="M213.333 448c-23.564 0-42.667-19.102-42.667-42.667v-42.667c0-23.565 19.103-42.667 42.667-42.667h85.333c23.564 0 42.667 19.102 42.667 42.667v42.667c0 23.565-19.103 42.667-42.667 42.667h-85.333zM469.333 448c-23.565 0-42.667-19.102-42.667-42.667v-42.667c0-23.565 19.102-42.667 42.667-42.667h85.333c23.565 0 42.667 19.102 42.667 42.667v42.667c0 23.565-19.102 42.667-42.667 42.667h-85.333zM170.667 192c0 23.565 19.103 42.667 42.667 42.667h85.333c23.564 0 42.667-19.102 42.667-42.667v-42.667c0-23.565-19.103-42.667-42.667-42.667h-85.333c-23.564 0-42.667 19.102-42.667 42.667v42.667zM469.333 234.667c-23.565 0-42.667-19.102-42.667-42.667v-42.667c0-23.565 19.102-42.667 42.667-42.667h85.333c23.565 0 42.667 19.102 42.667 42.667v42.667c0 23.565-19.102 42.667-42.667 42.667h-85.333zM682.667 405.333c0 23.565 19.102 42.667 42.667 42.667h85.333c23.565 0 42.667-19.102 42.667-42.667v-42.667c0-23.565-19.102-42.667-42.667-42.667h-85.333c-23.565 0-42.667 19.102-42.667 42.667v42.667zM768 874.667c0 23.564-19.102 42.667-42.667 42.667s-42.667-19.103-42.667-42.667v-85.333h-341.333v85.333c0 23.564-19.103 42.667-42.667 42.667s-42.667-19.103-42.667-42.667v-85.333h-213.333c-23.564 0-42.667-19.103-42.667-42.667v-768c0-23.565 19.103-42.667 42.667-42.667h938.667c23.565 0 42.667 19.102 42.667 42.667v768c0 23.564-19.102 42.667-42.667 42.667h-213.333v85.333zM938.667 618.667h-853.333v85.333h853.333v-85.333zM85.333 533.333h853.333v-512h-853.333v512z" />
<glyph unicode="&#xe95a;" glyph-name="calendar-schedule" d="M341.333 917.333v-85.333h341.333v85.333c0 23.564 19.102 42.667 42.667 42.667s42.667-19.103 42.667-42.667v-85.333h213.333c23.565 0 42.667-19.103 42.667-42.667v-298.667c0-23.565-19.102-42.667-42.667-42.667s-42.667 19.102-42.667 42.667v85.333h-853.333v-512h298.667c23.564 0 42.667-19.102 42.667-42.667s-19.102-42.667-42.667-42.667h-341.333c-23.564 0-42.667 19.102-42.667 42.667v768c0 23.564 19.103 42.667 42.667 42.667h213.333v85.333c0 23.564 19.103 42.667 42.667 42.667s42.667-19.103 42.667-42.667zM938.667 661.333v85.333h-853.333v-85.333h853.333zM768 277.333c0 23.565-19.102 42.667-42.667 42.667s-42.667-19.102-42.667-42.667v-85.333c0-23.565 19.102-42.667 42.667-42.667h85.333c23.565 0 42.667 19.102 42.667 42.667s-19.102 42.667-42.667 42.667h-42.667v42.667zM725.333 448c-141.385 0-256-114.615-256-256s114.615-256 256-256c141.385 0 256 114.615 256 256s-114.615 256-256 256zM554.667 192c0 94.255 76.412 170.667 170.667 170.667s170.667-76.412 170.667-170.667c0-94.255-76.412-170.667-170.667-170.667s-170.667 76.412-170.667 170.667z" />
<glyph unicode="&#xe95b;" glyph-name="drop" d="M426.667 320c0 23.565-19.103 42.667-42.667 42.667s-42.667-19.102-42.667-42.667c0-66.735 31.658-111.228 69.58-137.481 35.665-24.691 76.365-33.186 101.086-33.186 23.565 0 42.667 19.102 42.667 42.667s-19.102 42.667-42.667 42.667c-9.412 0-32.713 4.305-52.514 18.014-17.545 12.147-32.819 31.654-32.819 67.319zM512 874.667l30.357 29.982c-8.017 8.116-18.948 12.685-30.357 12.685s-22.34-4.568-30.357-12.685l-0.32-0.324-0.802-0.822c-0.695-0.711-1.707-1.746-3.008-3.091-2.603-2.69-6.383-6.619-11.162-11.67-9.562-10.099-23.155-24.698-39.441-42.849-32.529-36.255-76-86.916-119.574-144.38-43.462-57.315-87.688-122.261-121.225-187.026-33.057-63.842-58.111-131.972-58.111-194.487 0-245.248 198.337-384 384-384s384 138.752 384 384c0 62.515-25.054 130.645-58.112 194.487-33.536 64.765-77.76 129.711-121.225 187.026-43.575 57.463-87.044 108.125-119.573 144.38-16.286 18.151-29.879 32.75-39.441 42.849-4.779 5.051-8.559 8.98-11.162 11.67-1.301 1.345-2.313 2.38-3.008 3.091l-0.802 0.822-0.286 0.29c0 0-0.034 0.034-30.391-29.948zM512 874.667l-30.357 29.982c0 0 0 0 30.357-29.982zM490.423 788.907c7.919 8.827 15.168 16.77 21.577 23.709 6.409-6.939 13.658-14.882 21.577-23.709 31.471-35.078 73.335-83.884 115.093-138.953 41.869-55.218 82.978-115.872 113.442-174.706 30.942-59.759 48.555-113.229 48.555-155.247 0-189.952-151.531-298.667-298.667-298.667s-298.667 108.715-298.667 298.667c0 42.018 17.612 95.488 48.556 155.247 30.463 58.834 71.57 119.488 113.442 174.706 41.759 55.070 83.622 103.875 115.092 138.953z" />
<glyph unicode="&#xe95c;" glyph-name="lock" d="M384 234.667c0 72.533 55.467 128 128 128s128-55.467 128-128c0-72.533-55.467-128-128-128s-128 55.467-128 128zM512 277.333c-25.6 0-42.667-17.067-42.667-42.667s17.067-42.667 42.667-42.667c25.6 0 42.667 17.067 42.667 42.667s-17.067 42.667-42.667 42.667zM516.267 960c68.267 0 132.267-29.867 179.2-76.8s72.533-110.933 72.533-179.2v-170.667h128c25.6 0 42.667-17.067 42.667-42.667v-512c0-25.6-17.067-42.667-42.667-42.667h-768c-25.6 0-42.667 17.067-42.667 42.667v512c0 25.6 17.067 42.667 42.667 42.667h128v174.933c0 68.267 29.867 132.267 76.8 179.2s110.933 72.533 179.2 72.533h4.267zM170.667 448v-426.667h682.667v426.667h-682.667zM341.333 533.333h341.333v170.667c0 42.667-17.067 89.6-46.933 119.467-34.133 34.133-76.8 51.2-119.467 51.2h-4.267c-42.667 0-89.6-17.067-119.467-46.933-34.133-34.133-51.2-76.8-51.2-119.467v-174.933z" />
<glyph unicode="&#xe95d;" glyph-name="user" d="M696.26 426.266c69.658 54.677 114.406 139.646 114.406 235.068 0 164.949-133.717 298.667-298.667 298.667s-298.667-133.718-298.667-298.667c0-95.421 44.749-180.39 114.406-235.068-190.006-60.049-327.739-237.734-327.739-447.599 0-23.565 19.103-42.667 42.667-42.667s42.667 19.102 42.667 42.667c0 212.083 171.916 384 384 384h85.333c212.083 0 384-171.917 384-384 0-23.565 19.102-42.667 42.667-42.667s42.667 19.102 42.667 42.667c0 209.865-137.732 387.55-327.74 447.599zM298.667 661.333c0 117.821 95.513 213.333 213.333 213.333s213.333-95.513 213.333-213.333c0-117.821-95.514-213.333-213.333-213.333s-213.333 95.513-213.333 213.333z" />
<glyph unicode="&#xe95e;" glyph-name="user-star" d="M284.905 420.177c-43.795 55.893-71.572 128.976-71.572 198.49v42.667c0 141.367 114.633 256 256 256s256-114.633 256-256v-42.667c0-69.513-27.776-142.596-71.573-198.49-43.665-55.731-108.181-100.177-184.427-100.177-114.359 0-216.439-25.899-283.948-48.657-34.245-11.593-57.385-43.998-57.385-80.708v-126.635h383.983c23.565 0 42.684-19.102 42.684-42.667s-19.102-42.667-42.667-42.667h-426.647c-23.564 0-42.686 19.102-42.686 42.667v169.301c0 72.768 46.010 138.078 115.434 161.562 40.356 13.606 92.562 28.42 152.593 38.942-9.247 9.173-17.861 18.918-25.788 29.039zM469.333 832c-94.239 0-170.667-76.428-170.667-170.667v-42.667c0-48.289 19.988-103.206 53.409-145.86 33.55-42.82 75.7-67.473 117.257-67.473s83.708 24.653 117.257 67.473c33.421 42.654 53.41 97.571 53.41 145.86v42.667c0 94.239-76.429 170.667-170.667 170.667zM85.333 21.333c0-42.667 0.019-42.667 0.019-42.667l-0.019 42.667zM876.587 271.744l-65.92 133.589-65.92-133.589-147.413-21.419 106.667-103.979-25.173-146.816 131.84 69.333 131.84-69.333-25.173 146.816 106.667 103.979-147.413 21.419z" />
<glyph unicode="&#xe95f;" glyph-name="favortie" d="M89.6 832c115.2 115.2 302.933 115.2 422.4 0 0 0 0 0 0-4.267 0 0 0 0 0 4.267 115.2 115.2 307.2 115.2 422.4 0s115.2-307.2 0-422.4l-392.533-392.533c-8.533-8.533-17.067-12.8-29.867-12.8s-21.333 4.267-29.867 12.8l-392.533 392.533c-119.467 115.2-119.467 302.933 0 422.4zM448 768c-85.333 85.333-217.6 85.333-302.933 0s-85.333-217.6 0-302.933l362.667-362.667 362.667 362.667c85.333 85.333 85.333 217.6 0 302.933s-217.6 85.333-302.933 0c-4.267-8.533-12.8-21.333-21.333-29.867-8.533-12.8-21.333-17.067-34.133-17.067s-25.6 8.533-34.133 17.067c-8.533 8.533-17.067 21.333-29.867 29.867z" />
<glyph unicode="&#xe960;" glyph-name="star" d="M511.996 874.667c18.569 0 35.004-12.007 40.649-29.695l85.841-268.972h257.51c18.287 0 34.539-11.651 40.41-28.969s0.055-36.448-14.464-47.571l-205.798-157.645 85.99-264.631c5.713-17.579-0.546-36.834-15.497-47.701-14.955-10.863-35.204-10.867-50.159-0.004l-224.482 163.076-224.479-163.076c-14.955-10.863-35.204-10.859-50.157 0.004-14.953 10.867-21.21 30.123-15.498 47.701l85.99 264.631-205.801 157.645c-14.516 11.123-20.332 30.255-14.462 47.571s22.123 28.969 40.408 28.969h257.513l85.841 268.972c5.645 17.688 22.080 29.695 40.644 29.695zM511.996 691.665l-54.669-171.303c-5.645-17.69-22.080-29.696-40.647-29.696h-162.82l129.844-99.46c14.358-10.999 20.221-29.858 14.632-47.057l-54.739-168.457 143.324 104.119c14.955 10.859 35.2 10.859 50.155 0l143.322-104.119-54.737 168.457c-5.589 17.199 0.273 36.058 14.63 47.057l129.843 99.46h-162.82c-18.564 0-34.999 12.006-40.644 29.696l-54.673 171.303z" />
<glyph unicode="&#xe961;" glyph-name="check" d="M968.836 734.17c16.661-16.663 16.661-43.677 0-60.34l-554.666-554.666c-16.663-16.661-43.677-16.661-60.34 0l-298.667 298.667c-16.662 16.661-16.662 43.678 0 60.339s43.677 16.661 60.34 0l268.497-268.497 524.497 524.497c16.661 16.662 43.678 16.662 60.339 0z" />
<glyph unicode="&#xe962;" glyph-name="check-circle" d="M798.17 588.497c16.661 16.663 16.661 43.677 0 60.34s-43.678 16.662-60.339 0l-311.164-311.164-140.497 140.497c-16.663 16.661-43.677 16.661-60.34 0s-16.662-43.678 0-60.339l170.667-170.667c16.663-16.661 43.678-16.661 60.34 0l341.333 341.333zM512 960c-282.77 0-512-229.23-512-512s229.23-512 512-512c282.769 0 512 229.231 512 512s-229.231 512-512 512zM85.333 448c0 235.642 191.025 426.667 426.667 426.667 235.639 0 426.667-191.025 426.667-426.667 0-235.639-191.027-426.667-426.667-426.667-235.642 0-426.667 191.027-426.667 426.667z" />
<glyph unicode="&#xe963;" glyph-name="remove-circle" d="M712.836 648.837c16.661-16.663 16.661-43.677 0-60.34l-140.497-140.497 140.497-140.497c16.661-16.661 16.661-43.678 0-60.339s-43.678-16.661-60.339 0l-140.497 140.497-140.497-140.497c-16.663-16.661-43.677-16.661-60.34 0s-16.662 43.678 0 60.339l140.497 140.497-140.497 140.497c-16.662 16.663-16.662 43.677 0 60.34s43.677 16.662 60.34 0l140.497-140.497 140.497 140.497c16.661 16.662 43.678 16.662 60.339 0zM512 960c-282.77 0-512-229.23-512-512s229.23-512 512-512c282.769 0 512 229.231 512 512s-229.231 512-512 512zM85.333 448c0 235.642 191.025 426.667 426.667 426.667 235.639 0 426.667-191.025 426.667-426.667 0-235.639-191.027-426.667-426.667-426.667-235.642 0-426.667 191.027-426.667 426.667z" />
<glyph unicode="&#xe964;" glyph-name="add-circle" d="M512 704c23.565 0 42.667-19.103 42.667-42.667v-170.667h170.667c23.565 0 42.667-19.102 42.667-42.667s-19.102-42.667-42.667-42.667h-170.667v-170.667c0-23.565-19.102-42.667-42.667-42.667s-42.667 19.102-42.667 42.667v170.667h-170.667c-23.564 0-42.667 19.102-42.667 42.667s19.103 42.667 42.667 42.667h170.667v170.667c0 23.564 19.102 42.667 42.667 42.667zM512 960c-282.77 0-512-229.23-512-512s229.23-512 512-512c282.769 0 512 229.231 512 512s-229.231 512-512 512zM85.333 448c0 235.642 191.025 426.667 426.667 426.667 235.639 0 426.667-191.025 426.667-426.667 0-235.639-191.027-426.667-426.667-426.667-235.642 0-426.667 191.027-426.667 426.667z" />
<glyph unicode="&#xe965;" glyph-name="delete-circle" d="M298.667 490.667c-23.564 0-42.667-19.102-42.667-42.667s19.103-42.667 42.667-42.667h426.667c23.565 0 42.667 19.102 42.667 42.667s-19.102 42.667-42.667 42.667h-426.667zM512 960c-282.77 0-512-229.23-512-512s229.23-512 512-512c282.769 0 512 229.231 512 512s-229.231 512-512 512zM85.333 448c0 235.642 191.025 426.667 426.667 426.667 235.639 0 426.667-191.025 426.667-426.667 0-235.639-191.027-426.667-426.667-426.667-235.642 0-426.667 191.027-426.667 426.667z" />
<glyph unicode="&#xe966;" glyph-name="info-circle" d="M512 533.333c23.565 0 42.667-19.102 42.667-42.667v-256c0-23.565-19.102-42.667-42.667-42.667s-42.667 19.102-42.667 42.667v256c0 23.565 19.102 42.667 42.667 42.667zM554.667 661.333c0-23.564-19.102-42.667-42.667-42.667s-42.667 19.103-42.667 42.667c0 23.564 19.102 42.667 42.667 42.667s42.667-19.103 42.667-42.667zM0 448c0 282.77 229.23 512 512 512s512-229.23 512-512c0-282.769-229.231-512-512-512s-512 229.231-512 512zM512 874.667c-235.642 0-426.667-191.025-426.667-426.667 0-235.639 191.025-426.667 426.667-426.667 235.639 0 426.667 191.027 426.667 426.667 0 235.642-191.027 426.667-426.667 426.667z" />
<glyph unicode="&#xe967;" glyph-name="question-circle" d="M512 149.333c23.565 0 42.667 19.102 42.667 42.667s-19.102 42.667-42.667 42.667c-23.565 0-42.667-19.102-42.667-42.667s19.102-42.667 42.667-42.667zM437.641 641.080c36.032 15.923 77.197 22.71 112.009 19.442 35.861-3.366 56.823-16.201 65.574-30.365 21.175-34.262 12.826-82.020-43.721-129.937-63.232-53.577-102.17-94.579-102.17-158.886 0-23.565 19.106-42.667 42.667-42.667 23.565 0 42.667 19.102 42.667 42.667 0 21.026 7.228 38.899 72 93.781 71.45 60.544 114.645 153.33 61.15 239.9-28.578 46.252-80.939 65.844-130.189 70.467-50.295 4.721-106.027-4.94-154.478-26.35-21.553-9.525-31.304-34.719-21.779-56.272s34.719-31.305 56.27-21.78zM0 448c0 282.77 229.23 512 512 512s512-229.23 512-512c0-282.769-229.231-512-512-512s-512 229.231-512 512zM512 874.667c-235.642 0-426.667-191.025-426.667-426.667 0-235.639 191.025-426.667 426.667-426.667 235.639 0 426.667 191.027 426.667 426.667 0 235.642-191.027 426.667-426.667 426.667z" />
<glyph unicode="&#xe968;" glyph-name="warning" d="M512 533.333c23.565 0 42.667-19.102 42.667-42.667v-170.667c0-23.565-19.102-42.667-42.667-42.667s-42.667 19.102-42.667 42.667v170.667c0 23.565 19.102 42.667 42.667 42.667zM554.667 192c0-23.565-19.102-42.667-42.667-42.667s-42.667 19.102-42.667 42.667c0 23.565 19.102 42.667 42.667 42.667s42.667-19.102 42.667-42.667zM512 874.667c15.842 0 30.379-8.777 37.756-22.795l426.667-810.669c6.963-13.222 6.494-29.129-1.229-41.92-7.727-12.796-21.581-20.617-36.527-20.617h-853.333c-14.946 0-28.802 7.821-36.526 20.617-7.725 12.791-8.191 28.698-1.231 41.92l426.668 810.669c7.377 14.018 21.914 22.795 37.756 22.795zM867.994 64l-355.994 676.391-355.995-676.391h711.989z" />
<glyph unicode="&#xe969;" glyph-name="download" d="M494.933 196.267c-4.267 0-8.533 4.267-12.8 8.533l-256 256c-17.067 17.067-17.067 42.667 0 59.733s42.667 17.067 59.733 0l183.467-183.467v537.6c0 25.6 17.067 42.667 42.667 42.667s42.667-17.067 42.667-42.667v-537.6l183.467 183.467c17.067 17.067 42.667 17.067 59.733 0s17.067-42.667 0-59.733l-256-256c-2.133-2.133-4.267-3.2-6.4-4.267s-4.267-2.133-6.4-4.267c-4.267-4.267-12.8-4.267-17.067-4.267s-12.8 0-17.067 4.267zM896 234.667c0 25.6 17.067 42.667 42.667 42.667s42.667-17.067 42.667-42.667v-256c0-25.6-17.067-42.667-42.667-42.667h-853.333c-25.6 0-42.667 17.067-42.667 42.667v256c0 25.6 17.067 42.667 42.667 42.667s42.667-17.067 42.667-42.667v-213.333h768v213.333z" />
<glyph unicode="&#xe96a;" glyph-name="enlarge-vertical" d="M695.467 265.6l-140.8-140.8v648.533l140.8-140.8c8.533-8.533 17.067-12.8 29.867-12.8s21.333 4.267 29.867 12.8c17.067 17.067 17.067 42.667 0 59.733l-213.333 213.333c-4.267 4.267-8.533 8.533-12.8 8.533-12.8 4.267-21.333 4.267-34.133 0-4.267 0-8.533-4.267-12.8-8.533l-213.333-213.333c-17.067-17.067-17.067-42.667 0-59.733s42.667-17.067 59.733 0l140.8 140.8v-648.533l-140.8 140.8c-17.067 17.067-42.667 17.067-59.733 0s-17.067-42.667 0-59.733l213.333-213.333c4.267-4.267 8.533-8.533 12.8-8.533 4.267-4.267 12.8-4.267 17.067-4.267s12.8 0 17.067 4.267c4.267 4.267 8.533 4.267 12.8 8.533l213.333 213.333c17.067 17.067 17.067 42.667 0 59.733s-42.667 17.067-59.733 0z" />
<glyph unicode="&#xe96b;" glyph-name="enlarge" d="M542.17 862.17c-16.661 16.662-43.678 16.662-60.339 0l-213.334-213.333c-16.662-16.663-16.662-43.677 0-60.34s43.677-16.662 60.34 0l183.163 183.164 183.164-183.164c16.661-16.662 43.678-16.662 60.339 0s16.661 43.677 0 60.34l-213.333 213.333zM328.837 307.503c-16.663 16.661-43.677 16.661-60.34 0s-16.662-43.678 0-60.339l213.334-213.333c16.661-16.661 43.678-16.661 60.339 0l213.333 213.333c16.661 16.661 16.661 43.678 0 60.339s-43.678 16.661-60.339 0l-183.164-183.164-183.163 183.164z" />
<glyph unicode="&#xe96c;" glyph-name="arrow-up" d="M840.533 606.933l-298.667 298.667c-4.267 4.267-8.533 8.533-12.8 8.533-12.8 4.267-21.333 4.267-34.133 0-4.267 0-8.533-4.267-12.8-8.533l-298.667-298.667c-17.067-17.067-17.067-42.667 0-59.733s42.667-17.067 59.733 0l226.133 226.133v-750.933c0-25.6 17.067-42.667 42.667-42.667s42.667 17.067 42.667 42.667v750.933l226.133-226.133c8.533-8.533 17.067-12.8 29.867-12.8s21.333 4.267 29.867 12.8c17.067 17.067 17.067 42.667 0 59.733z" />
</font>
</defs>
</svg>
