<svg viewBox="0 0 110 171" xmlns="http://www.w3.org/2000/svg"><path d="m99.25 1c-22.73 25.49-52.79 30.07-79.67 62.69-15.73 19.1-22.43 47.12-11.08 70.58 15.69-17.84 33.26-27.15 48.85-35.05 9-4.57 6.71-10.68-6.21-10.61-16.14.1-22.15-13-9.53-23.5 21.85-17.26 29.73-12.83 47.57-30.61-3.07 22.6-23.41 22.41-40.76 36.05-6.89 5.43-4.46 9.91 4.27 10 23.57.18 24.56 18 11.14 25.1-25.15 13.24-48.83 20.9-63.83 60.68 3.26 3.51 10.15 3.15 10.15 3.15 4.57-12.06 12.6-29.87 19.69-30 10.49-.19 47.54-.2 66.56-35.08s14.17-85.33 2.85-103.4z"/></svg>