<svg width="957" height="473" fill="none" xmlns="http://www.w3.org/2000/svg"><g clip-path="url(#clip0)"><path d="M305.168 319.727l-1.252 1.558 107.626 86.438 1.252-1.559-107.626-86.437z" fill="#E0E7F1"/><path d="M411.542 320.222l-107.636 87.463 1.262 1.553 107.636-87.463-1.262-1.553zM575.594 94.255l-1.267 1.547L818.934 296.24l1.267-1.547L575.594 94.255z" fill="#E0E7F1"/><path d="M818.9 94.218L574.356 295.735l1.272 1.543L820.172 95.762l-1.272-1.544z" fill="#E0E7F1"/><path d="M892.5 0H7.5A7.503 7.503 0 000 7.5v457a7.5 7.5 0 007.5 7.5h885a7.54 7.54 0 006.03-3.06 6.57 6.57 0 00.95-1.72 7.24 7.24 0 00.52-2.72V7.5a7.502 7.502 0 00-7.5-7.5zm4.5 464.5a4.51 4.51 0 01-4.5 4.5H7.5a4.506 4.506 0 01-4.5-4.5V7.5A4.507 4.507 0 017.5 3h885a4.507 4.507 0 014.5 4.5v457z" fill="#E0E7F1"/><path d="M900 38.33H3v2h897v-2zM929.943 411.45a215.91 215.91 0 01-10.085 59.679c-.141.449-.288.89-.435 1.339h-37.636c.04-.402.081-.85.121-1.339 2.509-28.849 16.977-204.433-.322-234.46 1.513 2.436 51.275 83.114 48.357 174.781z" fill="#E0E7F1"/><path d="M927.119 471.13c-.315.448-.643.896-.977 1.338h-28.234c.214-.382.462-.83.75-1.338 4.664-8.419 18.47-33.588 31.285-59.68 13.772-28.039 26.406-57.143 25.342-67.676.328 2.376 9.858 74.797-28.166 127.356zM545.58 184.468h-238a7.007 7.007 0 01-7-7v-79a7.01 7.01 0 017-7h238a7.01 7.01 0 017 7v79a7.006 7.006 0 01-7 7zm-238-91a5.008 5.008 0 00-5 5v79a5.01 5.01 0 001.466 3.534 5.012 5.012 0 003.534 1.466h238a5.008 5.008 0 005-5v-79a5.005 5.005 0 00-5-5h-238zM817.58 411.468h-238a7.007 7.007 0 01-7-7v-79a7.007 7.007 0 017-7h238a7.007 7.007 0 017 7v79a7.006 7.006 0 01-7 7zM408.58 297.468h-101a7.007 7.007 0 01-7-7v-79a7.012 7.012 0 017-7h101a7.01 7.01 0 014.948 2.052 7.01 7.01 0 012.052 4.948v79a7.006 7.006 0 01-7 7zm-101-91a5.007 5.007 0 00-5 5v79a5.01 5.01 0 001.466 3.534 5.012 5.012 0 003.534 1.466h101a5.008 5.008 0 005-5v-79a5.004 5.004 0 00-5-5h-101zM545.58 297.468h-101a7.007 7.007 0 01-7-7v-79a7.012 7.012 0 017-7h101a7.01 7.01 0 014.948 2.052 7.01 7.01 0 012.052 4.948v79a7.006 7.006 0 01-7 7z" fill="#E0E7F1"/><path d="M408.58 410.468h-101a7.007 7.007 0 01-7-7v-79a7.007 7.007 0 017-7h101a7.007 7.007 0 017 7v79a7.006 7.006 0 01-7 7zm-101-91a5.007 5.007 0 00-5 5v79a5.01 5.01 0 001.466 3.534 5.012 5.012 0 003.534 1.466h101a5.008 5.008 0 005-5v-79a5.004 5.004 0 00-5-5h-101z" fill="#526275"/><path d="M545.58 410.468h-101a7.007 7.007 0 01-7-7v-79a7.007 7.007 0 017-7h101a7.007 7.007 0 017 7v79a7.006 7.006 0 01-7 7zm-101-91a5.007 5.007 0 00-5 5v79a5.01 5.01 0 001.466 3.534 5.012 5.012 0 003.534 1.466h101a5.008 5.008 0 005-5v-79a5.004 5.004 0 00-5-5h-101z" fill="#E0E7F1"/><path d="M816.58 298.468h-238a7.007 7.007 0 01-7-7v-193a7.01 7.01 0 017-7h238a7.011 7.011 0 017 7v193a7.006 7.006 0 01-7 7zm-238-205a5.008 5.008 0 00-5 5v193a5.01 5.01 0 001.466 3.534 5.012 5.012 0 003.534 1.466h238a5.008 5.008 0 005-5v-193a5.005 5.005 0 00-5-5h-238z" fill="#526275"/><path d="M855.58 333.468h-238a7.007 7.007 0 01-7-7v-193a7.007 7.007 0 017-7h238a7.007 7.007 0 017 7v193a7.006 7.006 0 01-7 7z" fill="#86D5BC"/><path d="M763.733 285.968H642.228a2.468 2.468 0 01-.454-.036l57.466-99.54a4.03 4.03 0 013.502-2.043 4.02 4.02 0 013.502 2.043l38.568 66.799 1.847 3.196 17.074 29.581z" fill="#fff"/><path opacity=".2" d="M763.733 285.968h-41.485l20.365-29.581 1.466-2.131.733-1.065 1.848 3.196 17.073 29.581z" fill="#263240"/><path d="M831.387 285.968H726.294l20.365-29.581 1.466-2.131 26.537-38.549a5.37 5.37 0 017.971-.477c.137.151.265.31.382.477l48.372 70.261zM752.18 209.968c9.941 0 18-8.059 18-18s-8.059-18-18-18-18 8.059-18 18 8.059 18 18 18z" fill="#fff"/><path d="M645.58 140.468h-22v22h22v-22z" fill="#526275"/><path d="M436.58 432.468h-101a7.007 7.007 0 01-7-7v-79a7.007 7.007 0 017-7h101a7.007 7.007 0 017 7v79a7.006 7.006 0 01-7 7z" fill="#86D5BC"/><path d="M397.411 409.337h-50.705a.997.997 0 01-.189-.015l23.981-41.539c.146-.259.359-.474.616-.623a1.673 1.673 0 011.691 0c.257.149.47.364.616.623l16.094 27.876.771 1.334 7.125 12.344z" fill="#fff"/><path opacity=".2" d="M397.411 409.337H380.1l8.498-12.344.612-.889.305-.445.771 1.334 7.125 12.344z" fill="#263240"/><path d="M425.644 409.337h-43.856l8.498-12.344.612-.889 11.074-16.087a2.243 2.243 0 012.541-.701c.294.11.561.281.785.502.057.063.111.129.16.199l20.186 29.32zM392.59 377.622a7.512 7.512 0 100-15.023 7.512 7.512 0 000 15.023z" fill="#fff"/><path d="M354.58 347.468h-16v16h16v-16z" fill="#526275"/><path d="M100.198 142.853a5.947 5.947 0 000 11.892h107.086a5.946 5.946 0 100-11.892H100.198zM100.198 173.853a5.947 5.947 0 000 11.892h107.086a5.946 5.946 0 100-11.892H100.198zM100.198 204.853a5.947 5.947 0 000 11.892h107.086a5.946 5.946 0 100-11.892H100.198zM100.198 235.853a5.947 5.947 0 000 11.892h107.086a5.946 5.946 0 100-11.892H100.198zM100.198 266.853a5.947 5.947 0 000 11.892h107.086a5.946 5.946 0 100-11.892H100.198zM100.198 297.853a5.947 5.947 0 000 11.892h107.086a5.946 5.946 0 100-11.892H100.198zM61.927 159.831a10.998 10.998 0 01-10.789-13.146 10.997 10.997 0 018.643-8.643 11.004 11.004 0 0113.146 10.789 11.012 11.012 0 01-11 11zm0-20a9 9 0 109 9 9.01 9.01 0 00-9-9zM61.927 190.831a10.998 10.998 0 01-10.789-13.146 10.997 10.997 0 018.643-8.643 11.004 11.004 0 0113.146 10.789 11.012 11.012 0 01-11 11zm0-20a9 9 0 109 9 9.01 9.01 0 00-9-9zM61.927 221.8a11.006 11.006 0 01-10.163-6.791 10.999 10.999 0 1121.163-4.209 11.012 11.012 0 01-11 11zm0-20a8.999 8.999 0 00-1.756 17.827 9.004 9.004 0 009.239-3.827 8.999 8.999 0 001.517-5 9.008 9.008 0 00-9-9zM61.927 252.8a11.006 11.006 0 01-10.163-6.791 10.999 10.999 0 1121.163-4.209 11.012 11.012 0 01-11 11zm0-20a8.999 8.999 0 00-1.756 17.827 9.004 9.004 0 009.239-3.827 8.999 8.999 0 001.517-5 9.008 9.008 0 00-9-9zM61.927 283.8a11.006 11.006 0 01-10.163-6.791 10.999 10.999 0 1121.163-4.209 11.012 11.012 0 01-11 11zm0-20a8.999 8.999 0 00-1.756 17.827 9.004 9.004 0 009.239-3.827 8.999 8.999 0 001.517-5 9.008 9.008 0 00-9-9zM61.927 314.8a11.006 11.006 0 01-10.163-6.791 10.999 10.999 0 1121.163-4.209 11.012 11.012 0 01-11 11zm0-20a8.999 8.999 0 00-1.756 17.827 9.004 9.004 0 009.239-3.827 8.999 8.999 0 001.517-5 9.008 9.008 0 00-9-9z" fill="#E0E7F1"/><path d="M61.927 153.831a5 5 0 100-10 5 5 0 000 10zM61.927 215.831a5 5 0 100-10 5 5 0 000 10zM61.927 246.831a5 5 0 100-10 5 5 0 000 10z" fill="#86D5BC"/><path d="M507.568 266.574l1.62 12.155a8.54 8.54 0 003.86 6.059 8.53 8.53 0 0012.651-4.376 8.523 8.523 0 00-1.01-7.622l-7.272-10.648-14.281-37.92 14.774-19.206-17.237-7.387-14.281 25.116 21.176 43.829z" fill="#FFB8B8"/><path d="M496.734 198.614l24.623 9.357 6.012-16.699a9.993 9.993 0 00-11.315-13.191 9.994 9.994 0 00-5.919 3.605l-13.401 16.928z" fill="#86D5BC"/><path d="M479.497 432.044l32.256.786 18.961-123.903c17.988 32.763 32.254 76.428 44.815 125.087l28.07-6.402c-7.821-51.784-22.154-98.457-43.829-139.369l.985-28.071-44.815-6.894a20.336 20.336 0 00-3.595 2.156c-25.322 18.857-28.6 103.771-32.848 176.61z" fill="#304050"/><path d="M582.916 472.427l10.781-1.348-1.424-12.934c4.373 8.799 9.959 12.641 16.673 11.876a8.41 8.41 0 006.904-5.783c.095-.287.176-.578.24-.872a5.29 5.29 0 00-3.435-5.927c-8.053-3.21-10.252-17.813-12.01-33.274l-13.297 2.462.492 11.327c-7.582 10.981-7.802 21.968-4.924 34.473zM486.392 472.427l10.781-1.348-1.424-12.934c4.373 8.799 9.959 12.641 16.673 11.876a8.41 8.41 0 006.904-5.783 8.6 8.6 0 00.241-.872 5.29 5.29 0 00-3.436-5.927c-8.053-3.21-10.252-17.813-12.01-33.274l-13.297 2.462.492 11.327c-7.582 10.981-7.802 21.968-4.924 34.473z" fill="#304050"/><path d="M545.794 174.631c9.647 0 17.468-7.821 17.468-17.468s-7.821-17.467-17.468-17.467-17.467 7.82-17.467 17.467c0 9.647 7.82 17.468 17.467 17.468z" fill="#FFB8B8"/><path d="M511.508 190.734l23.146-3.94 11.819-19.698-16.744-10.835c-3.275 11.331-9.738 22.845-18.221 34.473z" fill="#FFB8B8"/><path d="M513.604 254.983l46.658 11.099c3.594-29.206 2.378-54.756-6.16-74.739a21.784 21.784 0 00-14.524-12.428l-19.698-.985a22.674 22.674 0 00-12.497 24.119c7.476 19.709 12.62 38.526 6.221 52.934z" fill="#86D5BC"/><path d="M598.803 246.7l10.888 5.639a8.532 8.532 0 0012.047-4.97 8.528 8.528 0 00-1.203-7.593 8.53 8.53 0 00-6.824-3.542l-12.893-.146-39.258-10.035-7.268-23.116-15.934 9.889 12.393 26.1 48.052 7.774z" fill="#FFB8B8"/><path d="M536.907 216.619l21.782-14.813-10.237-14.498a9.991 9.991 0 00-17.733 8.626l6.188 20.685z" fill="#86D5BC"/><path d="M541.795 157c6.698-.952 12.404-2.677 19.102-3.629 1.652-.235 3.549-.635 4.316-2.116.708-1.365.11-3.03-.63-4.378a22.36 22.36 0 00-19.42-11.608 22.365 22.365 0 00-19.614 11.276c-1.767 3.095-2.806 6.627-5.048 9.398a33.323 33.323 0 01-4.968 4.527 68.354 68.354 0 00-24.244 44.751 28.618 28.618 0 00.249 9.589 13.392 13.392 0 004.992 7.997c3.882 2.748 9.266 2.519 13.635.641 8.368-3.597 13.591-12.424 15.106-21.405 1.514-8.982-.125-18.178-2.152-27.058-.74-3.241-1.529-6.652-.58-9.838 1.317-4.426 7.428 2.62 11.376.225 1.647-.999 1.585-11.861 3.505-11.701 1.92.16 3.771 2.149 3.024 3.925l1.351-.596z" fill="#304050"/><path d="M523.951 165.05a2.214 2.214 0 00.691-3.057l-2.822-4.472a2.219 2.219 0 00-3.057-.691 2.216 2.216 0 00-.691 3.057l2.822 4.472c.314.496.812.848 1.386.977.573.13 1.174.027 1.671-.286z" fill="#86D5BC"/><path d="M27.79 30.234a8.5 8.5 0 100-17 8.5 8.5 0 000 17zM52.44 30.234a8.5 8.5 0 100-17 8.5 8.5 0 000 17zM77.09 30.234a8.5 8.5 0 100-17 8.5 8.5 0 000 17z" fill="#E0E7F1"/></g><defs><clipPath id="clip0"><path fill="#fff" d="M0 0h956.58v472.468H0z"/></clipPath></defs></svg>
