<svg width="598" height="236" viewBox="0 0 598 236" fill="none" xmlns="http://www.w3.org/2000/svg">
<rect x="134" y="5" width="124" height="12" rx="6" fill="#BBCAD8"/>
<rect x="134" y="33" width="232" height="8" rx="4" fill="#E0E7F1"/>
<rect x="134" y="49" width="170" height="8" rx="4" fill="#E0E7F1"/>
<rect width="110" height="62" rx="6" fill="#E0E7F1"/>
<rect x="134" y="91" width="124" height="12" rx="6" fill="#BBCAD8"/>
<rect x="134" y="119" width="232" height="8" rx="4" fill="#E0E7F1"/>
<rect x="134" y="135" width="170" height="8" rx="4" fill="#E0E7F1"/>
<rect y="86" width="110" height="62" rx="6" fill="#E0E7F1"/>
<rect x="134" y="177" width="124" height="12" rx="6" fill="#BBCAD8"/>
<rect x="134" y="205" width="232" height="8" rx="4" fill="#E0E7F1"/>
<rect x="134" y="221" width="170" height="8" rx="4" fill="#E0E7F1"/>
<rect y="172" width="110" height="62" rx="6" fill="#E0E7F1"/>
<rect x="398" width="200" height="62" rx="6" fill="#E0E7F1"/>
<rect x="398" y="86" width="200" height="150" rx="6" fill="#E0E7F1"/>
</svg>
