<svg fill="none" height="336" viewBox="0 0 376 336" width="376" xmlns="http://www.w3.org/2000/svg" xmlns:xlink="http://www.w3.org/1999/xlink"><clipPath id="a"><path d="m.050049 0h375.9v336h-375.9z"/></clipPath><g clip-path="url(#a)"><path d="m6.91561 238.343c-20.77841-106.301 2.7839-196.0939 109.93039-214.6752 99.366-17.23246 187.173-6.1199 238.238 79.1432 47.548 79.405 12.528 183.867-91.384 217.238s-237.2702 18.139-256.78439-81.706z" fill="#edede6"/><g stroke="#000"><path d="m167.682 68.8092c3.073-1.7515 3.147-4.6101.162-6.3683l-43.204-25.4662c-2.986-1.7581-7.915-1.7716-10.988 0l-44.4819 25.3052c-3.0731 1.7514-3.147 4.6101-.1614 6.3682l35.2493 26.7345c4.082.8456 15.869.4966 18.943-1.2548z" fill="#000" stroke-linecap="round" stroke-linejoin="round" stroke-width=".5"/><path d="m144.557 65.5345-31.409 11.9245c-3.073 1.7514-10.201-10.2402-13.1869-11.9984l-43.2042-25.4997c-2.9857-1.7582-2.9117-4.6101.1614-6.3616l44.4617-25.31186c3.073-1.75143 8.002-1.74472 10.988 0l43.204 25.49976c3.006 1.7447-7.942 30.0025-11.015 31.7473z" fill="#007ff5" stroke-linecap="round" stroke-linejoin="round" stroke-width=".5"/><path d="m106.78 9.72345v4.97245" stroke-linecap="round" stroke-linejoin="round" stroke-width=".5"/><path d="m63.8645 55.5493 43.1635-25.0368 42.673 25.0032-43.823 25.0636z" fill="#f1c9c6" stroke-linecap="round" stroke-linejoin="round" stroke-width=".5"/><path d="m63.8645 53.8381 43.1635-25.0368 42.673 25.01-43.823 25.0569z" fill="#f1c9c6" stroke-linecap="round" stroke-linejoin="round" stroke-width=".5"/><path d="m63.8645 52.1336 43.1635-25.0367 42.673 25.0032-43.823 25.0636z" fill="#bef0ee" stroke-linecap="round" stroke-linejoin="round" stroke-width=".5"/><path d="m63.8645 49.8856 43.1635-25.0367 42.673 25.0032-43.823 25.0636z" fill="#f1c9c6" stroke-linecap="round" stroke-linejoin="round" stroke-width=".5"/><path d="m63.8645 48.7113 43.1635-25.0367 42.673 25.0032-43.823 25.0636z" fill="#fff" stroke-linecap="round" stroke-linejoin="round" stroke-width=".5"/><path d="m63.8645 47.0001 43.1635-25.0367 42.673 25.0032-43.823 25.0636z" fill="#f1c9c6" stroke-linecap="round" stroke-linejoin="round" stroke-width=".5"/><path d="m63.8645 45.2957 43.1635-25.0435 42.673 25.0099-43.823 25.0636z" fill="#f1c9c6" stroke-linecap="round" stroke-linejoin="round" stroke-width=".5"/><path d="m63.8645 43.8999 43.1635-25.0368 42.673 25.0099-43.823 25.0636z" fill="#dbe371" stroke-linecap="round" stroke-linejoin="round" stroke-width=".5"/><path d="m63.8645 41.8733 43.1635-25.0368 42.673 25.0033-43.823 25.0636z" fill="#e4ddce" stroke-linecap="round" stroke-linejoin="round" stroke-width=".5"/><path d="m63.8645 39.7394 43.1635-25.0435 42.673 25.0099-43.823 25.0637z" fill="#f1c9c6" stroke-linecap="round" stroke-linejoin="round" stroke-width=".5"/></g><path d="m66.5744 39.471 39.7146-24.2248 42.209 23.9765-37.892 21.9298c-1.383.6902-2.912 1.0366-4.457 1.0097-1.546-.0269-3.062-.4262-4.419-1.164l-37.7848-23.1377" fill="#000"/><path d="m63.9183 37.8672 11.8013 7.2205c.8406.5234 2.6293 1.0132 5.0568 2.409 3.3151 1.8924 14.3633 9.502 15.4661 10.1932 3.4294 2.0937 8.4125 3.1942 8.4125 3.1942s8.264-1.1005 13.227-3.939c1.19-.6711 10.638-6.7977 12.937-8.1331 2.495-1.4495 5.501-2.5433 7.935-3.9592l8.258-4.7913c.653-.3382 1.225-.813 1.678-1.392.452-.5791.774-1.2487.944-1.9632l-3.712-1.8857-39.068-21.5473c-3.948 2.2883-31.9951 18.2458-42.9357 24.5939z" fill="#dff3ab"/><path d="m63.9183 37.8672 11.8013 7.2205c.8406.5234 2.6293 1.0132 5.0568 2.409 3.3151 1.8924 14.3633 9.502 15.4661 10.1932 3.4294 2.0937 8.4125 3.1942 8.4125 3.1942s8.264-1.1005 13.227-3.939c1.19-.6711 10.638-6.7978 12.937-8.1331 2.495-1.4495 5.501-2.5433 7.935-3.9592l8.258-4.7913c.653-.3382 1.225-.813 1.678-1.392.452-.5791.774-1.2487.944-1.9632l-3.712-1.8857-39.068-21.5473c-3.948 2.2883-31.9951 18.2458-42.9357 24.5939" stroke="#000" stroke-linecap="round" stroke-linejoin="round" stroke-width=".5"/><path d="m138.304 46.9129v6.2944c0 4.6974-3.672 10.7368-8.164 13.421-1.849 1.1005-3.557 1.4427-4.929 1.1542 1.177 2.5231 4.149 3.0667 7.619 1.02 4.492-2.6842 8.163-8.6834 8.163-13.421v-6.8983z" fill="#f5bd61" stroke="#000" stroke-linecap="round" stroke-linejoin="round" stroke-width=".5"/><path d="m155.431 38.8939-14.673 8.3545v8.4619c0 4.5095-3.51 10.2738-7.807 12.817-4.297 2.5366-7.814.9261-7.814-3.5834v-7.5425l-14.188 6.8245c-3.073 1.7514-8.002 1.7447-10.988 0l-43.2042-25.4797c-.4476-.2602-.8572-.5809-1.2171-.9528-.6253 0-.975-.9127-.975-.9127v28.6538c0 1.1273.7262 2.248 2.1854 3.1069l43.2042 25.4998c2.9857 1.7581 7.9147 1.7649 10.9877 0l44.489-25.332c.558-.2646 1.053-.646 1.451-1.1184s.69-1.0247.855-1.6195h.047v-29.1906h-.296c-.468.8619-1.185 1.5633-2.057 2.0132z" fill="#f5bd61" stroke="#000" stroke-linecap="round" stroke-linejoin="round" stroke-width=".5"/><path d="m155.592 33.7738-43.204-25.49979c-2.986-1.75815-7.915-1.76486-10.988 0l-44.4817 25.33869c-3.0731 1.7515-3.1471 4.6034-.1614 6.3616l43.2042 25.4998c2.9859 1.7581 7.9149 1.7648 10.9879 0l14.121-8.0526-2.374-1.5434-14.269 8.1398c-.916.4666-1.93.7098-2.959.7098-1.028 0-2.042-.2432-2.958-.7098l-43.2046-25.4662c-1.6071-.9462-1.5668-2.4829.0874-3.4291l44.5092-25.36558c.916-.46657 1.93-.70983 2.958-.70983 1.029 0 2.043.24326 2.959.70983l43.204 25.49978c1.607.9462 1.567 2.4829-.087 3.4291l-14.518 8.2471 2.474 1.4897 14.539-8.2874c3.106-1.7514 3.147-4.6034.161-6.3615z" fill="#f5bd61" stroke="#000" stroke-linecap="round" stroke-linejoin="round" stroke-width=".5"/><path d="m105.334 70.3257v22.9566" stroke="#000" stroke-linecap="round" stroke-linejoin="round" stroke-width=".5"/><path d="m280.269 49.53h-27.073l-19.144 11.0119v15.5817l19.144 11.0119h27.073l19.144-11.0119v-15.5817z" fill="#000" stroke="#000" stroke-linecap="round" stroke-linejoin="round" stroke-width=".5"/><path d="m281.957 57.4148h-30.751l-21.74 12.562v17.7626l21.74 12.5616h30.751l21.739-12.5616v-17.7626z" fill="#000" stroke="#000" stroke-linecap="round" stroke-linejoin="round" stroke-width=".5"/><path d="m280.269 20.6481h-27.073l-19.144 11.2267v15.8702l19.144 11.2266h27.073l19.144-11.2266v-15.8702z" fill="#4f7e60" stroke="#000" stroke-linecap="round" stroke-linejoin="round" stroke-width=".5"/><path d="m253.196 55.2742-3.147 1.8521 3.147 1.8453h27.073l3.153-1.8453-3.153-1.8521z" fill="#000" stroke="#000" stroke-linecap="round" stroke-linejoin="round" stroke-width=".5"/><path d="m299.413 69.1447h-27.072l-19.145 11.0186v15.575l27.779 11.3007 18.438-.282 19.144-11.0187v-15.575z" fill="#000"/><path d="m282.212 61.2532h-30.959v45.6918h30.959z" fill="#6ac38b" stroke="#000" stroke-linecap="round" stroke-linejoin="round" stroke-width=".5"/><path d="m251.253 106.945-21.787-12.8575v-45.6916l21.787 12.8573z" fill="#6ac38b" stroke="#000" stroke-linecap="round" stroke-linejoin="round" stroke-width=".5"/><path d="m249.451 60.1929-6.691-3.9524-13.294 12.5419v10.267z" fill="#000"/><path d="m229.466 60.2198v5.4287l11.25-10.6159-3.537-2.087z" fill="#000"/><path d="m251.253 80.0828v-5.4288l-21.276 19.4872 3.537 2.087z" fill="#000"/><path d="m282.212 106.945 21.787-12.8575v-45.6916l-21.787 12.8573z" fill="#6ac38b" stroke="#000" stroke-linecap="round" stroke-linejoin="round" stroke-width=".5"/><path d="m282.212 94.0003 21.787-20.5609v-5.4288l-21.787 20.5609z" fill="#000"/><path d="m282.212 61.2532v11.079l21.787-20.5609v-3.3754z" fill="#000"/><path d="m253.196 20.6481v34.6261" stroke="#000" stroke-linecap="round" stroke-linejoin="round" stroke-width=".5"/><path d="m280.269 20.6481v34.6261" stroke="#000" stroke-linecap="round" stroke-linejoin="round" stroke-width=".5"/><path d="m282.172 18.3666h-30.838l-21.828 12.562v17.7492l21.828 12.5754h30.871l21.801-12.5754v-17.7492zm17.248 28.7409-19.171 11.2266h-27.046l-19.144-11.2266v-15.2059l19.144-11.2199h27.046l19.171 11.2199z" fill="#6ac38b" stroke="#000" stroke-linecap="round" stroke-linejoin="round" stroke-width=".5"/><path d="m277.021 7.28761-1.258-4.10681c-.39-.29149-.855-.46589-1.341-.50274-.486-.03684-.972.06539-1.402.29471l-1.863 3.87195c-.453.94098-.724 1.9585-.8 2.99957l-.208 2.75131 3.503.2617 3.503.2617.209-2.7513c.078-1.03903-.038-2.08359-.343-3.08009z" fill="#fff" stroke="#000" stroke-linecap="round" stroke-linejoin="round" stroke-width=".5"/><path d="m275.763 3.18078-.477-1.55683c-.049-.16117-.146-.30376-.278-.40917-.132-.10542-.292-.16877-.461-.18181-.168-.01304-.337.02485-.483.10872-.147.08387-.264.20983-.338.36147l-.706 1.46959c.43-.22932.916-.33155 1.402-.29471.486.03685.951.21125 1.341.50274z" fill="#000" stroke="#000" stroke-linecap="round" stroke-linejoin="round" stroke-width=".5"/><path d="m273.807 10.7838c-1.93-.1477-3.571.671-3.658 1.8118l-2.885 45.7386 7.504-.141 2.387-45.0809c.088-1.1408-1.412-2.1809-3.348-2.3285z" fill="#007ff5" stroke="#000" stroke-linecap="round" stroke-linejoin="round" stroke-width=".5"/><path d="m256.088 9.10613-5.245-8.938344-.794 10.347514" fill="#fff"/><path d="m256.088 9.10613-5.245-8.938344-.794 10.347514" stroke="#1f1b0a" stroke-linecap="round" stroke-linejoin="round" stroke-width=".5"/><path d="m253.58 8.20696c-1.695.1275-3.248 1.08038-3.47 2.12724-.027.1441-.027.292 0 .4362l10.725 47.5638h6.435l-11.014-48.91936c-.175-.79184-1.244-1.30854-2.676-1.20788z" fill="#f5bd61" stroke="#000" stroke-linecap="round" stroke-linejoin="round" stroke-width=".5"/><path d="m254.023 8.2002 11.445 50.1339" stroke="#000" stroke-linecap="round" stroke-linejoin="round" stroke-width=".5"/><path d="m250.843.167786-.296 3.845104c.235-.3576.594-.61576 1.009-.72473.423-.07871.861-.00751 1.237.20131z" fill="#1f1b0a" stroke="#1f1b0a" stroke-linecap="round" stroke-linejoin="round" stroke-width=".5"/><path d="m251.623 9.039 11.263 49.2951" stroke="#1f1b0a" stroke-linecap="round" stroke-linejoin="round" stroke-width=".5"/><path d="m308.148 130.935-53.916-6.093-13.812 31.492 56.344 6.576z" fill="#000" stroke="#000" stroke-linecap="round" stroke-linejoin="round" stroke-width=".5"/><path d="m308.148 130.405c-13.805-1.604-48.933-5.51-53.909-6.087l-12.494 27.788-1.345 2.517c1.436.967 3.086 1.57 4.808 1.758l10.423 1.214c3.066.363 6.321.316 9.468.671 2.904.343 15.351 2.222 16.851 2.389 6.227.671 13.576-.885 13.576-.885s2.973-2.289 3.894-4.879c.302-.852 2.575-9.851 3.577-12.26.74-1.765 1.715-2.684 1.944-3.302l3.18-8.931" fill="#f1c9c6"/><path d="m308.148 130.405c-13.805-1.604-48.933-5.51-53.909-6.087l-12.494 27.788-1.345 2.517c1.436.967 3.086 1.57 4.808 1.758l10.423 1.214c3.066.363 6.321.316 9.468.671 2.904.343 15.351 2.222 16.851 2.389 6.227.671 13.576-.885 13.576-.885s2.973-2.289 3.894-4.879c.302-.852 2.575-9.851 3.577-12.26.74-1.765 1.715-2.684 1.944-3.302l3.18-8.931" stroke="#000" stroke-linecap="round" stroke-linejoin="round" stroke-width=".5"/><path d="m8.63028 189.135-3.76565-1.785c-.28915-.168-.20174-.463.195-.671l85.91077-41.84c.1942-.097.4072-.151.6243-.158s.4332.033.6332.118l3.7656 1.778c.2892.168.2018.47-.195.671l-85.91076 41.84c-.19434.096-.40691.15-.62368.158-.21676.008-.43278-.03-.63378-.111z" fill="#000" stroke="#000" stroke-linecap="round" stroke-linejoin="round" stroke-width=".75"/><path d="m96.0003 143.624c-.0134-.977-.2722-1.935-.7527-2.786s-1.1673-1.568-1.9976-2.086c-.2698-.166-.5759-.264-.8921-.286-.3161-.022-.633.032-.9235.159l-2.3266 1.127 3.4698 7.133 2.3535-1.134c.3615-.217.6538-.532.8431-.909.1892-.376.2676-.799.2261-1.218z" fill="#4f4d49" stroke="#000" stroke-linecap="round" stroke-linejoin="round" stroke-width=".75"/><path d="m92.6305 146.844c1.2042-.588 1.3982-2.66.4332-4.627-.9649-1.967-2.7233-3.085-3.9274-2.497-1.2042.588-1.3982 2.659-.4332 4.627.9649 1.967 2.7233 3.085 3.9274 2.497z" fill="#000"/><path d="m94.1981 144.637c-.0174-1.045-.2959-2.069-.8102-2.979-.5143-.911-1.2482-1.679-2.135-2.235-.2887-.178-.6165-.283-.9551-.306-.3386-.024-.6778.036-.9883.172l-57.8633 27.99 3.7186 7.636 57.9171-27.996c.659-.322 1.1028-1.127 1.1162-2.282z" fill="#6ac38b" stroke="#000" stroke-linecap="round" stroke-linejoin="round" stroke-width=".5"/><path d="m36.0255 173.197c0-2.228-1.4255-4.784-3.2344-5.724-.3162-.196-.6758-.313-1.0474-.338-.3716-.026-.7439.04-1.0842.191l-23.9792 11.609 4.0817 8.381 24.0061-11.622c.7531-.356 1.2373-1.235 1.2574-2.497z" fill="#6ac38b" stroke="#000" stroke-linecap="round" stroke-linejoin="round" stroke-width=".5"/><path d="m10.8593 187.269c1.4143-.691 1.6423-3.124.5092-5.434s-3.19816-3.623-4.61247-2.932-1.6423 3.123-.50923 5.434c1.13308 2.31 3.19814 3.622 4.6125 2.932z" fill="#000"/><path d="m11.8244 184.706c-.0125-1.076-.2955-2.131-.823-3.069-.5276-.938-1.28275-1.729-2.19626-2.3-.29929-.186-.63995-.295-.99182-.319-.35187-.023-.7041.04-1.0255.185l-2.56199 1.235 3.83962 7.818 2.58885-1.249c.6994-.302 1.1566-1.127 1.1701-2.301z" fill="#4f4d49" stroke="#000" stroke-linecap="round" stroke-linejoin="round" stroke-width=".75"/><path d="m8.16132 188.243c1.32425-.647 1.53879-2.923.47919-5.083-1.05961-2.161-2.9921-3.388-4.31635-2.741s-1.53879 2.923-.47919 5.083c1.05961 2.16 2.9921 3.387 4.31635 2.741z" fill="#75726d" stroke="#000" stroke-linecap="round" stroke-linejoin="round" stroke-width=".75"/><path d="m54.8606 282.806 58.1594-6.912 14.901 35.72-60.775 7.449z" fill="#000" stroke="#000" stroke-linecap="round" stroke-linejoin="round" stroke-width=".5"/><path d="m54.8673 282.202c14.8878-1.825 52.7867-6.247 58.1597-6.905l13.448 31.506 1.426 2.852c-1.532 1.099-3.318 1.791-5.191 2.013l-11.244 1.402c-3.308.403-6.818.349-10.214.765-3.1334.383-16.562 2.51-18.1557 2.685-6.7244.791-14.6525-1-14.6525-1s-3.2008-2.597-4.196-5.536c-.3295-.96-2.7839-11.167-3.8665-13.898-.7935-2.013-1.8492-3.02-2.0913-3.744z" fill="#f5bd61" stroke="#000" stroke-linecap="round" stroke-linejoin="round" stroke-width=".5"/><path d="m105.811 290.563c2.308 1.794 4.175 4.089 5.46 6.711.042.081.054.175.033.264-.02.089-.071.168-.144.223s-.163.083-.255.079c-.091-.005-.178-.041-.245-.103-2.744-2.367-5.559-4.653-8.446-6.858l.672-.369c.538 1.563 1.009 3.154 1.412 4.757.242.96.982 2.805-.121 3.537-.612.402-1.378.141-2.017 0s-1.473-.416-2.199-.671c-1.4572-.499-2.8773-1.1-4.2498-1.799-1.5407-.774-3.016-1.671-4.4112-2.684-.3295-.241-.1546-.832.3026-.671.6585.192 1.2463.571 1.6908 1.093.4446.521.7264 1.16.8107 1.84-.0018.102-.0436.199-.1166.271-.073.071-.1711.111-.2734.111-4.682-.51-9.1443-2.251-12.931-5.046-.39-.289-.0404-.933.39-.671 1.2637.803 2.319 1.893 3.0798 3.181.3429.597.7733 1.342.5245 2.013-.0948.231-.2491.434-.4475.587-.1983.153-.4337.252-.6822.285-.5765.097-1.1652.097-1.7417 0-.6896-.104-1.388-.138-2.0845-.101-1.4794.115-2.9117.517-4.3776.718-1.5106.316-3.0844.09-4.4448-.637-.0442-.026-.0828-.06-.1138-.1s-.0537-.087-.0668-.136-.0164-.1-.0097-.151c.0068-.05.0235-.099.0491-.143s.0596-.083.1002-.114.0868-.053.1361-.066c.0494-.013.1008-.017.1514-.01s.0993.023.1435.049c2.1922 1.342 4.9223.309 7.2489-.047.627-.103 1.2609-.159 1.8963-.168.5607.026 1.1196.082 1.6743.168.4876.102.9926.086 1.4727-.047.6253-.242.3362-.899.1076-1.342-.6961-1.34-1.7326-2.474-3.0058-3.288l.39-.671c3.6702 2.722 7.9971 4.426 12.541 4.939l-.39.382c-.0642-.53-.2852-1.029-.635-1.433s-.8123-.695-1.3286-.835l.3026-.671c2.2177 1.634 4.6414 2.97 7.2086 3.973 1.2983.512 2.6303.933 3.9873 1.261.269.06.673.175.888 0 .079-.091.137-.198.171-.314.033-.116.042-.238.024-.357-.061-.634-.19-1.259-.383-1.865-.413-1.651-.895-3.284-1.446-4.899-.135-.403.376-.577.672-.369 2.887 2.201 5.703 4.485 8.446 6.851l-.612.463c-1.253-2.56-3.08-4.799-5.339-6.542-.39-.309.161-.846.551-.544z" fill="#000"/><path d="m288.13 250.663-186.515 32.948c-2.0911.356-5.191-2.429-6.4485-5.69l-25.3375-65.333c-.4841-1.255.6052-2.53 2.4208-2.839l162.1652-27.291c1.816-.309 4.068.389 5.023 1.563l50.225 63.193c1.23 1.53.551 3.08-1.533 3.449z" fill="#000" stroke="#000" stroke-linecap="round" stroke-linejoin="round" stroke-width=".75"/><path d="m226.158 179.022-10.86-118.8223c-.059-.7741-.278-1.5274-.645-2.2119s-.873-1.285-1.485-1.7632c-.613-.4782-1.319-.8234-2.073-1.0136-.754-.1903-1.54-.2213-2.306-.0912l-163.4569 26.0031c-1.6032.2953-3.04 1.1724-4.0334 2.4624-.9933 1.2899-1.4729 2.9013-1.3461 4.5232l10.7254 117.5945 1.2911 1.959c.3245.203.7113.281 1.0893.222z" fill="#e4ddce" stroke="#000" stroke-linecap="round" stroke-linejoin="round" stroke-width=".75"/><path d="m227.839 180.096-10.86-118.8227c-.059-.7742-.278-1.5278-.645-2.2125-.367-.6848-.872-1.2857-1.485-1.7644-.612-.4787-1.318-.8246-2.072-1.0156-.754-.1911-1.54-.2231-2.307-.094l-163.4568 26.0031c-1.6044.2953-3.0423 1.1735-4.0358 2.4649s-1.4722 2.9043-1.3437 4.5274l10.8599 118.8218z" fill="#000" stroke="#000" stroke-linecap="round" stroke-linejoin="round" stroke-width=".75"/><path d="m279.839 244.624s-53.56-57.791-55.309-57.469l-141.5682 25.668-31.5508-2.201s.8607 6.126 1.5197 8.092l24.8063 65.716c.2984 1.004.9684 1.856 1.8738 2.385.9055.528 1.9786.693 3.0014.46l195.1018-34.599c1.385-.255 2.165-1.094 2.131-2.087z" fill="#c8bfad" stroke="#000" stroke-linecap="round" stroke-linejoin="round" stroke-width=".75"/><path d="m277.606 246.69-195.6798 35.036c-2.0577.355-3.9809 0-5.245-3.355l-25.2703-67.749c-.4841-1.289.5783-2.591 2.3535-2.893l170.4026-29.063c1.769-.302 4.001.43 4.963 1.631l49.868 62.844c1.251 1.597.652 3.194-1.392 3.549z" fill="#fff" stroke="#000" stroke-linecap="round" stroke-linejoin="round" stroke-width=".75"/><path d="m246.902 210.4c1.15-.194 1.486-2.328.545-3.489l-19.575-24.084c-.82-1.094-2.905-1.738-4.64-1.443l-166.8316 28.345c-1.7349.295-2.7771 1.476-2.3199 2.631l10.0328 25.285c.9683 2.436 2.8108 3.851 4.6197 3.543z" fill="#efebe4"/><path d="m212.931 250.119-72.355 12.274c-.321.082-.659.07-.973-.036s-.59-.301-.795-.561l-11.082-18.119c-.175-.369.242-.758.921-.872l68.407-11.824c.313-.064.635-.059.945.014s.6.212.851.409l14.76 17.716c.383.422.067.872-.679.999z" fill="#efebe4"/><path d="m224.759 173.352-168.9166 27.882-10.5775-111.2331 169.3541-27.3586z" fill="#fff"/><path d="m215.842 101.972-161.9766 27.03-1.755-17.809 161.9836-27.0236z" fill="#edede6"/><path d="m218.989 137.431-161.9766 27.023-1.7484-17.803 161.977-27.023z" fill="#edede6"/><path d="m222.123 172.238-161.9838 27.023-1.7483-17.81 161.9771-27.023z" fill="#edede6"/><path d="m76.3451 103.707c2.6555-1.951 3.2031-5.708 1.2233-8.3907-1.9798-2.6828-5.7375-3.2755-8.3929-1.324-2.6554 1.9516-3.2031 5.7084-1.2233 8.3917 1.9799 2.682 5.7375 3.275 8.3929 1.323z" fill="#edede6"/><path d="m102.584 92.6985-15.3253 2.456c-.3339.0506-.6743-.0313-.9483-.2283-.2741-.1969-.4599-.4932-.5176-.8252v-.0873c-.028-.1634-.0233-.3308.0136-.4925s.1054-.3146.2016-.4498c.0962-.1353.2182-.2503.3589-.3384.1408-.0882.2976-.1478.4615-.1754l15.3246-2.4561c.334-.0506.675.0314.949.2283.274.197.459.4932.517.8253v.0872c.029.1636.025.3313-.011.4933-.037.1621-.105.3152-.202.4507-.096.1355-.218.2505-.36.3384-.141.0879-.298.147-.462.1738z" fill="#edede6"/><path d="m137.167 87.1221-29.13 4.6973c-.332.0524-.672-.0281-.945-.2241s-.458-.4917-.514-.8227v-.0873c-.028-.1634-.024-.3308.013-.4925s.106-.3146.202-.4498c.096-.1353.218-.2503.359-.3384.141-.0882.298-.1478.461-.1754l29.13-4.6974c.334-.0506.675.0314.949.2283.274.197.46.4932.517.8253v.0872c.028.1636.023.331-.014.4927-.038.1616-.107.3143-.204.4491s-.219.2491-.361.3362c-.141.0871-.299.1454-.463.1715z" fill="#edede6"/><path d="m161.227 86.1423-15.325 2.4561c-.334.0506-.674-.0314-.948-.2283-.274-.197-.46-.4932-.518-.8253v-.0872c-.029-.1631-.025-.3303.011-.492.036-.1616.104-.3146.2-.4499.095-.1354.217-.2505.357-.3388.141-.0883.297-.1479.461-.1755l15.318-2.4292c.333-.0525.674.0278.948.2237s.46.4915.518.8232v.0872c.051.3251-.027.6572-.218.9255s-.48.4515-.804.5105z" fill="#edede6"/><path d="m195.817 80.5659-29.13 4.6974c-.334.0506-.674-.0314-.948-.2283-.274-.197-.46-.4932-.518-.8253v-.0872c-.029-.1631-.025-.3303.011-.492.036-.1616.104-.3146.2-.4499.095-.1354.217-.2506.357-.3388.141-.0883.297-.1479.461-.1755l29.13-4.6973c.334-.0524.676.0288.95.2261.274.1972.46.4946.516.8274v.0873c.057.3291-.02.6673-.213.9403-.193.2729-.486.4585-.816.5158z" fill="#edede6"/><path d="m103.269 98.1608-15.3379 2.4562c-.3331.05-.6727-.032-.9457-.229-.2729-.197-.4574-.4933-.5135-.8248v-.0872c-.028-.1635-.0234-.3309.0136-.4926.0369-.1617.1054-.3145.2016-.4498.0962-.1352.2181-.2502.3589-.3384.1408-.0881.2976-.1477.4614-.1754l15.3246-2.456c.334-.0506.675.0314.949.2283.274.197.459.4932.517.8253v.0872c.029.1631.025.3303-.011.492-.036.1616-.104.3145-.199.4499-.096.1354-.217.2505-.358.3388-.14.0882-.297.1479-.461.1755z" fill="#edede6"/><path d="m123.98 94.8324-15.257 2.4225c-.333.0525-.674-.0279-.948-.2237-.274-.1959-.46-.4916-.518-.8232v-.0872c-.03-.1632-.027-.3307.009-.4927s.103-.3153.199-.4509.218-.2507.359-.3387c.141-.0881.298-.1472.462-.1739l15.257-2.4292c.334-.0506.675.0314.949.2283.274.197.46.4932.517.8253v.0872c.029.1631.026.3303-.011.492-.036.1616-.104.3146-.199.4499-.096.1354-.217.2505-.358.3388-.14.0883-.297.1479-.461.1755z" fill="#edede6"/><path d="m78.0059 121.244c2.6554-1.951 3.2031-5.708 1.2233-8.391-1.9799-2.683-5.7375-3.276-8.3929-1.324s-3.2031 5.708-1.2233 8.391 5.7375 3.276 8.3929 1.324z" fill="#fff"/><path d="m104.244 110.24-15.3244 2.456c-.3339.05-.6744-.032-.9484-.229s-.4598-.493-.5176-.825v-.087c-.0288-.164-.0249-.331.0117-.493.0365-.162.1049-.316.2013-.451.0963-.136.2186-.251.3598-.339.1412-.087.2985-.147.4628-.173l15.3248-2.456c.334-.051.674.031.948.228s.46.493.518.825v.087c.028.164.023.331-.014.493s-.105.315-.201.45-.218.25-.359.338-.298.148-.462.176z" fill="#fff"/><path d="m138.828 104.663-29.13 4.698c-.334.05-.674-.032-.948-.229s-.46-.493-.518-.825v-.087c-.029-.164-.025-.331.012-.493.036-.163.105-.316.201-.451.096-.136.219-.251.36-.339.141-.087.298-.147.463-.173l29.13-4.698c.334-.05.674.032.948.229s.46.493.518.825v.087c.028.164.023.331-.014.493-.037.161-.105.314-.202.449-.096.136-.218.251-.358.339-.141.088-.298.148-.462.175z" fill="#fff"/><path d="m162.895 103.704-15.325 2.456c-.334.052-.676-.029-.95-.226-.275-.198-.46-.495-.516-.828v-.087c-.028-.163-.023-.33.014-.491.037-.162.105-.314.202-.449.096-.134.218-.249.358-.336.141-.088.298-.147.461-.174l15.325-2.456c.333-.05.673.031.947.226.273.196.46.49.519.821v.087c.03.164.027.332-.009.495-.037.162-.105.315-.201.451-.097.136-.22.251-.361.339-.142.087-.3.146-.464.172z" fill="#fff"/><path d="m197.478 98.1071-29.13 4.6969c-.334.051-.674-.031-.948-.228s-.46-.493-.518-.825v-.087c-.029-.163-.025-.331.011-.492.036-.162.104-.315.2-.45.095-.136.217-.251.357-.339.141-.088.297-.148.461-.176l29.13-4.6968c.334-.0506.674.0313.948.2283.274.1969.46.4932.518.8252v.0872c.03.1632.027.3307-.009.4927-.036.1621-.103.3153-.199.4509s-.218.2508-.359.3388-.298.1471-.462.1738z" fill="#fff"/><path d="m104.924 115.702-15.3252 2.456c-.3309.051-.6688-.028-.9423-.221s-.4613-.484-.5236-.812v-.088c-.028-.163-.0234-.331.0136-.492.0369-.162.1054-.315.2016-.45s.2181-.25.3589-.338c.1408-.089.2976-.148.4614-.176l15.3116-2.483c.334-.05.674.032.948.229s.46.493.518.825v.087c.03.163.027.331-.008.493s-.102.315-.198.451c-.095.136-.216.252-.356.341s-.297.15-.46.178z" fill="#fff"/><path d="m125.635 112.374-15.258 2.422c-.332.052-.672-.028-.945-.224s-.458-.492-.514-.823v-.087c-.028-.163-.023-.331.014-.493.036-.161.105-.314.201-.449.096-.136.218-.251.359-.339s.298-.148.461-.175l15.258-2.429c.334-.051.674.031.948.228s.46.493.518.825v.087c.029.164.025.333-.012.495s-.106.316-.203.451c-.097.136-.22.251-.362.339-.142.087-.3.146-.465.172z" fill="#fff"/><path d="m79.6668 138.788c2.6554-1.952 3.2031-5.709 1.2232-8.392-1.9798-2.682-5.7374-3.275-8.3928-1.324-2.6555 1.952-3.2031 5.709-1.2233 8.392 1.9798 2.682 5.7374 3.275 8.3929 1.324z" fill="#edede6"/><path d="m105.905 127.781-15.3245 2.456c-.3338.05-.6743-.032-.9483-.229-.2741-.196-.4599-.493-.5176-.825v-.087c-.0289-.163-.0252-.33.0109-.492s.104-.315.1996-.45.2172-.25.3577-.339c.1404-.088.297-.148.4606-.175l15.3316-2.456c.333-.051.673.032.946.229s.457.493.513.824v.088c.057.329-.02.667-.213.94-.192.273-.486.458-.816.516z" fill="#edede6"/><path d="m140.489 122.204-29.13 4.698c-.334.05-.674-.032-.948-.229s-.46-.493-.518-.825v-.087c-.03-.164-.027-.332.01-.494.036-.163.104-.316.201-.452.096-.135.219-.25.36-.338.142-.088.3-.146.465-.172l29.13-4.698c.333-.05.672.032.945.229s.458.493.514.825v.087c.056.329-.02.668-.213.941-.193.272-.486.458-.816.515z" fill="#edede6"/><path d="m164.549 121.225-15.325 2.456c-.333.05-.673-.031-.946-.226-.274-.196-.461-.49-.52-.821v-.094c-.028-.163-.023-.33.014-.491.037-.162.105-.314.202-.449.096-.135.218-.249.359-.336.14-.088.297-.147.46-.174l15.325-2.456c.333-.05.673.031.947.226.274.196.46.49.519.821v.087c.03.164.027.332-.009.495-.036.162-.105.315-.201.451-.097.136-.219.251-.361.339-.142.087-.3.146-.464.172z" fill="#edede6"/><path d="m199.132 115.648-29.13 4.698c-.333.05-.672-.032-.945-.229s-.458-.493-.514-.825v-.087c-.028-.164-.023-.331.014-.493.037-.161.105-.314.201-.45.096-.135.218-.25.359-.338s.298-.148.462-.175l29.13-4.698c.333-.05.672.031.946.226.274.196.46.49.52.821v.087c.03.165.028.334-.009.498-.036.163-.104.318-.202.454-.097.137-.221.253-.364.34-.143.088-.302.146-.468.171z" fill="#edede6"/><path d="m106.585 133.23-15.2917 2.469c-.3338.051-.6743-.031-.9483-.228-.2741-.197-.4598-.493-.5176-.825v-.088c-.0289-.163-.0249-.331.0116-.493.0366-.162.105-.315.2013-.451.0964-.135.2187-.25.3599-.338s.2985-.147.4628-.174l15.325-2.456c.334-.05.674.032.948.229.274.196.46.493.518.825v.087c.025.165.018.333-.022.495s-.112.315-.211.449-.225.248-.368.333c-.144.086-.303.142-.468.166z" fill="#edede6"/><path d="m127.296 129.915-15.258 2.422c-.333.051-.672-.03-.946-.226-.274-.195-.461-.49-.52-.821v-.087c-.029-.163-.025-.331.012-.493.036-.162.105-.315.201-.451.096-.135.219-.25.36-.338s.298-.147.463-.174l15.257-2.429c.334-.051.675.031.949.228s.46.493.517.825v.088c.028.163.024.33-.013.492s-.106.315-.202.45-.218.25-.359.338-.297.148-.461.176z" fill="#edede6"/><path d="m81.3343 156.324c2.6554-1.951 3.2031-5.708 1.2232-8.391-1.9798-2.683-5.7374-3.275-8.3928-1.324-2.6555 1.952-3.2032 5.709-1.2233 8.391 1.9798 2.683 5.7374 3.276 8.3929 1.324z" fill="#fff"/><path d="m107.566 145.309-15.3245 2.456c-.3341.052-.6755-.029-.9499-.227-.2745-.197-.4599-.494-.516-.827v-.087c-.028-.164-.0234-.331.0136-.493.0369-.161.1054-.314.2016-.45.0962-.135.2181-.25.3589-.338s.2976-.148.4614-.175l15.3249-2.456c.334-.051.674.031.948.228s.46.493.518.825v.087c.03.164.026.332-.01.494-.036.163-.104.316-.201.452-.096.136-.219.251-.36.338-.142.088-.3.147-.465.173z" fill="#fff"/><path d="m142.15 139.746-29.13 4.697c-.334.051-.674-.031-.948-.228-.275-.197-.46-.494-.518-.826v-.087c-.03-.163-.027-.331.009-.493s.103-.315.199-.45c.096-.136.218-.251.359-.339s.298-.147.462-.174l29.13-4.697c.334-.051.674.031.948.228s.46.493.518.825v.087c.029.164.025.331-.011.492-.036.162-.104.315-.2.45-.095.136-.217.251-.357.339-.141.088-.297.148-.461.176z" fill="#fff"/><path d="m166.21 138.766-15.325 2.456c-.333.051-.673-.03-.947-.226-.273-.196-.46-.49-.519-.821v-.094c-.029-.163-.025-.33.012-.492.036-.162.105-.314.201-.449.097-.135.219-.25.36-.337s.298-.145.462-.171l15.325-2.456c.333-.051.673.03.947.225.274.196.46.491.519.821v.094c.028.163.023.33-.014.492-.037.161-.105.313-.201.448-.097.135-.219.249-.359.337-.141.087-.298.146-.461.173z" fill="#fff"/><path d="m200.793 133.189-29.13 4.698c-.334.05-.674-.032-.948-.229s-.46-.493-.518-.825v-.087c-.028-.164-.023-.331.014-.493.037-.161.105-.314.201-.449.097-.136.219-.251.359-.339.141-.088.298-.148.462-.175l29.13-4.698c.333-.05.672.031.946.226.274.196.46.491.52.821v.088c.03.164.026.332-.01.495s-.104.317-.2.453c-.097.136-.219.252-.361.34s-.3.148-.465.174z" fill="#fff"/><path d="m108.245 150.784-15.3244 2.456c-.3339.051-.6743-.031-.9484-.228-.274-.197-.4598-.493-.5175-.825v-.087c-.0289-.164-.0253-.331.0109-.492.0361-.162.1039-.315.1996-.45.0956-.136.2172-.251.3576-.339.1405-.088.2971-.148.4607-.176l15.3315-2.456c.333-.05.673.032.946.229s.457.493.513.825v.087c.057.329-.02.667-.212.94-.193.273-.487.459-.817.516z" fill="#fff"/><path d="m128.95 147.456-15.258 2.429c-.334.051-.674-.031-.948-.228s-.46-.493-.518-.825v-.088c-.029-.163-.026-.331.01-.494.036-.162.104-.316.201-.451.096-.136.219-.251.361-.339.141-.087.299-.146.464-.172l15.258-2.429c.333-.051.672.032.945.229s.458.493.514.825v.087c.056.329-.02.667-.213.94s-.486.459-.816.516z" fill="#fff"/><path d="m82.9897 173.872c2.6554-1.952 3.2031-5.709 1.2232-8.392-1.9798-2.682-5.7374-3.275-8.3929-1.323-2.6554 1.951-3.2031 5.708-1.2232 8.391 1.9798 2.682 5.7374 3.275 8.3929 1.324z" fill="#edede6"/><path d="m109.221 162.863-15.3253 2.456c-.3334.052-.6739-.029-.9473-.226-.2734-.198-.4574-.495-.5119-.827v-.088c-.028-.163-.0234-.33.0136-.492.0369-.162.1054-.315.2016-.45s.2181-.25.3589-.338c.1408-.089.2976-.148.4614-.176l15.305-2.456c.334-.05.674.032.948.228.274.197.46.494.518.826v.087c.03.163.027.33-.008.491-.036.162-.103.315-.198.45-.095.136-.216.251-.356.34-.141.088-.297.148-.46.175z" fill="#edede6"/><path d="m143.811 157.287-29.13 4.697c-.334.053-.676-.029-.95-.226-.275-.197-.46-.495-.516-.827v-.088c-.028-.163-.024-.331.013-.492.037-.162.106-.315.202-.45s.218-.25.359-.338c.141-.089.297-.148.461-.176l29.13-4.697c.334-.051.675.031.949.228s.46.493.517.825v.088c.03.163.027.331-.009.494-.036.162-.105.316-.201.451-.097.136-.219.251-.361.339-.142.087-.3.146-.464.172z" fill="#edede6"/><path d="m167.871 156.307-15.325 2.456c-.333.051-.673-.03-.947-.226-.273-.195-.46-.49-.519-.821v-.087c-.03-.163-.027-.331.009-.493.035-.162.103-.315.199-.451.096-.135.218-.25.359-.338s.298-.147.462-.174l15.331-2.456c.333-.053.672.028.945.224.274.196.458.492.514.823v.094c.028.162.024.329-.013.49-.036.16-.104.313-.2.447-.095.135-.217.249-.357.337-.139.088-.295.147-.458.175z" fill="#edede6"/><path d="m202.454 150.731-29.13 4.697c-.334.051-.674-.031-.948-.228s-.46-.494-.518-.826v-.087c-.029-.163-.025-.331.012-.493.036-.162.105-.315.201-.451.096-.135.219-.25.36-.338s.298-.147.463-.174l29.13-4.697c.332-.053.672.028.945.224s.458.491.514.823v.087c.029.163.025.331-.011.493s-.104.315-.199.451c-.096.136-.217.252-.358.341-.14.089-.297.149-.461.178z" fill="#edede6"/><path d="m109.906 168.325-15.3244 2.483c-.3341.053-.6755-.028-.95-.226-.2744-.197-.4598-.494-.5159-.827v-.087c-.028-.164-.0234-.331.0136-.493.0369-.162.1054-.315.2016-.45s.2181-.25.3589-.338.2976-.148.4614-.176l15.2978-2.482c.334-.051.675.031.949.228s.459.493.517.825v.087c.03.162.028.328-.007.489-.034.161-.1.313-.194.449-.094.135-.213.251-.352.34-.138.089-.293.149-.456.178z" fill="#edede6"/><path d="m130.618 164.997-15.258 2.456c-.334.051-.674-.031-.948-.228s-.46-.493-.518-.825v-.088c-.03-.163-.027-.33.009-.492s.103-.316.199-.451c.096-.136.218-.251.359-.339s.298-.147.462-.174l15.257-2.429c.326-.052.659.023.93.209.272.186.461.469.53.791v.087c.033.165.032.334-.002.499-.033.164-.1.32-.195.458-.096.138-.218.256-.359.347-.142.09-.301.151-.466.179z" fill="#edede6"/><path d="m84.6504 191.408c2.6555-1.951 3.2031-5.708 1.2233-8.391s-5.7375-3.275-8.3929-1.324c-2.6554 1.952-3.2031 5.709-1.2233 8.391 1.9799 2.683 5.7375 3.276 8.3929 1.324z" fill="#fff"/><path d="m110.881 180.404-15.3244 2.483c-.3339.051-.6744-.031-.9484-.228s-.4598-.493-.5175-.825v-.088c-.028-.163-.0234-.33.0135-.492.037-.162.1055-.315.2017-.45.0961-.135.2181-.25.3589-.338.1407-.089.2975-.148.4614-.176l15.3248-2.449c.333-.051.673.03.946.226.274.195.461.49.52.821v.087c.051.326-.03.659-.224.927-.194.267-.485.448-.812.502z" fill="#fff"/><path d="m145.465 174.835-29.13 4.697c-.334.051-.674-.031-.948-.228s-.46-.494-.518-.826v-.087c-.028-.163-.023-.331.014-.492.036-.162.105-.315.201-.45s.218-.25.359-.339c.141-.088.298-.147.462-.175l29.13-4.697c.333-.051.674.031.948.228s.46.493.517.825v.087c.029.164.025.332-.011.494-.037.162-.105.315-.201.45-.097.136-.219.251-.36.339-.142.088-.299.147-.463.174z" fill="#fff"/><path d="m169.532 173.855-15.325 2.449c-.333.053-.674-.028-.948-.223-.274-.196-.461-.492-.518-.824v-.087c-.03-.163-.027-.331.009-.493.035-.162.103-.315.199-.45.096-.136.218-.251.359-.339s.298-.147.462-.174l15.325-2.456c.334-.052.675.029.949.226.275.197.46.495.516.827v.088c.029.163.026.33-.01.492-.037.161-.104.314-.2.45-.096.135-.217.25-.358.338-.14.089-.297.148-.46.176z" fill="#fff"/><path d="m204.115 168.272-29.13 4.697c-.334.051-.674-.031-.948-.228s-.46-.493-.518-.825v-.088c-.029-.163-.025-.33.011-.492.036-.161.104-.314.2-.45.095-.135.217-.25.357-.338.141-.089.297-.148.461-.176l29.13-4.697c.333-.053.674.028.948.224.274.195.46.491.518.823v.094c.03.163.027.33-.009.492s-.103.316-.199.451c-.096.136-.218.251-.359.339s-.298.147-.462.174z" fill="#fff"/><path d="m111.567 185.867-15.3312 2.456c-.3334.052-.6739-.029-.9473-.227-.2734-.197-.4574-.495-.5119-.827v-.087c-.028-.164-.0234-.331.0136-.493.0369-.161.1054-.314.2016-.449.0962-.136.2181-.251.3589-.339s.2976-.148.4614-.175l15.3249-2.456c.334-.051.674.031.948.228s.46.493.518.825v.088c.03.163.026.331-.01.494-.036.162-.104.315-.201.451-.096.136-.219.251-.361.339-.141.087-.299.146-.464.172z" fill="#fff"/><path d="m132.312 182.538-15.258 2.429c-.334.053-.675-.028-.949-.226-.275-.197-.46-.494-.516-.827v-.087c-.028-.164-.024-.331.013-.493s.106-.314.202-.45c.096-.135.218-.25.359-.338.14-.088.297-.148.461-.175l15.258-2.43c.334-.05.674.032.948.229s.46.493.518.825v.087c.029.164.025.331-.012.493-.036.162-.105.316-.201.451-.097.136-.219.251-.36.338-.141.088-.299.147-.463.174z" fill="#fff"/><path d="m350.996 159.629c10.45 5.945 10.086 15.695-.733 21.789-10.82 6.093-28.115 6.207-38.558.261-10.443-5.945-10.086-15.702.733-21.789 10.82-6.086 28.115-6.207 38.558-.261z" fill="#1d1d1b" stroke="#1d1d1b" stroke-linecap="round" stroke-linejoin="round" stroke-width=".5"/><path d="m345.334 110.75s11.257-3.892 16.441-3.255c5.185.638 10.719 5.677 7.397 18.212-2.777 10.489-7.31 18.461-15.137 28.386-7.464 9.455-17.624 18.923-17.624 18.923s5.285-23.164 10.187-24.594c3.712-1.1 9.219-9.153 12.823-15.863 4.035-7.415 3.78-14.985 3.47-16.105-.719-2.618-2.017-3.416-6.307-1.181-3.618 1.872-7.115 6.777-8.634 7.723-.616.368-1.153.854-1.58 1.43s-.736 1.23-.908 1.925z" fill="#fff" stroke="#000" stroke-linecap="round" stroke-linejoin="round" stroke-width=".5"/><path d="m355.172 110.354c.753-4.637-1.903-9.361-8.07-12.8576-11.216-6.3816-29.748-6.2608-41.402.2819-6.193 3.4757-8.862 7.9917-8.627 12.4877v1.859l6.482 59.502h.034c-.101 3.234 1.977 6.455 6.26 8.891 8.587 4.892 22.789 4.798 31.713-.214 4.592-2.577 6.892-5.953 6.865-9.288l6.792-60.662z" fill="#fff" stroke="#000" stroke-linecap="round" stroke-linejoin="round" stroke-width=".5"/><path d="m347.116 96.8791c11.216 6.3819 10.866 16.8569-.787 23.3929s-30.186 6.663-41.402.282c-11.216-6.382-10.86-16.857.787-23.3931 11.646-6.536 30.186-6.6635 41.402-.2818z" fill="#fff" stroke="#1d1d1b" stroke-linecap="round" stroke-linejoin="round" stroke-width=".5"/><path d="m345.67 97.6642c10.443 5.9458 10.087 15.6958-.733 21.7888-10.819 6.093-28.115 6.207-38.557.262-10.443-5.946-10.087-15.703.732-21.7891 10.82-6.0864 28.108-6.1803 38.558-.2617z" fill="#e4ddce" stroke="#000" stroke-linecap="round" stroke-linejoin="round" stroke-width=".5"/><path d="m343.545 120.03c-5.016 2.812-11.499 4.026-17.947 4.094-6.247.047-12.454-1.02-17.235-3.591.761-.596 1.566-1.134 2.408-1.61 8.829-4.952 22.862-5.046 31.362-.208.595.34 1.17.714 1.721 1.121-.107.06-.201.127-.309.194z" fill="#0c1417"/><path d="m365.736 119.634s-1.56-6.079-5.272-5.623" stroke="#000" stroke-linecap="round" stroke-linejoin="round" stroke-width=".5"/><path d="m194.291 275.659 14.249 3.785 4.155-12.891" fill="#f7ad7c"/><path d="m194.291 275.659 14.249 3.785 4.155-12.891" stroke="#000" stroke-linecap="round" stroke-linejoin="round" stroke-width=".5"/><path d="m319.284 295.549s-59.794-26.251-63.6-33.935c-3.806-7.683-16.521-35.095-22.19-44.678-4.922-8.381-12.42-14.508-16.455-14.991-4.034-.483-32.828.49-34.415.617-1.587.128-7.397 1.772-7.397 1.772l28.848 71.01c.807 2.288 1.183 4.543 8.741 13.361 5.434 6.361 16.415 8.864 18.99 9.783 6.052 2.168 45.39 26.842 45.39 26.842" fill="#f7ad7c"/><path d="m319.284 295.549s-59.794-26.251-63.6-33.935c-3.806-7.683-16.521-35.095-22.19-44.678-4.922-8.381-12.42-14.508-16.455-14.991-4.034-.483-32.828.49-34.415.617-1.587.128-7.397 1.772-7.397 1.772l28.848 71.01c.807 2.288 1.183 4.543 8.741 13.361 5.434 6.361 16.415 8.864 18.99 9.783 6.052 2.168 45.39 26.842 45.39 26.842" stroke="#000" stroke-linecap="round" stroke-linejoin="round" stroke-width=".5"/><path d="m178.408 260.99s-1.399 1.852-2.804 3.805c-1.406 1.953-.35 6.885 2.743 8.435s10.901 4.865 14.236 4.422c3.335-.442 12.494-3.878 13.966-7.643 1.473-3.764-7.551-9.334-7.551-9.334" fill="#f7ad7c"/><path d="m178.408 260.99s-1.399 1.852-2.804 3.805c-1.406 1.953-.35 6.885 2.743 8.435s10.901 4.865 14.236 4.422c3.335-.442 12.494-3.878 13.966-7.643 1.473-3.764-7.551-9.334-7.551-9.334" stroke="#000" stroke-linecap="round" stroke-linejoin="round" stroke-width=".5"/><path d="m201.351 264.285s-2.824 1.819-3.12 3.201 1.13 3.503 2.266 3.986c1.137.483 6.052-2.402 6.153-2.912" fill="#f7ad7c"/><path d="m201.351 264.285s-2.824 1.819-3.12 3.201 1.13 3.503 2.266 3.986c1.137.483 6.052-2.402 6.153-2.912" stroke="#000" stroke-linecap="round" stroke-linejoin="round" stroke-width=".5"/><path d="m189.994 228.116c17.988-7.999-32.909-.987-33.118.671-.249 1.973-1.573 5.422-.618 8.213.672 2.014 4.908 8.818 6.825 11.247 1.916 2.429 2.69 4.617 8.473 5.509 10.469 1.624 16.037 3.604 18.028 3.141l7.296-4.026s.786-17.448-2.495-15.387c-1.513.946 9.28-11.019 3.577-10.288" fill="#f7ad7c"/><path d="m189.994 228.116c17.988-7.999-32.909-.987-33.118.671-.249 1.973-1.573 5.422-.618 8.213.672 2.014 4.908 8.818 6.825 11.247 1.916 2.429 2.69 4.617 8.473 5.509 10.469 1.624 16.037 3.604 18.028 3.141l7.296-4.026s.786-17.448-2.495-15.387c-1.513.946 9.28-11.019 3.577-10.288" stroke="#000" stroke-linecap="round" stroke-linejoin="round" stroke-width=".5"/><path d="m158.813 241.02s2.965-3.167 5.534-3.932c1.56-.44 3.192-.568 4.801-.376l-5.231-8.69-6.778 4.133z" fill="#000"/><path d="m154.502 212.93s-5.816 5.69-6.435 12.226c-.47 4.993-2.602 14.69-2.69 16.575-.107 2.684 5.615 7.664 10.632 2.684 5.016-4.979 7.699-13.548 7.699-13.548l2.488-7.381" fill="#f7ad7c"/><path d="m154.502 212.93s-5.816 5.69-6.435 12.226c-.47 4.993-2.602 14.69-2.69 16.575-.107 2.684 5.615 7.664 10.632 2.684 5.016-4.979 7.699-13.548 7.699-13.548l2.488-7.381" stroke="#000" stroke-linecap="round" stroke-linejoin="round" stroke-width=".5"/><path d="m158.887 146.557c-10.134-21.769-36.608-32.398-59.121-23.749-22.5132 8.65-32.5527 33.318-22.4191 55.087 10.1337 21.768 36.6071 32.398 59.1211 23.781 22.513-8.616 32.552-33.351 22.419-55.119z" fill="#007ff5" stroke="#000" stroke-linecap="round" stroke-linejoin="round" stroke-width=".5"/><path d="m154.194 182.043c12.577-17.231 7.798-42.085-10.675-55.512-18.473-13.428-43.6446-10.345-56.2217 6.886-12.577 17.231-7.7974 42.085 10.6758 55.513 18.4729 13.428 43.6439 10.345 56.2209-6.887z" fill="#fff" stroke="#000" stroke-linecap="round" stroke-linejoin="round" stroke-width=".501049"/><path d="m125.286 168.427c4.276-9.8.171-21.034-9.169-25.093-9.34-4.058-20.3775.596-24.6535 10.395-4.276 9.8-.1709 21.034 9.1685 25.093 9.34 4.058 20.378-.596 24.654-10.395z" fill="#edede6"/><path d="m160.319 145.785-19.628 3.805c-.509.098-1.032.09-1.538-.021-.505-.111-.983-.325-1.403-.627s-.774-.687-1.039-1.131c-.266-.443-.438-.937-.505-1.449l-.041-.282c-.154-1.06.101-2.139.712-3.019s1.534-1.497 2.583-1.725l15.621-3.02c2.111-.389 7.377 7.053 5.238 7.469z" fill="#edede6"/><path d="m162.827 163.058-20.368 3.939c-.508.096-1.031.088-1.537-.024-.505-.112-.982-.326-1.401-.629-.42-.303-.773-.688-1.037-1.132-.265-.444-.436-.937-.503-1.45l-.041-.275c-.155-1.061.098-2.141.71-3.023.611-.882 1.535-1.5 2.585-1.728l19.824-3.832c2.138-.416 3.907 7.738 1.768 8.154z" fill="#edede6"/><path d="m118.191 157.233c1.009 6.039-2.824 13.045-8.426 14.367-5.601 1.322-11.5388-3.134-12.5475-9.18-1.0086-6.046 3.3015-11.408 8.9035-12.75 5.601-1.342 11.034 1.517 12.07 7.563z" fill="#000" stroke="#000" stroke-linecap="round" stroke-linejoin="round" stroke-width=".5"/><path d="m117.888 177.217c-1.261-.795-2.211-1.999-2.689-3.409-.377-1.456-1.386-5.858-1.386-5.858l-8.842 2.08s.477 4.529.598 6.039c.057 1.405-.389 2.785-1.257 3.892" fill="#ffe0b3"/><path d="m117.888 177.217c-1.261-.795-2.211-1.999-2.689-3.409-.377-1.456-1.386-5.858-1.386-5.858l-8.842 2.08s.477 4.529.598 6.039c.057 1.405-.389 2.785-1.257 3.892" stroke="#000" stroke-linecap="round" stroke-linejoin="round" stroke-width=".5"/><path d="m115.461 158.112-.155.04-.215-1.436c-.726-4.341-4.317-6.891-8.661-5.871-2.037.463-3.814 1.697-4.958 3.442s-1.5648 3.864-1.175 5.912l.269 1.443c-.093.009-.185.025-.275.047-1.2511.295-1.9505 1.745-1.7017 3.275.2488 1.529 1.392 2.684 2.6497 2.409.197-.049.385-.128.558-.235.568 1.528 1.506 2.892 2.73 3.972.739.673 1.623 1.168 2.583 1.447.961.279 1.972.335 2.958.164 1.003-.32 1.93-.842 2.723-1.535.792-.693 1.433-1.541 1.883-2.491.772-1.517 1.199-3.185 1.251-4.886.16.01.321-.004.477-.04 1.258-.295 2.018-1.926 1.789-3.456s-1.479-2.496-2.73-2.201z" fill="#ffe0b3" stroke="#000" stroke-linecap="round" stroke-linejoin="round" stroke-width=".5"/><path d="m106.273 164.7c1.186-1.155 1.276-2.981.202-4.079-1.073-1.098-2.905-1.052-4.09.102-1.186 1.155-1.276 2.981-.202 4.079 1.073 1.098 2.905 1.052 4.09-.102z" fill="#fff" stroke="#000" stroke-linecap="round" stroke-linejoin="round" stroke-width=".5"/><path d="m114.245 162.821c1.186-1.155 1.276-2.981.202-4.079-1.073-1.098-2.905-1.052-4.09.102-1.186 1.155-1.276 2.981-.202 4.079 1.073 1.098 2.905 1.052 4.09-.102z" fill="#fff" stroke="#000" stroke-linecap="round" stroke-linejoin="round" stroke-width=".5"/><path d="m107.19 162.031c.236-.359.601-.615 1.02-.714.419-.098.86-.033 1.232.184" stroke="#000" stroke-linecap="round" stroke-linejoin="round" stroke-width=".5"/><path d="m99.867 160.568s-1.7753-3.785 1.802-4.751c2.192-.597 4.909 1.342 7.989 1.846 1.674.275 5.803.449 5.803.449l-1.89-7.69-8.741-.544-5.7565 6.04z" fill="#000" stroke="#000" stroke-linecap="round" stroke-linejoin="round" stroke-width=".5"/><path d="m112.51 153.737c2.49-2.426 2.68-6.262.423-8.57-2.256-2.308-6.105-2.212-8.595.213s-2.68 6.262-.424 8.57c2.257 2.307 6.105 2.212 8.596-.213z" fill="#000" stroke="#000" stroke-linecap="round" stroke-linejoin="round" stroke-width=".5"/><path d="m114.418 147.188c1.379-1.343 1.484-3.469.234-4.747-1.25-1.279-3.382-1.226-4.762.117-1.379 1.344-1.484 3.469-.234 4.748 1.25 1.278 3.382 1.226 4.762-.118z" fill="#000" stroke="#000" stroke-linecap="round" stroke-linejoin="round" stroke-width=".5"/><path d="m101.669 125.392c20.63-7.932 44.885 1.812 54.172 21.755 3.86 8.106 4.656 17.332 2.239 25.976 2.066-4.831 3.078-10.046 2.968-15.298-.111-5.251-1.34-10.42-3.607-15.16-9.286-19.944-33.541-29.688-54.172-21.756-11.7 4.496-19.7222 13.716-22.7751 24.493 2.0051-4.581 4.9129-8.714 8.5506-12.151 3.6377-3.438 7.931-6.111 12.6245-7.859z" fill="#126bad" stroke="#000" stroke-linecap="round" stroke-linejoin="round" stroke-width=".5"/><path d="m160.857 141.356c-10.14-21.769-36.608-32.405-59.121-23.748-22.513 8.656-32.5525 33.317-22.4189 55.086 10.1337 21.769 36.6079 32.398 59.1209 23.742 22.513-8.657 32.553-33.311 22.419-55.08zm-24.208 51.208c-20.301 7.804-44.1723-1.785-53.3107-21.413-9.1384-19.629-.0874-41.867 20.2137-49.658 20.301-7.791 44.172 1.785 53.311 21.413 9.138 19.628.074 41.853-20.227 49.658z" fill="#007ff5" stroke="#000" stroke-linecap="round" stroke-linejoin="round" stroke-width=".5"/><path d="m200.612 254.689-10.974 8.455-49.895-64.695 6.623-3.812c1.76-1.128 3.457-2.351 5.084-3.664z" fill="#007ff5" stroke="#000" stroke-linecap="round" stroke-linejoin="round" stroke-width=".5"/><path d="m195.913 259.954c3.04-2.336 5.148-4.691 4.709-5.26-.44-.57-3.26.861-6.3 3.197-3.04 2.335-5.148 4.69-4.709 5.26.44.569 3.26-.862 6.3-3.197z" fill="#57baa9" stroke="#000" stroke-linecap="round" stroke-linejoin="round" stroke-width=".5"/><path d="m108.01 165.655c.355.102.728.121 1.091.054.363-.066.705-.216 1-.437" stroke="#000" stroke-linecap="round" stroke-linejoin="round" stroke-width=".5"/><path d="m167.729 252.414c2.018 2.356-.894 3.684 7.061 9.207 7.538 5.234 11.243 4.697 13.967 5.207 2.723.51 16.179-2.308 17.207-3.026 1.029-.718-2.75-9.462-9.73-9.858" fill="#f7ad7c"/><path d="m167.729 252.414c2.018 2.356-.894 3.684 7.061 9.207 7.538 5.234 11.243 4.697 13.967 5.207 2.723.51 16.179-2.308 17.207-3.026 1.029-.718-2.75-9.462-9.73-9.858" stroke="#000" stroke-linecap="round" stroke-linejoin="round" stroke-width=".5"/><path d="m170.264 238.49s16.811 3.235 20.732 7.382c3.92 4.147 3.362 9.287.847 10.542s-24.524-3.919-24.524-3.919" fill="#f7ad7c"/><path d="m170.264 238.49s16.811 3.235 20.732 7.382c3.92 4.147 3.362 9.287.847 10.542s-24.524-3.919-24.524-3.919" stroke="#000" stroke-linecap="round" stroke-linejoin="round" stroke-width=".5"/><path d="m190.606 256.702s-6.953-.208-9.872-.946c-2.918-.738-1.755-2.047-.437-4.348.74-1.295 8.957.141 8.957.141 1.015.167 4.774 4.482 1.352 5.153z" fill="#f7ad7c" stroke="#000" stroke-linecap="round" stroke-linejoin="round" stroke-width=".5"/><path d="m176.928 223.385 2.246-.396-24.806-17.367s-1.647.463-1.378 3.127c.094.973 1.66 3.456 3.611 6.221 2.238 3.184 5.338 5.666 8.938 7.156 3.599 1.491 7.55 1.927 11.389 1.259z" fill="#000" stroke="#000" stroke-linecap="round" stroke-linejoin="round" stroke-width=".5"/><path d="m218.976 221.654s-26.326-7.899-37.576-13.629c-11.25-5.731-23.293-12.032-25.472-11.408-4.398 1.208-7.35 10.274 4.855 19.635 12.649 9.703 23.314 15.736 28.007 20.467 4.694 4.73 3.214 13.233 6.879 21.272 6.792 14.924 24.638 25.312 24.638 25.312" fill="#f7ad7c"/><path d="m218.976 221.654s-26.326-7.899-37.576-13.629c-11.25-5.731-23.293-12.032-25.472-11.408-4.398 1.208-7.35 10.274 4.855 19.635 12.649 9.703 23.314 15.736 28.007 20.467 4.694 4.73 3.214 13.233 6.879 21.272 6.792 14.924 24.638 25.312 24.638 25.312" stroke="#000" stroke-linecap="round" stroke-linejoin="round" stroke-width=".5"/><path d="m168.267 201.603s-1.156.147-3.624 1.832c-2.468 1.684-3.51 3.261-4.6 2.852-1.089-.41-6.368-3.195-7.107-4.134-.74-.94-1.137-2.798 1.345-4.765 2.481-1.966 4.855-.268 7.8 1.215s6.186 3 6.186 3z" fill="#f7ad7c" stroke="#000" stroke-linecap="round" stroke-linejoin="round" stroke-width=".5"/><path d="m107.271 168.252c.769.332 1.627.396 2.437.181.81-.214 1.524-.694 2.027-1.362" stroke="#000" stroke-linecap="round" stroke-linejoin="round" stroke-width=".5"/></g></svg>