<svg width="376" height="336" viewBox="0 0 376 336" fill="none" xmlns="http://www.w3.org/2000/svg">
<g clip-path="url(#clip0_2522_26170)">
<path d="M6.91561 238.343C-13.8628 132.042 9.69951 42.2491 116.846 23.6678C216.212 6.43534 304.019 17.5479 355.084 102.811C402.632 182.216 367.612 286.678 263.7 320.049C159.788 353.42 26.4298 338.188 6.91561 238.343Z" fill="#EDEDE6"/>
<path d="M167.682 68.8092C170.755 67.0577 170.829 64.1991 167.844 62.4409L124.64 36.9747C121.654 35.2166 116.725 35.2031 113.652 36.9747L69.1701 62.2799C66.097 64.0313 66.0231 66.89 69.0087 68.6481L104.258 95.3826C108.34 96.2282 120.127 95.8792 123.201 94.1278L167.682 68.8092Z" fill="black" stroke="black" stroke-width="0.5" stroke-linecap="round" stroke-linejoin="round"/>
<path d="M144.557 65.5345L113.148 77.459C110.075 79.2104 102.947 67.2188 99.9611 65.4606L56.7569 39.9609C53.7712 38.2027 53.8452 35.3508 56.9183 33.5993L101.38 8.28744C104.453 6.53601 109.382 6.54272 112.368 8.28744L155.572 33.7872C158.578 35.5319 147.63 63.7897 144.557 65.5345Z" fill="#007FF5" stroke="black" stroke-width="0.5" stroke-linecap="round" stroke-linejoin="round"/>
<path d="M106.78 9.72345V14.6959" stroke="black" stroke-width="0.5" stroke-linecap="round" stroke-linejoin="round"/>
<path d="M63.8645 55.5493L107.028 30.5125L149.701 55.5157L105.878 80.5793L63.8645 55.5493Z" fill="#F1C9C6" stroke="black" stroke-width="0.5" stroke-linecap="round" stroke-linejoin="round"/>
<path d="M63.8645 53.8381L107.028 28.8013L149.701 53.8113L105.878 78.8682L63.8645 53.8381Z" fill="#F1C9C6" stroke="black" stroke-width="0.5" stroke-linecap="round" stroke-linejoin="round"/>
<path d="M63.8645 52.1336L107.028 27.0969L149.701 52.1001L105.878 77.1637L63.8645 52.1336Z" fill="#BEF0EE" stroke="black" stroke-width="0.5" stroke-linecap="round" stroke-linejoin="round"/>
<path d="M63.8645 49.8856L107.028 24.8489L149.701 49.8521L105.878 74.9157L63.8645 49.8856Z" fill="#F1C9C6" stroke="black" stroke-width="0.5" stroke-linecap="round" stroke-linejoin="round"/>
<path d="M63.8645 48.7113L107.028 23.6746L149.701 48.6778L105.878 73.7414L63.8645 48.7113Z" fill="white" stroke="black" stroke-width="0.5" stroke-linecap="round" stroke-linejoin="round"/>
<path d="M63.8645 47.0001L107.028 21.9634L149.701 46.9666L105.878 72.0302L63.8645 47.0001Z" fill="#F1C9C6" stroke="black" stroke-width="0.5" stroke-linecap="round" stroke-linejoin="round"/>
<path d="M63.8645 45.2957L107.028 20.2522L149.701 45.2621L105.878 70.3257L63.8645 45.2957Z" fill="#F1C9C6" stroke="black" stroke-width="0.5" stroke-linecap="round" stroke-linejoin="round"/>
<path d="M63.8645 43.8999L107.028 18.8631L149.701 43.873L105.878 68.9366L63.8645 43.8999Z" fill="#DBE371" stroke="black" stroke-width="0.5" stroke-linecap="round" stroke-linejoin="round"/>
<path d="M63.8645 41.8733L107.028 16.8365L149.701 41.8398L105.878 66.9034L63.8645 41.8733Z" fill="#E4DDCE" stroke="black" stroke-width="0.5" stroke-linecap="round" stroke-linejoin="round"/>
<path d="M63.8645 39.7394L107.028 14.6959L149.701 39.7058L105.878 64.7695L63.8645 39.7394Z" fill="#F1C9C6" stroke="black" stroke-width="0.5" stroke-linecap="round" stroke-linejoin="round"/>
<path d="M66.5744 39.471L106.289 15.2462L148.498 39.2227L110.606 61.1525C109.223 61.8427 107.694 62.1891 106.149 62.1622C104.603 62.1353 103.087 61.736 101.73 60.9982L63.9452 37.8605" fill="black"/>
<path d="M63.9183 37.8672L75.7196 45.0877C76.5602 45.6111 78.3489 46.1009 80.7764 47.4967C84.0915 49.3891 95.1397 56.9987 96.2425 57.6899C99.6719 59.7836 104.655 60.8841 104.655 60.8841C104.655 60.8841 112.919 59.7836 117.882 56.9451C119.072 56.274 128.52 50.1474 130.819 48.812C133.314 47.3625 136.32 46.2687 138.754 44.8528L147.012 40.0615C147.665 39.7233 148.237 39.2485 148.69 38.6695C149.142 38.0904 149.464 37.4208 149.634 36.7063L145.922 34.8206L106.854 13.2733C102.906 15.5616 74.8589 31.5191 63.9183 37.8672Z" fill="#DFF3AB"/>
<path d="M63.9183 37.8672L75.7196 45.0877C76.5602 45.6111 78.3489 46.1009 80.7764 47.4967C84.0915 49.3891 95.1397 56.9987 96.2425 57.6899C99.6719 59.7836 104.655 60.8841 104.655 60.8841C104.655 60.8841 112.919 59.7836 117.882 56.9451C119.072 56.274 128.52 50.1473 130.819 48.812C133.314 47.3625 136.32 46.2687 138.754 44.8528L147.012 40.0615C147.665 39.7233 148.237 39.2485 148.69 38.6695C149.142 38.0904 149.464 37.4208 149.634 36.7063L145.922 34.8206L106.854 13.2733C102.906 15.5616 74.8589 31.5191 63.9183 37.8672" stroke="black" stroke-width="0.5" stroke-linecap="round" stroke-linejoin="round"/>
<path d="M138.304 46.9129V53.2073C138.304 57.9047 134.632 63.9441 130.14 66.6283C128.291 67.7288 126.583 68.071 125.211 67.7825C126.388 70.3056 129.36 70.8492 132.83 68.8025C137.322 66.1183 140.993 60.1191 140.993 55.3815V48.4832L138.304 46.9129Z" fill="#F5BD61" stroke="black" stroke-width="0.5" stroke-linecap="round" stroke-linejoin="round"/>
<path d="M155.431 38.8939L140.758 47.2484V55.7103C140.758 60.2198 137.248 65.9841 132.951 68.5273C128.654 71.0639 125.137 69.4534 125.137 64.9439V57.4014L110.949 64.2259C107.876 65.9773 102.947 65.9706 99.961 64.2259L56.7568 38.7462C56.3092 38.486 55.8996 38.1653 55.5397 37.7934C54.9144 37.7934 54.5647 36.8807 54.5647 36.8807V65.5345C54.5647 66.6618 55.2909 67.7825 56.7501 68.6414L99.9543 94.1412C102.94 95.8993 107.869 95.9061 110.942 94.1412L155.431 68.8092C155.989 68.5446 156.484 68.1632 156.882 67.6908C157.28 67.2184 157.572 66.6661 157.737 66.0713H157.784V36.8807H157.488C157.02 37.7426 156.303 38.444 155.431 38.8939Z" fill="#F5BD61" stroke="black" stroke-width="0.5" stroke-linecap="round" stroke-linejoin="round"/>
<path d="M155.592 33.7738L112.388 8.27401C109.402 6.51586 104.473 6.50915 101.4 8.27401L56.9183 33.6127C53.8452 35.3642 53.7712 38.2161 56.7569 39.9743L99.9611 65.4741C102.947 67.2322 107.876 67.2389 110.949 65.4741L125.07 57.4215L122.696 55.8781L108.427 64.0179C107.511 64.4845 106.497 64.7277 105.468 64.7277C104.44 64.7277 103.426 64.4845 102.51 64.0179L59.3054 38.5517C57.6983 37.6055 57.7386 36.0688 59.3928 35.1226L103.902 9.75702C104.818 9.29045 105.832 9.04719 106.86 9.04719C107.889 9.04719 108.903 9.29045 109.819 9.75702L153.023 35.2568C154.63 36.203 154.59 37.7397 152.936 38.6859L138.418 46.933L140.892 48.4227L155.431 40.1353C158.537 38.3839 158.578 35.5319 155.592 33.7738Z" fill="#F5BD61" stroke="black" stroke-width="0.5" stroke-linecap="round" stroke-linejoin="round"/>
<path d="M105.334 70.3257V93.2823" stroke="black" stroke-width="0.5" stroke-linecap="round" stroke-linejoin="round"/>
<path d="M280.269 49.53H253.196L234.052 60.5419V76.1236L253.196 87.1355H280.269L299.413 76.1236V60.5419L280.269 49.53Z" fill="black" stroke="black" stroke-width="0.5" stroke-linecap="round" stroke-linejoin="round"/>
<path d="M281.957 57.4148H251.206L229.466 69.9768V87.7394L251.206 100.301H281.957L303.696 87.7394V69.9768L281.957 57.4148Z" fill="black" stroke="black" stroke-width="0.5" stroke-linecap="round" stroke-linejoin="round"/>
<path d="M280.269 20.6481H253.196L234.052 31.8748V47.745L253.196 58.9716H280.269L299.413 47.745V31.8748L280.269 20.6481Z" fill="#4F7E60" stroke="black" stroke-width="0.5" stroke-linecap="round" stroke-linejoin="round"/>
<path d="M253.196 55.2742L250.049 57.1263L253.196 58.9716H280.269L283.422 57.1263L280.269 55.2742H253.196Z" fill="black" stroke="black" stroke-width="0.5" stroke-linecap="round" stroke-linejoin="round"/>
<path d="M299.413 69.1447H272.341L253.196 80.1633V95.7383L280.975 107.039L299.413 106.757L318.557 95.7383V80.1633L299.413 69.1447Z" fill="black"/>
<path d="M282.212 61.2532H251.253V106.945H282.212V61.2532Z" fill="#6AC38B" stroke="black" stroke-width="0.5" stroke-linecap="round" stroke-linejoin="round"/>
<path d="M251.253 106.945L229.466 94.0875V48.3959L251.253 61.2532V106.945Z" fill="#6AC38B" stroke="black" stroke-width="0.5" stroke-linecap="round" stroke-linejoin="round"/>
<path d="M249.451 60.1929L242.76 56.2405L229.466 68.7824V79.0494L249.451 60.1929Z" fill="black"/>
<path d="M229.466 60.2198V65.6485L240.716 55.0326L237.179 52.9456L229.466 60.2198Z" fill="black"/>
<path d="M251.253 80.0828V74.654L229.977 94.1412L233.514 96.2282L251.253 80.0828Z" fill="black"/>
<path d="M282.212 106.945L303.999 94.0875V48.3959L282.212 61.2532V106.945Z" fill="#6AC38B" stroke="black" stroke-width="0.5" stroke-linecap="round" stroke-linejoin="round"/>
<path d="M282.212 94.0003L303.999 73.4394V68.0106L282.212 88.5715V94.0003Z" fill="black"/>
<path d="M282.212 61.2532V72.3322L303.999 51.7713V48.3959L282.212 61.2532Z" fill="black"/>
<path d="M253.196 20.6481V55.2742" stroke="black" stroke-width="0.5" stroke-linecap="round" stroke-linejoin="round"/>
<path d="M280.269 20.6481V55.2742" stroke="black" stroke-width="0.5" stroke-linecap="round" stroke-linejoin="round"/>
<path d="M282.172 18.3666H251.334L229.506 30.9286V48.6778L251.334 61.2532H282.205L304.006 48.6778V30.9286L282.172 18.3666ZM299.42 47.1075L280.249 58.3341H253.203L234.059 47.1075V31.9016L253.203 20.6817H280.249L299.42 31.9016V47.1075Z" fill="#6AC38B" stroke="black" stroke-width="0.5" stroke-linecap="round" stroke-linejoin="round"/>
<path d="M277.021 7.28761L275.763 3.1808C275.373 2.88931 274.908 2.71491 274.422 2.67806C273.936 2.64122 273.45 2.74345 273.02 2.97277L271.157 6.84472C270.704 7.7857 270.433 8.80322 270.357 9.84429L270.149 12.5956L273.652 12.8573L277.155 13.119L277.364 10.3677C277.442 9.32867 277.326 8.28411 277.021 7.28761Z" fill="white" stroke="black" stroke-width="0.5" stroke-linecap="round" stroke-linejoin="round"/>
<path d="M275.763 3.18078L275.286 1.62395C275.237 1.46278 275.14 1.32019 275.008 1.21478C274.876 1.10936 274.716 1.04601 274.547 1.03297C274.379 1.01993 274.21 1.05782 274.064 1.14169C273.917 1.22556 273.8 1.35152 273.726 1.50316L273.02 2.97275C273.45 2.74343 273.936 2.6412 274.422 2.67804C274.908 2.71489 275.373 2.88929 275.763 3.18078Z" fill="black" stroke="black" stroke-width="0.5" stroke-linecap="round" stroke-linejoin="round"/>
<path d="M273.807 10.7838C271.877 10.6361 270.236 11.4548 270.149 12.5956L267.264 58.3342L274.768 58.1932L277.155 13.1123C277.243 11.9715 275.743 10.9314 273.807 10.7838Z" fill="#007FF5" stroke="black" stroke-width="0.5" stroke-linecap="round" stroke-linejoin="round"/>
<path d="M256.088 9.10613L250.843 0.167786L250.049 10.5153" fill="white"/>
<path d="M256.088 9.10613L250.843 0.167786L250.049 10.5153" stroke="#1F1B0A" stroke-width="0.5" stroke-linecap="round" stroke-linejoin="round"/>
<path d="M253.58 8.20696C251.885 8.33446 250.332 9.28734 250.11 10.3342C250.083 10.4783 250.083 10.6262 250.11 10.7704L260.835 58.3342H267.27L256.256 9.41484C256.081 8.623 255.012 8.1063 253.58 8.20696Z" fill="#F5BD61" stroke="black" stroke-width="0.5" stroke-linecap="round" stroke-linejoin="round"/>
<path d="M254.023 8.2002L265.468 58.3341" stroke="black" stroke-width="0.5" stroke-linecap="round" stroke-linejoin="round"/>
<path d="M250.843 0.167786L250.547 4.01289C250.782 3.65529 251.141 3.39713 251.556 3.28816C251.979 3.20945 252.417 3.28065 252.793 3.48947L250.843 0.167786Z" fill="#1F1B0A" stroke="#1F1B0A" stroke-width="0.5" stroke-linecap="round" stroke-linejoin="round"/>
<path d="M251.623 9.039L262.886 58.3341" stroke="#1F1B0A" stroke-width="0.5" stroke-linecap="round" stroke-linejoin="round"/>
<path d="M308.148 130.935L254.232 124.842L240.42 156.334L296.764 162.91L308.148 130.935Z" fill="black" stroke="black" stroke-width="0.5" stroke-linecap="round" stroke-linejoin="round"/>
<path d="M308.148 130.405C294.343 128.801 259.215 124.895 254.239 124.318L241.745 152.106L240.4 154.623C241.836 155.59 243.486 156.193 245.208 156.381L255.631 157.595C258.697 157.958 261.952 157.911 265.099 158.266C268.003 158.609 280.45 160.488 281.95 160.655C288.177 161.326 295.526 159.77 295.526 159.77C295.526 159.77 298.499 157.481 299.42 154.891C299.722 154.039 301.995 145.04 302.997 142.631C303.737 140.866 304.712 139.947 304.941 139.329L308.121 130.398" fill="#F1C9C6"/>
<path d="M308.148 130.405C294.343 128.801 259.215 124.895 254.239 124.318L241.745 152.106L240.4 154.623C241.836 155.59 243.486 156.193 245.208 156.381L255.631 157.595C258.697 157.958 261.952 157.911 265.099 158.266C268.003 158.609 280.45 160.488 281.95 160.655C288.177 161.326 295.526 159.77 295.526 159.77C295.526 159.77 298.499 157.481 299.42 154.891C299.722 154.039 301.995 145.04 302.997 142.631C303.737 140.866 304.712 139.947 304.941 139.329L308.121 130.398" stroke="black" stroke-width="0.5" stroke-linecap="round" stroke-linejoin="round"/>
<path d="M8.63028 189.135L4.86463 187.35C4.57548 187.182 4.66289 186.887 5.05963 186.679L90.9704 144.839C91.1646 144.742 91.3776 144.688 91.5947 144.681C91.8118 144.674 92.0279 144.714 92.2279 144.799L95.9935 146.577C96.2827 146.745 96.1953 147.047 95.7985 147.248L9.88774 189.088C9.6934 189.184 9.48083 189.238 9.26406 189.246C9.0473 189.254 8.83128 189.216 8.63028 189.135Z" fill="black" stroke="black" stroke-width="0.75" stroke-linecap="round" stroke-linejoin="round"/>
<path d="M96.0003 143.624C95.9869 142.647 95.7281 141.689 95.2476 140.838C94.7671 139.987 94.0803 139.27 93.25 138.752C92.9802 138.586 92.6741 138.488 92.3579 138.466C92.0418 138.444 91.7249 138.498 91.4344 138.625L89.1078 139.752L92.5776 146.885L94.9311 145.751C95.2926 145.534 95.5849 145.219 95.7742 144.842C95.9634 144.466 96.0418 144.043 96.0003 143.624Z" fill="#4F4D49" stroke="black" stroke-width="0.75" stroke-linecap="round" stroke-linejoin="round"/>
<path d="M92.6305 146.844C93.8347 146.256 94.0287 144.184 93.0637 142.217C92.0988 140.25 90.3404 139.132 89.1363 139.72C87.9321 140.308 87.7381 142.379 88.7031 144.347C89.668 146.314 91.4264 147.432 92.6305 146.844Z" fill="black"/>
<path d="M94.1981 144.637C94.1807 143.592 93.9022 142.568 93.3879 141.658C92.8736 140.747 92.1397 139.979 91.2529 139.423C90.9642 139.245 90.6364 139.14 90.2978 139.117C89.9592 139.093 89.62 139.153 89.3095 139.289L31.4462 167.279L35.1648 174.915L93.0819 146.919C93.7409 146.597 94.1847 145.792 94.1981 144.637Z" fill="#6AC38B" stroke="black" stroke-width="0.5" stroke-linecap="round" stroke-linejoin="round"/>
<path d="M36.0255 173.197C36.0255 170.969 34.6 168.413 32.7911 167.473C32.4749 167.277 32.1153 167.16 31.7437 167.135C31.3721 167.109 30.9998 167.175 30.6595 167.326L6.6803 178.935L10.762 187.316L34.7681 175.694C35.5212 175.338 36.0054 174.459 36.0255 173.197Z" fill="#6AC38B" stroke="black" stroke-width="0.5" stroke-linecap="round" stroke-linejoin="round"/>
<path d="M10.8593 187.269C12.2736 186.578 12.5016 184.145 11.3685 181.835C10.2354 179.525 8.17034 178.212 6.75603 178.903C5.34172 179.594 5.11373 182.026 6.2468 184.337C7.37988 186.647 9.44494 187.959 10.8593 187.269Z" fill="black"/>
<path d="M11.8244 184.706C11.8119 183.63 11.5289 182.575 11.0014 181.637C10.4738 180.699 9.71865 179.908 8.80514 179.337C8.50585 179.151 8.16519 179.042 7.81332 179.018C7.46145 178.995 7.10922 179.058 6.78782 179.203L4.22583 180.438L8.06545 188.256L10.6543 187.007C11.3537 186.705 11.8109 185.88 11.8244 184.706Z" fill="#4F4D49" stroke="black" stroke-width="0.75" stroke-linecap="round" stroke-linejoin="round"/>
<path d="M8.16132 188.243C9.48557 187.596 9.70011 185.32 8.64051 183.16C7.5809 180.999 5.64841 179.772 4.32416 180.419C2.99991 181.066 2.78537 183.342 3.84497 185.502C4.90458 187.662 6.83707 188.889 8.16132 188.243Z" fill="#75726D" stroke="black" stroke-width="0.75" stroke-linecap="round" stroke-linejoin="round"/>
<path d="M54.8606 282.806L113.02 275.894L127.921 311.614L67.146 319.063L54.8606 282.806Z" fill="black" stroke="black" stroke-width="0.5" stroke-linecap="round" stroke-linejoin="round"/>
<path d="M54.8673 282.202C69.7551 280.377 107.654 275.955 113.027 275.297L126.475 306.803L127.901 309.655C126.369 310.754 124.583 311.446 122.71 311.668L111.466 313.07C108.158 313.473 104.648 313.419 101.252 313.835C98.1186 314.218 84.69 316.345 83.0963 316.52C76.3719 317.311 68.4438 315.52 68.4438 315.52C68.4438 315.52 65.243 312.923 64.2478 309.984C63.9183 309.024 61.4639 298.817 60.3813 296.086C59.5878 294.073 58.5321 293.066 58.29 292.342L54.8673 282.202Z" fill="#F5BD61" stroke="black" stroke-width="0.5" stroke-linecap="round" stroke-linejoin="round"/>
<path d="M105.811 290.563C108.119 292.357 109.986 294.652 111.271 297.274C111.313 297.355 111.325 297.449 111.304 297.538C111.284 297.627 111.233 297.706 111.16 297.761C111.087 297.816 110.997 297.844 110.905 297.84C110.814 297.835 110.727 297.799 110.66 297.737C107.916 295.37 105.101 293.084 102.214 290.879L102.886 290.51C103.424 292.073 103.895 293.664 104.298 295.267C104.54 296.227 105.28 298.072 104.177 298.804C103.565 299.206 102.799 298.945 102.16 298.804C101.521 298.663 100.687 298.388 99.961 298.133C98.5038 297.634 97.0837 297.033 95.7112 296.334C94.1705 295.56 92.6952 294.663 91.3 293.65C90.9705 293.409 91.1454 292.818 91.6026 292.979C92.2611 293.171 92.8489 293.55 93.2934 294.072C93.738 294.593 94.0198 295.232 94.1041 295.912C94.1023 296.014 94.0605 296.111 93.9875 296.183C93.9145 296.254 93.8164 296.294 93.7141 296.294C89.0321 295.784 84.5698 294.043 80.7831 291.248C80.3931 290.959 80.7427 290.315 81.1731 290.577C82.4368 291.38 83.4921 292.47 84.2529 293.758C84.5958 294.355 85.0262 295.1 84.7774 295.771C84.6826 296.002 84.5283 296.205 84.3299 296.358C84.1316 296.511 83.8962 296.61 83.6477 296.643C83.0712 296.74 82.4825 296.74 81.906 296.643C81.2164 296.539 80.518 296.505 79.8215 296.542C78.3421 296.657 76.9098 297.059 75.4439 297.26C73.9333 297.576 72.3595 297.35 70.9991 296.623C70.9549 296.597 70.9163 296.563 70.8853 296.523C70.8543 296.483 70.8316 296.436 70.8185 296.387C70.8054 296.338 70.8021 296.287 70.8088 296.236C70.8156 296.186 70.8323 296.137 70.8579 296.093C70.8835 296.049 70.9175 296.01 70.9581 295.979C70.9987 295.948 71.0449 295.926 71.0942 295.913C71.1436 295.9 71.195 295.896 71.2456 295.903C71.2962 295.91 71.3449 295.926 71.3891 295.952C73.5813 297.294 76.3114 296.261 78.638 295.905C79.265 295.802 79.8989 295.746 80.5343 295.737C81.095 295.763 81.6539 295.819 82.2086 295.905C82.6962 296.007 83.2012 295.991 83.6813 295.858C84.3066 295.616 84.0175 294.959 83.7889 294.516C83.0928 293.176 82.0563 292.042 80.7831 291.228L81.1731 290.557C84.8433 293.279 89.1702 294.983 93.7141 295.496L93.3241 295.878C93.2599 295.348 93.0389 294.849 92.6891 294.445C92.3393 294.041 91.8768 293.75 91.3605 293.61L91.6631 292.939C93.8808 294.573 96.3045 295.909 98.8717 296.912C100.17 297.424 101.502 297.845 102.859 298.173C103.128 298.233 103.532 298.348 103.747 298.173C103.826 298.082 103.884 297.975 103.918 297.859C103.951 297.743 103.96 297.621 103.942 297.502C103.881 296.868 103.752 296.243 103.559 295.637C103.146 293.986 102.664 292.353 102.113 290.738C101.978 290.335 102.489 290.161 102.785 290.369C105.672 292.57 108.488 294.854 111.231 297.22L110.619 297.683C109.366 295.123 107.539 292.884 105.28 291.141C104.89 290.832 105.441 290.295 105.831 290.597L105.811 290.563Z" fill="black"/>
<path d="M288.13 250.663L101.615 283.611C99.5239 283.967 96.424 281.182 95.1665 277.921L69.829 212.588C69.3449 211.333 70.4342 210.058 72.2498 209.749L234.415 182.458C236.231 182.149 238.483 182.847 239.438 184.021L289.663 247.214C290.893 248.744 290.214 250.294 288.13 250.663Z" fill="black" stroke="black" stroke-width="0.75" stroke-linecap="round" stroke-linejoin="round"/>
<path d="M226.158 179.022L215.298 60.1997C215.239 59.4256 215.02 58.6723 214.653 57.9878C214.286 57.3033 213.78 56.7028 213.168 56.2246C212.555 55.7464 211.849 55.4012 211.095 55.211C210.341 55.0207 209.555 54.9897 208.789 55.1198L45.3321 81.1229C43.7289 81.4182 42.2921 82.2953 41.2987 83.5853C40.3054 84.8752 39.8258 86.4866 39.9526 88.1085L50.678 205.703L51.9691 207.662C52.2936 207.865 52.6804 207.943 53.0584 207.884L226.158 179.022Z" fill="#E4DDCE" stroke="black" stroke-width="0.75" stroke-linecap="round" stroke-linejoin="round"/>
<path d="M227.839 180.096L216.979 61.2733C216.92 60.4991 216.701 59.7455 216.334 59.0608C215.967 58.376 215.462 57.7751 214.849 57.2964C214.237 56.8177 213.531 56.4718 212.777 56.2808C212.023 56.0897 211.237 56.0577 210.47 56.1868L47.0132 82.1899C45.4088 82.4852 43.9709 83.3634 42.9774 84.6548C41.9839 85.9462 41.5052 87.5591 41.6337 89.1822L52.4936 208.004L227.839 180.096Z" fill="black" stroke="black" stroke-width="0.75" stroke-linecap="round" stroke-linejoin="round"/>
<path d="M279.839 244.624C279.839 244.624 226.279 186.833 224.53 187.155L82.9618 212.823L51.411 210.622C51.411 210.622 52.2717 216.748 52.9307 218.714L77.737 284.43C78.0354 285.434 78.7054 286.286 79.6108 286.815C80.5163 287.343 81.5894 287.508 82.6122 287.275L277.714 252.676C279.099 252.421 279.879 251.582 279.845 250.589L279.839 244.624Z" fill="#C8BFAD" stroke="black" stroke-width="0.75" stroke-linecap="round" stroke-linejoin="round"/>
<path d="M277.606 246.69L81.9262 281.726C79.8685 282.081 77.9453 281.726 76.6812 278.371L51.4109 210.622C50.9268 209.333 51.9892 208.031 53.7644 207.729L224.167 178.666C225.936 178.364 228.168 179.096 229.13 180.297L278.998 243.141C280.249 244.738 279.65 246.335 277.606 246.69Z" fill="white" stroke="black" stroke-width="0.75" stroke-linecap="round" stroke-linejoin="round"/>
<path d="M246.902 210.4C248.052 210.206 248.388 208.072 247.447 206.911L227.872 182.827C227.052 181.733 224.967 181.089 223.232 181.384L56.4004 209.729C54.6655 210.024 53.6233 211.205 54.0805 212.36L64.1133 237.645C65.0816 240.081 66.9241 241.496 68.733 241.188L246.902 210.4Z" fill="#EFEBE4"/>
<path d="M212.931 250.119L140.576 262.393C140.255 262.475 139.917 262.463 139.603 262.357C139.289 262.251 139.013 262.056 138.808 261.796L127.726 243.677C127.551 243.308 127.968 242.919 128.647 242.805L197.054 230.981C197.367 230.917 197.689 230.922 197.999 230.995C198.309 231.068 198.599 231.207 198.85 231.404L213.61 249.12C213.993 249.542 213.677 249.992 212.931 250.119Z" fill="#EFEBE4"/>
<path d="M224.759 173.352L55.8424 201.234L45.2649 90.0009L214.619 62.6423L224.759 173.352Z" fill="white"/>
<path d="M215.842 101.972L53.8654 129.002L52.1104 111.193L214.094 84.1694L215.842 101.972Z" fill="#EDEDE6"/>
<path d="M218.989 137.431L57.0124 164.454L55.264 146.651L217.241 119.628L218.989 137.431Z" fill="#EDEDE6"/>
<path d="M222.123 172.238L60.1392 199.261L58.3909 181.451L220.368 154.428L222.123 172.238Z" fill="#EDEDE6"/>
<path d="M76.3451 103.707C79.0006 101.756 79.5482 97.999 77.5684 95.3163C75.5886 92.6335 71.8309 92.0408 69.1755 93.9923C66.5201 95.9439 65.9724 99.7007 67.9522 102.384C69.9321 105.066 73.6897 105.659 76.3451 103.707Z" fill="#EDEDE6"/>
<path d="M102.584 92.6985L87.2587 95.1545C86.9248 95.2051 86.5844 95.1232 86.3104 94.9262C86.0363 94.7293 85.8505 94.433 85.7928 94.101V94.0137C85.7648 93.8503 85.7695 93.6829 85.8064 93.5212C85.8433 93.3595 85.9118 93.2066 86.008 93.0714C86.1042 92.9361 86.2262 92.8211 86.3669 92.733C86.5077 92.6448 86.6645 92.5852 86.8284 92.5576L102.153 90.1015C102.487 90.0509 102.828 90.1329 103.102 90.3298C103.376 90.5268 103.561 90.823 103.619 91.1551V91.2423C103.648 91.4059 103.644 91.5736 103.608 91.7356C103.571 91.8977 103.503 92.0508 103.406 92.1863C103.31 92.3218 103.188 92.4368 103.046 92.5247C102.905 92.6126 102.748 92.6717 102.584 92.6985Z" fill="#EDEDE6"/>
<path d="M137.167 87.1221L108.037 91.8194C107.705 91.8718 107.365 91.7913 107.092 91.5953C106.819 91.3993 106.634 91.1036 106.578 90.7726V90.6853C106.55 90.5219 106.554 90.3545 106.591 90.1928C106.628 90.0311 106.697 89.8782 106.793 89.743C106.889 89.6077 107.011 89.4927 107.152 89.4046C107.293 89.3164 107.45 89.2568 107.613 89.2292L136.743 84.5318C137.077 84.4812 137.418 84.5632 137.692 84.7601C137.966 84.9571 138.152 85.2533 138.209 85.5854V85.6726C138.237 85.8362 138.232 86.0036 138.195 86.1653C138.157 86.3269 138.088 86.4796 137.991 86.6144C137.894 86.7492 137.772 86.8635 137.63 86.9506C137.489 87.0377 137.331 87.096 137.167 87.1221Z" fill="#EDEDE6"/>
<path d="M161.227 86.1423L145.902 88.5984C145.568 88.649 145.228 88.567 144.954 88.3701C144.68 88.1731 144.494 87.8769 144.436 87.5448V87.4576C144.407 87.2945 144.411 87.1273 144.447 86.9656C144.483 86.804 144.551 86.651 144.647 86.5157C144.742 86.3803 144.864 86.2652 145.004 86.1769C145.145 86.0886 145.301 86.029 145.465 86.0014L160.783 83.5722C161.116 83.5197 161.457 83.6 161.731 83.7959C162.005 83.9918 162.191 84.2874 162.249 84.6191V84.7063C162.3 85.0314 162.222 85.3635 162.031 85.6318C161.84 85.9001 161.551 86.0833 161.227 86.1423Z" fill="#EDEDE6"/>
<path d="M195.817 80.5659L166.687 85.2633C166.353 85.3139 166.013 85.2319 165.739 85.035C165.465 84.838 165.279 84.5418 165.221 84.2097V84.1225C165.192 83.9594 165.196 83.7922 165.232 83.6305C165.268 83.4689 165.336 83.3159 165.432 83.1806C165.527 83.0452 165.649 82.93 165.789 82.8418C165.93 82.7535 166.086 82.6939 166.25 82.6663L195.38 77.969C195.714 77.9166 196.056 77.9978 196.33 78.1951C196.604 78.3923 196.79 78.6897 196.846 79.0225V79.1098C196.903 79.4389 196.826 79.7771 196.633 80.0501C196.44 80.323 196.147 80.5086 195.817 80.5659Z" fill="#EDEDE6"/>
<path d="M103.269 98.1608L87.9311 100.617C87.598 100.667 87.2584 100.585 86.9854 100.388C86.7125 100.191 86.528 99.8947 86.4719 99.5632V99.476C86.4439 99.3125 86.4485 99.1451 86.4855 98.9834C86.5224 98.8217 86.5909 98.6689 86.6871 98.5336C86.7833 98.3984 86.9052 98.2834 87.046 98.1952C87.1868 98.1071 87.3436 98.0475 87.5074 98.0198L102.832 95.5638C103.166 95.5132 103.507 95.5952 103.781 95.7921C104.055 95.9891 104.24 96.2853 104.298 96.6174V96.7046C104.327 96.8677 104.323 97.0349 104.287 97.1966C104.251 97.3582 104.183 97.5111 104.088 97.6465C103.992 97.7819 103.871 97.897 103.73 97.9853C103.59 98.0735 103.433 98.1332 103.269 98.1608Z" fill="#EDEDE6"/>
<path d="M123.98 94.8324L108.723 97.2549C108.39 97.3074 108.049 97.227 107.775 97.0312C107.501 96.8353 107.315 96.5396 107.257 96.208V96.1208C107.227 95.9576 107.23 95.7901 107.266 95.6281C107.302 95.4661 107.369 95.3128 107.465 95.1772C107.561 95.0416 107.683 94.9265 107.824 94.8385C107.965 94.7504 108.122 94.6913 108.286 94.6646L123.543 92.2354C123.877 92.1848 124.218 92.2668 124.492 92.4637C124.766 92.6607 124.952 92.9569 125.009 93.289V93.3762C125.038 93.5393 125.035 93.7065 124.998 93.8682C124.962 94.0298 124.894 94.1828 124.799 94.3181C124.703 94.4535 124.582 94.5686 124.441 94.6569C124.301 94.7452 124.144 94.8048 123.98 94.8324Z" fill="#EDEDE6"/>
<path d="M78.0059 121.244C80.6613 119.293 81.209 115.536 79.2292 112.853C77.2493 110.17 73.4917 109.577 70.8363 111.529C68.1809 113.481 67.6332 117.237 69.613 119.92C71.5928 122.603 75.3505 123.196 78.0059 121.244Z" fill="white"/>
<path d="M104.244 110.24L88.9196 112.696C88.5857 112.746 88.2452 112.664 87.9712 112.467C87.6972 112.27 87.5114 111.974 87.4536 111.642V111.555C87.4248 111.391 87.4287 111.224 87.4653 111.062C87.5018 110.9 87.5702 110.746 87.6666 110.611C87.7629 110.475 87.8852 110.36 88.0264 110.272C88.1676 110.185 88.3249 110.125 88.4892 110.099L103.814 107.643C104.148 107.592 104.488 107.674 104.762 107.871C105.036 108.068 105.222 108.364 105.28 108.696V108.783C105.308 108.947 105.303 109.114 105.266 109.276C105.229 109.438 105.161 109.591 105.065 109.726C104.969 109.861 104.847 109.976 104.706 110.064C104.565 110.152 104.408 110.212 104.244 110.24Z" fill="white"/>
<path d="M138.828 104.663L109.698 109.361C109.364 109.411 109.024 109.329 108.75 109.132C108.476 108.935 108.29 108.639 108.232 108.307V108.22C108.203 108.056 108.207 107.889 108.244 107.727C108.28 107.564 108.349 107.411 108.445 107.276C108.541 107.14 108.664 107.025 108.805 106.937C108.946 106.85 109.103 106.79 109.268 106.764L138.398 102.066C138.732 102.016 139.072 102.098 139.346 102.295C139.62 102.492 139.806 102.788 139.864 103.12V103.207C139.892 103.371 139.887 103.538 139.85 103.7C139.813 103.861 139.745 104.014 139.648 104.149C139.552 104.285 139.43 104.4 139.29 104.488C139.149 104.576 138.992 104.636 138.828 104.663Z" fill="white"/>
<path d="M162.895 103.704L147.57 106.16C147.236 106.212 146.894 106.131 146.62 105.934C146.345 105.736 146.16 105.439 146.104 105.106V105.019C146.076 104.856 146.081 104.689 146.118 104.528C146.155 104.366 146.223 104.214 146.32 104.079C146.416 103.945 146.538 103.83 146.678 103.743C146.819 103.655 146.976 103.596 147.139 103.569L162.464 101.113C162.797 101.063 163.137 101.144 163.411 101.339C163.684 101.535 163.871 101.829 163.93 102.16V102.247C163.96 102.411 163.957 102.579 163.921 102.742C163.884 102.904 163.816 103.057 163.72 103.193C163.623 103.329 163.5 103.444 163.359 103.532C163.217 103.619 163.059 103.678 162.895 103.704Z" fill="white"/>
<path d="M197.478 98.1071L168.348 102.804C168.014 102.855 167.674 102.773 167.4 102.576C167.126 102.379 166.94 102.083 166.882 101.751V101.664C166.853 101.501 166.857 101.333 166.893 101.172C166.929 101.01 166.997 100.857 167.093 100.722C167.188 100.586 167.31 100.471 167.45 100.383C167.591 100.295 167.747 100.235 167.911 100.207L197.041 95.5102C197.375 95.4596 197.715 95.5415 197.989 95.7385C198.263 95.9354 198.449 96.2317 198.507 96.5637V96.6509C198.537 96.8141 198.534 96.9816 198.498 97.1436C198.462 97.3057 198.395 97.4589 198.299 97.5945C198.203 97.7301 198.081 97.8453 197.94 97.9333C197.799 98.0213 197.642 98.0804 197.478 98.1071Z" fill="white"/>
<path d="M104.924 115.702L89.5988 118.158C89.2679 118.209 88.93 118.13 88.6565 117.937C88.383 117.744 88.1952 117.453 88.1329 117.125V117.037C88.1049 116.874 88.1095 116.706 88.1465 116.545C88.1834 116.383 88.2519 116.23 88.3481 116.095C88.4443 115.96 88.5662 115.845 88.707 115.757C88.8478 115.668 89.0046 115.609 89.1684 115.581L104.48 113.098C104.814 113.048 105.154 113.13 105.428 113.327C105.702 113.524 105.888 113.82 105.946 114.152V114.239C105.976 114.402 105.973 114.57 105.938 114.732C105.903 114.894 105.836 115.047 105.74 115.183C105.645 115.319 105.524 115.435 105.384 115.524C105.244 115.613 105.087 115.674 104.924 115.702Z" fill="white"/>
<path d="M125.635 112.374L110.377 114.796C110.045 114.848 109.705 114.768 109.432 114.572C109.159 114.376 108.974 114.08 108.918 113.749V113.662C108.89 113.499 108.895 113.331 108.932 113.169C108.968 113.008 109.037 112.855 109.133 112.72C109.229 112.584 109.351 112.469 109.492 112.381C109.633 112.293 109.79 112.233 109.953 112.206L125.211 109.777C125.545 109.726 125.885 109.808 126.159 110.005C126.433 110.202 126.619 110.498 126.677 110.83V110.917C126.706 111.081 126.702 111.25 126.665 111.412C126.628 111.574 126.559 111.728 126.462 111.863C126.365 111.999 126.242 112.114 126.1 112.202C125.958 112.289 125.8 112.348 125.635 112.374Z" fill="white"/>
<path d="M79.6668 138.788C82.3222 136.836 82.8699 133.079 80.89 130.396C78.9102 127.714 75.1526 127.121 72.4972 129.072C69.8417 131.024 69.2941 134.781 71.2739 137.464C73.2537 140.146 77.0113 140.739 79.6668 138.788Z" fill="#EDEDE6"/>
<path d="M105.905 127.781L90.5805 130.237C90.2467 130.287 89.9062 130.205 89.6322 130.008C89.3581 129.812 89.1723 129.515 89.1146 129.183V129.096C89.0857 128.933 89.0894 128.766 89.1255 128.604C89.1616 128.442 89.2295 128.289 89.3251 128.154C89.4207 128.019 89.5423 127.904 89.6828 127.815C89.8232 127.727 89.9798 127.667 90.1434 127.64L105.475 125.184C105.808 125.133 106.148 125.216 106.421 125.413C106.694 125.61 106.878 125.906 106.934 126.237V126.325C106.991 126.654 106.914 126.992 106.721 127.265C106.529 127.538 106.235 127.723 105.905 127.781Z" fill="#EDEDE6"/>
<path d="M140.489 122.204L111.359 126.902C111.025 126.952 110.685 126.87 110.411 126.673C110.137 126.476 109.951 126.18 109.893 125.848V125.761C109.863 125.597 109.866 125.429 109.903 125.267C109.939 125.104 110.007 124.951 110.104 124.815C110.2 124.68 110.323 124.565 110.464 124.477C110.606 124.389 110.764 124.331 110.929 124.305L140.059 119.607C140.392 119.557 140.731 119.639 141.004 119.836C141.277 120.033 141.462 120.329 141.518 120.661V120.748C141.574 121.077 141.498 121.416 141.305 121.689C141.112 121.961 140.819 122.147 140.489 122.204Z" fill="#EDEDE6"/>
<path d="M164.549 121.225L149.224 123.681C148.891 123.731 148.551 123.65 148.278 123.455C148.004 123.259 147.817 122.965 147.758 122.634V122.54C147.73 122.377 147.735 122.21 147.772 122.049C147.809 121.887 147.877 121.735 147.974 121.6C148.07 121.465 148.192 121.351 148.333 121.264C148.473 121.176 148.63 121.117 148.793 121.09L164.118 118.634C164.451 118.584 164.791 118.665 165.065 118.86C165.339 119.056 165.525 119.35 165.584 119.681V119.768C165.614 119.932 165.611 120.1 165.575 120.263C165.539 120.425 165.47 120.578 165.374 120.714C165.277 120.85 165.155 120.965 165.013 121.053C164.871 121.14 164.713 121.199 164.549 121.225Z" fill="#EDEDE6"/>
<path d="M199.132 115.648L170.002 120.346C169.669 120.396 169.33 120.314 169.057 120.117C168.784 119.92 168.599 119.624 168.543 119.292V119.205C168.515 119.041 168.52 118.874 168.557 118.712C168.594 118.551 168.662 118.398 168.758 118.262C168.854 118.127 168.976 118.012 169.117 117.924C169.258 117.836 169.415 117.776 169.579 117.749L198.709 113.051C199.042 113.001 199.381 113.082 199.655 113.277C199.929 113.473 200.115 113.767 200.175 114.098V114.185C200.205 114.35 200.203 114.519 200.166 114.683C200.13 114.846 200.062 115.001 199.964 115.137C199.867 115.274 199.743 115.39 199.6 115.477C199.457 115.565 199.298 115.623 199.132 115.648Z" fill="#EDEDE6"/>
<path d="M106.585 133.23L91.2933 135.699C90.9595 135.75 90.619 135.668 90.345 135.471C90.0709 135.274 89.8852 134.978 89.8274 134.646V134.558C89.7985 134.395 89.8025 134.227 89.839 134.065C89.8756 133.903 89.944 133.75 90.0403 133.614C90.1367 133.479 90.259 133.364 90.4002 133.276C90.5414 133.188 90.6987 133.129 90.863 133.102L106.188 130.646C106.522 130.596 106.862 130.678 107.136 130.875C107.41 131.071 107.596 131.368 107.654 131.7V131.787C107.679 131.952 107.672 132.12 107.632 132.282C107.592 132.444 107.52 132.597 107.421 132.731C107.322 132.865 107.196 132.979 107.053 133.064C106.909 133.15 106.75 133.206 106.585 133.23Z" fill="#EDEDE6"/>
<path d="M127.296 129.915L112.038 132.337C111.705 132.388 111.366 132.307 111.092 132.111C110.818 131.916 110.631 131.621 110.572 131.29V131.203C110.543 131.04 110.547 130.872 110.584 130.71C110.62 130.548 110.689 130.395 110.785 130.259C110.881 130.124 111.004 130.009 111.145 129.921C111.286 129.833 111.443 129.774 111.608 129.747L126.865 127.318C127.199 127.267 127.54 127.349 127.814 127.546C128.088 127.743 128.274 128.039 128.331 128.371V128.459C128.359 128.622 128.355 128.789 128.318 128.951C128.281 129.113 128.212 129.266 128.116 129.401C128.02 129.536 127.898 129.651 127.757 129.739C127.616 129.827 127.46 129.887 127.296 129.915Z" fill="#EDEDE6"/>
<path d="M81.3343 156.324C83.9897 154.373 84.5374 150.616 82.5575 147.933C80.5777 145.25 76.8201 144.658 74.1647 146.609C71.5092 148.561 70.9615 152.318 72.9414 155C74.9212 157.683 78.6788 158.276 81.3343 156.324Z" fill="white"/>
<path d="M107.566 145.309L92.2415 147.765C91.9074 147.817 91.566 147.736 91.2916 147.538C91.0171 147.341 90.8317 147.044 90.7756 146.711V146.624C90.7476 146.46 90.7522 146.293 90.7892 146.131C90.8261 145.97 90.8946 145.817 90.9908 145.681C91.087 145.546 91.2089 145.431 91.3497 145.343C91.4905 145.255 91.6473 145.195 91.8111 145.168L107.136 142.712C107.47 142.661 107.81 142.743 108.084 142.94C108.358 143.137 108.544 143.433 108.602 143.765V143.852C108.632 144.016 108.628 144.184 108.592 144.346C108.556 144.509 108.488 144.662 108.391 144.798C108.295 144.934 108.172 145.049 108.031 145.136C107.889 145.224 107.731 145.283 107.566 145.309Z" fill="white"/>
<path d="M142.15 139.746L113.02 144.443C112.686 144.494 112.346 144.412 112.072 144.215C111.797 144.018 111.612 143.721 111.554 143.389V143.302C111.524 143.139 111.527 142.971 111.563 142.809C111.599 142.647 111.666 142.494 111.762 142.359C111.858 142.223 111.98 142.108 112.121 142.02C112.262 141.932 112.419 141.873 112.583 141.846L141.713 137.149C142.047 137.098 142.387 137.18 142.661 137.377C142.935 137.574 143.121 137.87 143.179 138.202V138.289C143.208 138.453 143.204 138.62 143.168 138.781C143.132 138.943 143.064 139.096 142.968 139.231C142.873 139.367 142.751 139.482 142.611 139.57C142.47 139.658 142.314 139.718 142.15 139.746Z" fill="white"/>
<path d="M166.21 138.766L150.885 141.222C150.552 141.273 150.212 141.192 149.938 140.996C149.665 140.8 149.478 140.506 149.419 140.175V140.081C149.39 139.918 149.394 139.751 149.431 139.589C149.467 139.427 149.536 139.275 149.632 139.14C149.729 139.005 149.851 138.89 149.992 138.803C150.133 138.716 150.29 138.658 150.454 138.632L165.779 136.176C166.112 136.125 166.452 136.206 166.726 136.401C167 136.597 167.186 136.892 167.245 137.222V137.316C167.273 137.479 167.268 137.646 167.231 137.808C167.194 137.969 167.126 138.121 167.03 138.256C166.933 138.391 166.811 138.505 166.671 138.593C166.53 138.68 166.373 138.739 166.21 138.766Z" fill="white"/>
<path d="M200.793 133.189L171.663 137.887C171.329 137.937 170.989 137.855 170.715 137.658C170.441 137.461 170.255 137.165 170.197 136.833V136.746C170.169 136.582 170.174 136.415 170.211 136.253C170.248 136.092 170.316 135.939 170.412 135.804C170.509 135.668 170.631 135.553 170.771 135.465C170.912 135.377 171.069 135.317 171.233 135.29L200.363 130.592C200.696 130.542 201.035 130.623 201.309 130.818C201.583 131.014 201.769 131.309 201.829 131.639V131.727C201.859 131.891 201.855 132.059 201.819 132.222C201.783 132.385 201.715 132.539 201.619 132.675C201.522 132.811 201.4 132.927 201.258 133.015C201.116 133.103 200.958 133.163 200.793 133.189Z" fill="white"/>
<path d="M108.245 150.784L92.9206 153.24C92.5867 153.291 92.2463 153.209 91.9722 153.012C91.6982 152.815 91.5124 152.519 91.4547 152.187V152.1C91.4258 151.936 91.4294 151.769 91.4656 151.608C91.5017 151.446 91.5695 151.293 91.6652 151.158C91.7608 151.022 91.8824 150.907 92.0228 150.819C92.1633 150.731 92.3199 150.671 92.4835 150.643L107.815 148.187C108.148 148.137 108.488 148.219 108.761 148.416C109.034 148.613 109.218 148.909 109.274 149.241V149.328C109.331 149.657 109.254 149.995 109.062 150.268C108.869 150.541 108.575 150.727 108.245 150.784Z" fill="white"/>
<path d="M128.95 147.456L113.692 149.885C113.358 149.936 113.018 149.854 112.744 149.657C112.47 149.46 112.284 149.164 112.226 148.832V148.744C112.197 148.581 112.2 148.413 112.236 148.25C112.272 148.088 112.34 147.934 112.437 147.799C112.533 147.663 112.656 147.548 112.798 147.46C112.939 147.373 113.097 147.314 113.262 147.288L128.52 144.859C128.853 144.808 129.192 144.891 129.465 145.088C129.738 145.285 129.923 145.581 129.979 145.913V146C130.035 146.329 129.959 146.667 129.766 146.94C129.573 147.213 129.28 147.399 128.95 147.456Z" fill="white"/>
<path d="M82.9897 173.872C85.6451 171.92 86.1928 168.163 84.2129 165.48C82.2331 162.798 78.4755 162.205 75.82 164.157C73.1646 166.108 72.6169 169.865 74.5968 172.548C76.5766 175.23 80.3342 175.823 82.9897 173.872Z" fill="#EDEDE6"/>
<path d="M109.221 162.863L93.8957 165.319C93.5623 165.371 93.2218 165.29 92.9484 165.093C92.675 164.895 92.491 164.598 92.4365 164.266V164.178C92.4085 164.015 92.4131 163.848 92.4501 163.686C92.487 163.524 92.5555 163.371 92.6517 163.236C92.7479 163.101 92.8698 162.986 93.0106 162.898C93.1514 162.809 93.3082 162.75 93.472 162.722L108.777 160.266C109.111 160.216 109.451 160.298 109.725 160.494C109.999 160.691 110.185 160.988 110.243 161.32V161.407C110.273 161.57 110.27 161.737 110.235 161.898C110.199 162.06 110.132 162.213 110.037 162.348C109.942 162.484 109.821 162.599 109.681 162.688C109.54 162.776 109.384 162.836 109.221 162.863Z" fill="#EDEDE6"/>
<path d="M143.811 157.287L114.681 161.984C114.347 162.037 114.005 161.955 113.731 161.758C113.456 161.561 113.271 161.263 113.215 160.931V160.843C113.187 160.68 113.191 160.512 113.228 160.351C113.265 160.189 113.334 160.036 113.43 159.901C113.526 159.766 113.648 159.651 113.789 159.563C113.93 159.474 114.086 159.415 114.25 159.387L143.38 154.69C143.714 154.639 144.055 154.721 144.329 154.918C144.603 155.115 144.789 155.411 144.846 155.743V155.831C144.876 155.994 144.873 156.162 144.837 156.325C144.801 156.487 144.732 156.641 144.636 156.776C144.539 156.912 144.417 157.027 144.275 157.115C144.133 157.202 143.975 157.261 143.811 157.287Z" fill="#EDEDE6"/>
<path d="M167.871 156.307L152.546 158.763C152.213 158.814 151.873 158.733 151.599 158.537C151.326 158.342 151.139 158.047 151.08 157.716V157.629C151.05 157.466 151.053 157.298 151.089 157.136C151.124 156.974 151.192 156.821 151.288 156.685C151.384 156.55 151.506 156.435 151.647 156.347C151.788 156.259 151.945 156.2 152.109 156.173L167.44 153.717C167.773 153.664 168.112 153.745 168.385 153.941C168.659 154.137 168.843 154.433 168.899 154.764V154.858C168.927 155.02 168.923 155.187 168.886 155.348C168.85 155.508 168.782 155.661 168.686 155.795C168.591 155.93 168.469 156.044 168.329 156.132C168.19 156.22 168.034 156.279 167.871 156.307Z" fill="#EDEDE6"/>
<path d="M202.454 150.731L173.324 155.428C172.99 155.479 172.65 155.397 172.376 155.2C172.102 155.003 171.916 154.706 171.858 154.374V154.287C171.829 154.124 171.833 153.956 171.87 153.794C171.906 153.632 171.975 153.479 172.071 153.343C172.167 153.208 172.29 153.093 172.431 153.005C172.572 152.917 172.729 152.858 172.894 152.831L202.024 148.134C202.356 148.081 202.696 148.162 202.969 148.358C203.242 148.554 203.427 148.849 203.483 149.181V149.268C203.512 149.431 203.508 149.599 203.472 149.761C203.436 149.923 203.368 150.076 203.273 150.212C203.177 150.348 203.056 150.464 202.915 150.553C202.775 150.642 202.618 150.702 202.454 150.731Z" fill="#EDEDE6"/>
<path d="M109.906 168.325L94.5816 170.808C94.2475 170.861 93.9061 170.78 93.6316 170.582C93.3572 170.385 93.1718 170.088 93.1157 169.755V169.668C93.0877 169.504 93.0923 169.337 93.1293 169.175C93.1662 169.013 93.2347 168.86 93.3309 168.725C93.4271 168.59 93.549 168.475 93.6898 168.387C93.8306 168.299 93.9874 168.239 94.1512 168.211L109.449 165.729C109.783 165.678 110.124 165.76 110.398 165.957C110.672 166.154 110.857 166.45 110.915 166.782V166.869C110.945 167.031 110.943 167.197 110.908 167.358C110.874 167.519 110.808 167.671 110.714 167.807C110.62 167.942 110.501 168.058 110.362 168.147C110.224 168.236 110.069 168.296 109.906 168.325Z" fill="#EDEDE6"/>
<path d="M130.618 164.997L115.36 167.453C115.026 167.504 114.686 167.422 114.412 167.225C114.138 167.028 113.952 166.732 113.894 166.4V166.312C113.864 166.149 113.867 165.982 113.903 165.82C113.939 165.658 114.006 165.504 114.102 165.369C114.198 165.233 114.32 165.118 114.461 165.03C114.602 164.942 114.759 164.883 114.923 164.856L130.18 162.427C130.506 162.375 130.839 162.45 131.11 162.636C131.382 162.822 131.571 163.105 131.64 163.427V163.514C131.673 163.679 131.672 163.848 131.638 164.013C131.605 164.177 131.538 164.333 131.443 164.471C131.347 164.609 131.225 164.727 131.084 164.818C130.942 164.908 130.783 164.969 130.618 164.997Z" fill="#EDEDE6"/>
<path d="M84.6504 191.408C87.3059 189.457 87.8535 185.7 85.8737 183.017C83.8939 180.334 80.1362 179.742 77.4808 181.693C74.8254 183.645 74.2777 187.402 76.2575 190.084C78.2374 192.767 81.995 193.36 84.6504 191.408Z" fill="white"/>
<path d="M110.881 180.404L95.5566 182.887C95.2227 182.938 94.8822 182.856 94.6082 182.659C94.3342 182.462 94.1484 182.166 94.0907 181.834V181.746C94.0627 181.583 94.0673 181.416 94.1042 181.254C94.1412 181.092 94.2097 180.939 94.3059 180.804C94.402 180.669 94.524 180.554 94.6648 180.466C94.8055 180.377 94.9623 180.318 95.1262 180.29L110.451 177.841C110.784 177.79 111.124 177.871 111.397 178.067C111.671 178.262 111.858 178.557 111.917 178.888V178.975C111.968 179.301 111.887 179.634 111.693 179.902C111.499 180.169 111.208 180.35 110.881 180.404Z" fill="white"/>
<path d="M145.465 174.835L116.335 179.532C116.001 179.583 115.661 179.501 115.387 179.304C115.113 179.107 114.927 178.81 114.869 178.478V178.391C114.841 178.228 114.846 178.06 114.883 177.899C114.919 177.737 114.988 177.584 115.084 177.449C115.18 177.314 115.302 177.199 115.443 177.11C115.584 177.022 115.741 176.963 115.905 176.935L145.035 172.238C145.368 172.187 145.709 172.269 145.983 172.466C146.257 172.663 146.443 172.959 146.5 173.291V173.378C146.529 173.542 146.525 173.71 146.489 173.872C146.452 174.034 146.384 174.187 146.288 174.322C146.191 174.458 146.069 174.573 145.928 174.661C145.786 174.749 145.629 174.808 145.465 174.835Z" fill="white"/>
<path d="M169.532 173.855L154.207 176.304C153.874 176.357 153.533 176.276 153.259 176.081C152.985 175.885 152.798 175.589 152.741 175.257V175.17C152.711 175.007 152.714 174.839 152.75 174.677C152.785 174.515 152.853 174.362 152.949 174.227C153.045 174.091 153.167 173.976 153.308 173.888C153.449 173.8 153.606 173.741 153.77 173.714L169.095 171.258C169.429 171.206 169.77 171.287 170.044 171.484C170.319 171.681 170.504 171.979 170.56 172.311V172.399C170.589 172.562 170.586 172.729 170.55 172.891C170.513 173.052 170.446 173.205 170.35 173.341C170.254 173.476 170.133 173.591 169.992 173.679C169.852 173.768 169.695 173.827 169.532 173.855Z" fill="white"/>
<path d="M204.115 168.272L174.985 172.969C174.651 173.02 174.311 172.938 174.037 172.741C173.763 172.544 173.577 172.248 173.519 171.916V171.828C173.49 171.665 173.494 171.498 173.53 171.336C173.566 171.175 173.634 171.022 173.73 170.886C173.825 170.751 173.947 170.636 174.087 170.548C174.228 170.459 174.384 170.4 174.548 170.372L203.678 165.675C204.011 165.622 204.352 165.703 204.626 165.899C204.9 166.094 205.086 166.39 205.144 166.722V166.816C205.174 166.979 205.171 167.146 205.135 167.308C205.099 167.47 205.032 167.624 204.936 167.759C204.84 167.895 204.718 168.01 204.577 168.098C204.436 168.186 204.279 168.245 204.115 168.272Z" fill="white"/>
<path d="M111.567 185.867L96.2358 188.323C95.9024 188.375 95.5619 188.294 95.2885 188.096C95.0151 187.899 94.8311 187.601 94.7766 187.269V187.182C94.7486 187.018 94.7532 186.851 94.7902 186.689C94.8271 186.528 94.8956 186.375 94.9918 186.24C95.088 186.104 95.2099 185.989 95.3507 185.901C95.4915 185.813 95.6483 185.753 95.8121 185.726L111.137 183.27C111.471 183.219 111.811 183.301 112.085 183.498C112.359 183.695 112.545 183.991 112.603 184.323V184.411C112.633 184.574 112.629 184.742 112.593 184.905C112.557 185.067 112.489 185.22 112.392 185.356C112.296 185.492 112.173 185.607 112.031 185.695C111.89 185.782 111.732 185.841 111.567 185.867Z" fill="white"/>
<path d="M132.312 182.538L117.054 184.967C116.72 185.02 116.379 184.939 116.105 184.741C115.83 184.544 115.645 184.247 115.589 183.914V183.827C115.561 183.663 115.565 183.496 115.602 183.334C115.639 183.172 115.708 183.02 115.804 182.884C115.9 182.749 116.022 182.634 116.163 182.546C116.303 182.458 116.46 182.398 116.624 182.371L131.882 179.941C132.216 179.891 132.556 179.973 132.83 180.17C133.104 180.367 133.29 180.663 133.348 180.995V181.082C133.377 181.246 133.373 181.413 133.336 181.575C133.3 181.737 133.231 181.891 133.135 182.026C133.038 182.162 132.916 182.277 132.775 182.364C132.634 182.452 132.476 182.511 132.312 182.538Z" fill="white"/>
<path d="M350.996 159.629C361.446 165.574 361.082 175.324 350.263 181.418C339.443 187.511 322.148 187.625 311.705 181.679C301.262 175.734 301.619 165.977 312.438 159.89C323.258 153.804 340.553 153.683 350.996 159.629Z" fill="#1D1D1B" stroke="#1D1D1B" stroke-width="0.5" stroke-linecap="round" stroke-linejoin="round"/>
<path d="M345.334 110.75C345.334 110.75 356.591 106.858 361.775 107.495C366.96 108.133 372.494 113.172 369.172 125.707C366.395 136.196 361.862 144.168 354.035 154.093C346.571 163.548 336.411 173.016 336.411 173.016C336.411 173.016 341.696 149.852 346.598 148.422C350.31 147.322 355.817 139.269 359.421 132.559C363.456 125.144 363.201 117.574 362.891 116.454C362.172 113.836 360.874 113.038 356.584 115.273C352.966 117.145 349.469 122.05 347.95 122.996C347.334 123.364 346.797 123.85 346.37 124.426C345.943 125.002 345.634 125.656 345.462 126.351L345.334 110.75Z" fill="white" stroke="black" stroke-width="0.5" stroke-linecap="round" stroke-linejoin="round"/>
<path d="M355.172 110.354C355.925 105.717 353.269 100.993 347.102 97.4964C335.886 91.1148 317.354 91.2356 305.7 97.7783C299.507 101.254 296.838 105.77 297.073 110.266V112.125L303.555 171.627H303.589C303.488 174.861 305.566 178.082 309.849 180.518C318.436 185.41 332.638 185.316 341.562 180.304C346.154 177.727 348.454 174.351 348.427 171.016L355.219 110.354H355.172Z" fill="white" stroke="black" stroke-width="0.5" stroke-linecap="round" stroke-linejoin="round"/>
<path d="M347.116 96.8791C358.332 103.261 357.982 113.736 346.329 120.272C334.676 126.808 316.143 126.935 304.927 120.554C293.711 114.172 294.067 103.697 305.714 97.1609C317.36 90.6249 335.9 90.4974 347.116 96.8791Z" fill="white" stroke="#1D1D1B" stroke-width="0.5" stroke-linecap="round" stroke-linejoin="round"/>
<path d="M345.67 97.6642C356.113 103.61 355.757 113.36 344.937 119.453C334.118 125.546 316.822 125.66 306.38 119.715C295.937 113.769 296.293 104.012 307.112 97.9259C317.932 91.8395 335.22 91.7456 345.67 97.6642Z" fill="#E4DDCE" stroke="black" stroke-width="0.5" stroke-linecap="round" stroke-linejoin="round"/>
<path d="M343.545 120.03C338.529 122.842 332.046 124.056 325.598 124.124C319.351 124.171 313.144 123.104 308.363 120.533C309.124 119.937 309.929 119.399 310.771 118.923C319.6 113.971 333.633 113.877 342.133 118.715C342.728 119.055 343.303 119.429 343.854 119.836C343.747 119.896 343.653 119.963 343.545 120.03Z" fill="#0C1417"/>
<path d="M365.736 119.634C365.736 119.634 364.176 113.555 360.464 114.011" stroke="black" stroke-width="0.5" stroke-linecap="round" stroke-linejoin="round"/>
<path d="M194.291 275.659L208.54 279.444L212.695 266.553" fill="#F7AD7C"/>
<path d="M194.291 275.659L208.54 279.444L212.695 266.553" stroke="black" stroke-width="0.5" stroke-linecap="round" stroke-linejoin="round"/>
<path d="M319.284 295.549C319.284 295.549 259.49 269.298 255.684 261.614C251.878 253.931 239.163 226.519 233.494 216.936C228.572 208.555 221.074 202.428 217.039 201.945C213.005 201.462 184.211 202.435 182.624 202.562C181.037 202.69 175.227 204.334 175.227 204.334L204.075 275.344C204.882 277.632 205.258 279.887 212.816 288.705C218.25 295.066 229.231 297.569 231.806 298.488C237.858 300.656 277.196 325.33 277.196 325.33" fill="#F7AD7C"/>
<path d="M319.284 295.549C319.284 295.549 259.49 269.298 255.684 261.614C251.878 253.931 239.163 226.519 233.494 216.936C228.572 208.555 221.074 202.428 217.039 201.945C213.005 201.462 184.211 202.435 182.624 202.562C181.037 202.69 175.227 204.334 175.227 204.334L204.075 275.344C204.882 277.632 205.258 279.887 212.816 288.705C218.25 295.066 229.231 297.569 231.806 298.488C237.858 300.656 277.196 325.33 277.196 325.33" stroke="black" stroke-width="0.5" stroke-linecap="round" stroke-linejoin="round"/>
<path d="M178.408 260.99C178.408 260.99 177.009 262.842 175.604 264.795C174.198 266.748 175.254 271.68 178.347 273.23C181.44 274.78 189.248 278.095 192.583 277.652C195.918 277.21 205.077 273.774 206.549 270.009C208.022 266.245 198.998 260.675 198.998 260.675" fill="#F7AD7C"/>
<path d="M178.408 260.99C178.408 260.99 177.009 262.842 175.604 264.795C174.198 266.748 175.254 271.68 178.347 273.23C181.44 274.78 189.248 278.095 192.583 277.652C195.918 277.21 205.077 273.774 206.549 270.009C208.022 266.245 198.998 260.675 198.998 260.675" stroke="black" stroke-width="0.5" stroke-linecap="round" stroke-linejoin="round"/>
<path d="M201.351 264.285C201.351 264.285 198.527 266.104 198.231 267.486C197.935 268.868 199.361 270.989 200.497 271.472C201.634 271.955 206.549 269.07 206.65 268.56" fill="#F7AD7C"/>
<path d="M201.351 264.285C201.351 264.285 198.527 266.104 198.231 267.486C197.935 268.868 199.361 270.989 200.497 271.472C201.634 271.955 206.549 269.07 206.65 268.56" stroke="black" stroke-width="0.5" stroke-linecap="round" stroke-linejoin="round"/>
<path d="M189.994 228.116C207.982 220.117 157.085 227.129 156.876 228.787C156.627 230.76 155.303 234.209 156.258 237C156.93 239.014 161.166 245.818 163.083 248.247C164.999 250.676 165.773 252.864 171.556 253.756C182.025 255.38 187.593 257.36 189.584 256.897L196.88 252.871C196.88 252.871 197.666 235.423 194.385 237.484C192.872 238.43 203.665 226.465 197.962 227.196" fill="#F7AD7C"/>
<path d="M189.994 228.116C207.982 220.117 157.085 227.129 156.876 228.787C156.627 230.76 155.303 234.209 156.258 237C156.93 239.014 161.166 245.818 163.083 248.247C164.999 250.676 165.773 252.864 171.556 253.756C182.025 255.38 187.593 257.36 189.584 256.897L196.88 252.871C196.88 252.871 197.666 235.423 194.385 237.484C192.872 238.43 203.665 226.465 197.962 227.196" stroke="black" stroke-width="0.5" stroke-linecap="round" stroke-linejoin="round"/>
<path d="M158.813 241.02C158.813 241.02 161.778 237.853 164.347 237.088C165.907 236.648 167.539 236.52 169.148 236.712L163.917 228.022L157.139 232.155L158.813 241.02Z" fill="black"/>
<path d="M154.502 212.93C154.502 212.93 148.686 218.62 148.067 225.156C147.597 230.149 145.465 239.846 145.377 241.731C145.27 244.415 150.992 249.395 156.009 244.415C161.025 239.436 163.708 230.867 163.708 230.867L166.196 223.486" fill="#F7AD7C"/>
<path d="M154.502 212.93C154.502 212.93 148.686 218.62 148.067 225.156C147.597 230.149 145.465 239.846 145.377 241.731C145.27 244.415 150.992 249.395 156.009 244.415C161.025 239.436 163.708 230.867 163.708 230.867L166.196 223.486" stroke="black" stroke-width="0.5" stroke-linecap="round" stroke-linejoin="round"/>
<path d="M158.887 146.557C148.753 124.788 122.279 114.159 99.766 122.808C77.2528 131.458 67.2133 156.126 77.3469 177.895C87.4806 199.663 113.954 210.293 136.468 201.676C158.981 193.06 169.02 168.325 158.887 146.557Z" fill="#007FF5" stroke="black" stroke-width="0.5" stroke-linecap="round" stroke-linejoin="round"/>
<path d="M154.194 182.043C166.771 164.812 161.992 139.958 143.519 126.531C125.046 113.103 99.8744 116.186 87.2973 133.417C74.7203 150.648 79.4999 175.502 97.9731 188.93C116.446 202.358 141.617 199.275 154.194 182.043Z" fill="white" stroke="black" stroke-width="0.501049" stroke-linecap="round" stroke-linejoin="round"/>
<path d="M125.286 168.427C129.562 158.627 125.457 147.393 116.117 143.334C106.777 139.276 95.7395 143.93 91.4635 153.729C87.1875 163.529 91.2926 174.763 100.632 178.822C109.972 182.88 121.01 178.226 125.286 168.427Z" fill="#EDEDE6"/>
<path d="M160.319 145.785L140.691 149.59C140.182 149.688 139.659 149.68 139.153 149.569C138.648 149.458 138.17 149.244 137.75 148.942C137.33 148.64 136.976 148.255 136.711 147.811C136.445 147.368 136.273 146.874 136.206 146.362L136.165 146.08C136.011 145.02 136.266 143.941 136.877 143.061C137.488 142.181 138.411 141.564 139.46 141.336L155.081 138.316C157.192 137.927 162.458 145.369 160.319 145.785Z" fill="#EDEDE6"/>
<path d="M162.827 163.058L142.459 166.997C141.951 167.093 141.428 167.085 140.922 166.973C140.417 166.861 139.94 166.647 139.521 166.344C139.101 166.041 138.748 165.656 138.484 165.212C138.219 164.768 138.048 164.275 137.981 163.762L137.94 163.487C137.785 162.426 138.038 161.346 138.65 160.464C139.261 159.582 140.185 158.964 141.235 158.736L161.059 154.904C163.197 154.488 164.966 162.642 162.827 163.058Z" fill="#EDEDE6"/>
<path d="M118.191 157.233C119.2 163.272 115.367 170.278 109.765 171.6C104.164 172.922 98.2262 168.466 97.2175 162.42C96.2089 156.374 100.519 151.012 106.121 149.67C111.722 148.328 117.155 151.187 118.191 157.233Z" fill="black" stroke="black" stroke-width="0.5" stroke-linecap="round" stroke-linejoin="round"/>
<path d="M117.888 177.217C116.627 176.422 115.677 175.218 115.199 173.808C114.822 172.352 113.813 167.95 113.813 167.95L104.971 170.03C104.971 170.03 105.448 174.559 105.569 176.069C105.626 177.474 105.18 178.854 104.312 179.961" fill="#FFE0B3"/>
<path d="M117.888 177.217C116.627 176.422 115.677 175.218 115.199 173.808C114.822 172.352 113.813 167.95 113.813 167.95L104.971 170.03C104.971 170.03 105.448 174.559 105.569 176.069C105.626 177.474 105.18 178.854 104.312 179.961" stroke="black" stroke-width="0.5" stroke-linecap="round" stroke-linejoin="round"/>
<path d="M115.461 158.112L115.306 158.152L115.091 156.716C114.365 152.375 110.774 149.825 106.43 150.845C104.393 151.308 102.616 152.542 101.472 154.287C100.328 156.032 99.9072 158.151 100.297 160.199L100.566 161.642C100.473 161.651 100.381 161.667 100.291 161.689C99.0399 161.984 98.3405 163.434 98.5893 164.964C98.8381 166.493 99.9813 167.648 101.239 167.373C101.436 167.324 101.624 167.245 101.797 167.138C102.365 168.666 103.303 170.03 104.527 171.11C105.266 171.783 106.15 172.278 107.11 172.557C108.071 172.836 109.082 172.892 110.068 172.721C111.071 172.401 111.998 171.879 112.791 171.186C113.583 170.493 114.224 169.645 114.674 168.695C115.446 167.178 115.873 165.51 115.925 163.809C116.085 163.819 116.246 163.805 116.402 163.769C117.66 163.474 118.42 161.843 118.191 160.313C117.962 158.783 116.712 157.817 115.461 158.112Z" fill="#FFE0B3" stroke="black" stroke-width="0.5" stroke-linecap="round" stroke-linejoin="round"/>
<path d="M106.273 164.7C107.459 163.545 107.549 161.719 106.475 160.621C105.402 159.523 103.57 159.569 102.385 160.723C101.199 161.878 101.109 163.704 102.183 164.802C103.256 165.9 105.088 165.854 106.273 164.7Z" fill="white" stroke="black" stroke-width="0.5" stroke-linecap="round" stroke-linejoin="round"/>
<path d="M114.245 162.821C115.431 161.666 115.521 159.84 114.447 158.742C113.374 157.644 111.542 157.69 110.357 158.844C109.171 159.999 109.081 161.825 110.155 162.923C111.228 164.021 113.06 163.975 114.245 162.821Z" fill="white" stroke="black" stroke-width="0.5" stroke-linecap="round" stroke-linejoin="round"/>
<path d="M107.19 162.031C107.426 161.672 107.791 161.416 108.21 161.317C108.629 161.219 109.07 161.284 109.442 161.501" stroke="black" stroke-width="0.5" stroke-linecap="round" stroke-linejoin="round"/>
<path d="M99.867 160.568C99.867 160.568 98.0917 156.783 101.669 155.817C103.861 155.22 106.578 157.159 109.658 157.663C111.332 157.938 115.461 158.112 115.461 158.112L113.571 150.422L104.83 149.878L99.0735 155.918L99.867 160.568Z" fill="black" stroke="black" stroke-width="0.5" stroke-linecap="round" stroke-linejoin="round"/>
<path d="M112.51 153.737C115 151.311 115.19 147.475 112.933 145.167C110.677 142.859 106.828 142.955 104.338 145.38C101.848 147.805 101.658 151.642 103.914 153.95C106.171 156.257 110.019 156.162 112.51 153.737Z" fill="black" stroke="black" stroke-width="0.5" stroke-linecap="round" stroke-linejoin="round"/>
<path d="M114.418 147.188C115.797 145.845 115.902 143.719 114.652 142.441C113.402 141.162 111.27 141.215 109.89 142.558C108.511 143.902 108.406 146.027 109.656 147.306C110.906 148.584 113.038 148.532 114.418 147.188Z" fill="black" stroke="black" stroke-width="0.5" stroke-linecap="round" stroke-linejoin="round"/>
<path d="M101.669 125.392C122.299 117.46 146.554 127.204 155.841 147.147C159.701 155.253 160.497 164.479 158.08 173.123C160.146 168.292 161.158 163.077 161.048 157.825C160.937 152.574 159.708 147.405 157.441 142.665C148.155 122.721 123.9 112.977 103.269 120.909C91.569 125.405 83.5468 134.625 80.4939 145.402C82.499 140.821 85.4068 136.688 89.0445 133.251C92.6822 129.813 96.9755 127.14 101.669 125.392Z" fill="#126BAD" stroke="black" stroke-width="0.5" stroke-linecap="round" stroke-linejoin="round"/>
<path d="M160.857 141.356C150.717 119.587 124.249 108.951 101.736 117.608C79.223 126.264 69.1835 150.925 79.3171 172.694C89.4508 194.463 115.925 205.092 138.438 196.436C160.951 187.779 170.991 163.125 160.857 141.356ZM136.649 192.564C116.348 200.368 92.4767 190.779 83.3383 171.151C74.1999 151.522 83.2509 129.284 103.552 121.493C123.853 113.702 147.724 123.278 156.863 142.906C166.001 162.534 156.937 184.759 136.636 192.564H136.649Z" fill="#007FF5" stroke="black" stroke-width="0.5" stroke-linecap="round" stroke-linejoin="round"/>
<path d="M200.612 254.689L189.638 263.144L139.743 198.449L146.366 194.637C148.126 193.509 149.823 192.286 151.45 190.973L200.612 254.689Z" fill="#007FF5" stroke="black" stroke-width="0.5" stroke-linecap="round" stroke-linejoin="round"/>
<path d="M195.913 259.954C198.953 257.618 201.061 255.263 200.622 254.694C200.182 254.124 197.362 255.555 194.322 257.891C191.282 260.226 189.174 262.581 189.613 263.151C190.053 263.72 192.873 262.289 195.913 259.954Z" fill="#57BAA9" stroke="black" stroke-width="0.5" stroke-linecap="round" stroke-linejoin="round"/>
<path d="M108.01 165.655C108.365 165.757 108.738 165.776 109.101 165.709C109.464 165.643 109.806 165.493 110.101 165.272" stroke="black" stroke-width="0.5" stroke-linecap="round" stroke-linejoin="round"/>
<path d="M167.729 252.414C169.747 254.77 166.835 256.098 174.79 261.621C182.328 266.855 186.033 266.318 188.757 266.828C191.48 267.338 204.936 264.52 205.964 263.802C206.993 263.084 203.214 254.34 196.234 253.944" fill="#F7AD7C"/>
<path d="M167.729 252.414C169.747 254.77 166.835 256.098 174.79 261.621C182.328 266.855 186.033 266.318 188.757 266.828C191.48 267.338 204.936 264.52 205.964 263.802C206.993 263.084 203.214 254.34 196.234 253.944" stroke="black" stroke-width="0.5" stroke-linecap="round" stroke-linejoin="round"/>
<path d="M170.264 238.49C170.264 238.49 187.075 241.725 190.996 245.872C194.916 250.019 194.358 255.159 191.843 256.414C189.328 257.669 167.319 252.495 167.319 252.495" fill="#F7AD7C"/>
<path d="M170.264 238.49C170.264 238.49 187.075 241.725 190.996 245.872C194.916 250.019 194.358 255.159 191.843 256.414C189.328 257.669 167.319 252.495 167.319 252.495" stroke="black" stroke-width="0.5" stroke-linecap="round" stroke-linejoin="round"/>
<path d="M190.606 256.702C190.606 256.702 183.653 256.494 180.734 255.756C177.816 255.018 178.979 253.709 180.297 251.408C181.037 250.113 189.254 251.549 189.254 251.549C190.269 251.716 194.028 256.031 190.606 256.702Z" fill="#F7AD7C" stroke="black" stroke-width="0.5" stroke-linecap="round" stroke-linejoin="round"/>
<path d="M176.928 223.385L179.174 222.989L154.368 205.622C154.368 205.622 152.721 206.085 152.99 208.749C153.084 209.722 154.65 212.205 156.601 214.97C158.839 218.154 161.939 220.636 165.539 222.126C169.138 223.617 173.089 224.053 176.928 223.385Z" fill="black" stroke="black" stroke-width="0.5" stroke-linecap="round" stroke-linejoin="round"/>
<path d="M218.976 221.654C218.976 221.654 192.65 213.755 181.4 208.025C170.15 202.294 158.107 195.993 155.928 196.617C151.53 197.825 148.578 206.891 160.783 216.252C173.432 225.955 184.097 231.988 188.79 236.719C193.484 241.449 192.004 249.952 195.669 257.991C202.461 272.915 220.307 283.303 220.307 283.303" fill="#F7AD7C"/>
<path d="M218.976 221.654C218.976 221.654 192.65 213.755 181.4 208.025C170.15 202.294 158.107 195.993 155.928 196.617C151.53 197.825 148.578 206.891 160.783 216.252C173.432 225.955 184.097 231.988 188.79 236.719C193.484 241.449 192.004 249.952 195.669 257.991C202.461 272.915 220.307 283.303 220.307 283.303" stroke="black" stroke-width="0.5" stroke-linecap="round" stroke-linejoin="round"/>
<path d="M168.267 201.603C168.267 201.603 167.111 201.75 164.643 203.435C162.175 205.119 161.133 206.696 160.043 206.287C158.954 205.877 153.675 203.092 152.936 202.153C152.196 201.213 151.799 199.355 154.281 197.388C156.762 195.422 159.136 197.12 162.081 198.603C165.026 200.086 168.267 201.603 168.267 201.603Z" fill="#F7AD7C" stroke="black" stroke-width="0.5" stroke-linecap="round" stroke-linejoin="round"/>
<path d="M107.271 168.252C108.04 168.584 108.898 168.648 109.708 168.433C110.518 168.219 111.232 167.739 111.735 167.071" stroke="black" stroke-width="0.5" stroke-linecap="round" stroke-linejoin="round"/>
</g>
<defs>
<clipPath id="clip0_2522_26170">
<rect width="375.9" height="336" fill="white" transform="translate(0.0500488)"/>
</clipPath>
</defs>
</svg>
