<svg fill="none" height="142" viewBox="0 0 146 142" width="146" xmlns="http://www.w3.org/2000/svg" xmlns:xlink="http://www.w3.org/1999/xlink"><clipPath id="a"><path d="m0 0h145.972v142h-145.972z"/></clipPath><g clip-path="url(#a)"><path d="m0 72.2381c0-39.7028 40.3099-72.2381 79.9515-72.2381 39.6415 0 63.6295 32.5667 63.6295 72.2381 0 39.6709-39.945 69.7619-79.5968 69.7619-39.652 0-63.9842-30.091-63.9842-69.7619z" fill="#f5f3f3"/><g stroke="#000" stroke-linecap="round" stroke-linejoin="round" stroke-width=".5"><path d="m55.0241 48.2806-6.5477 6.7495c-1.4098 1.4523-3.7491 4.8584-3.0076 6.6868 0 0 6.861 12.172 8.1664 15.1497s5.8376 1.5672 5.8376 1.5672 2.3601-2.9777 5.2215-6.0494-7.049-11.0646-7.049-11.0646l5.9734-5.433z" fill="#f49c60"/><path d="m145.711 109.506s-12.782-8.358-25.658-18.1479c-4.752-3.5941-9.754-8.8391-11.154-11.4929-2.506-4.7434-11.1945-26.6844-14.484-30.2263-1.2427-1.3478-5.7332-2.2777-5.7332-2.2777-1.5078-1.1198-3.1768-2.0041-4.95-2.6225-2.6838-.9716-6.1718.4911-8.8661.5224 0 0-3.1329-1.3269-4.5949-1.8284-3.3731-1.097-6.5268.7941-10.8816 3.5419-4.8142-1.703-11.0486-6.1225-18.484-8.4838-2.2766-.7209-13.5759-5.4644-18.3275-7.0525-3.0284-1.0448-2.8927-.2821-6.7044-2.1523-.9085-.4492-1.6709-.8672-1.911.1045-.6997 2.706.2715 7.9928 6.2658 10.6152 3.0389 1.327 12.5942 6.1122 17.3562 7.7734 3.8535 2.3404 9.8582 7.4077 14.4635 11.7855 1.1486 1.0869 2.0374 2.419 2.6003 3.8971 1.5455 3.6219 2.5992 7.4345 3.1329 11.3362.4177 3.5419-.2819 4.8688-3.5506 5.2241-1.6709.188-6.4538-1.4001-7.8009-2.0897-2.0155-1.0448-13.7639-5.6524-24.7499-1.703-3.5297 1.2747-1.2114 6.2688 2.0886 7.1778 3.0285.8568 12.3436 2.4971 16.4059 5.2972 5.5557 3.824 10.1089 8.0033 11.6022 9.0794 3.2478 2.3403 25.7211 8.3583 30.2847 10.4483 8.4066 3.855 40.101 29.725 40.101 29.725z" fill="#efb484"/><path d="m59.3893 46.9642 8.4066 4.1688"/><path d="m74.8658 45.2507 4.6576 1.9851"/><path d="m20.8651 79.2383s5.6079.4911 6.767.7836c1.1592.2926.4073 3.7927-.4699 4.1793 0 0-7.2057-1.3165-7.9785-1.4105-.7727-.0941-1.2009-3.8345 1.6814-3.5524z" fill="#efb484"/><path d="m38.2944 62.0199-2.0886-28.6592-3.5402-1.4209-8.8556 6.0494c-.4971.3456-.9108.7979-1.2107 1.324-.2999.526-.4786 1.1125-.5228 1.7164.0501.2403.1617.4635.3237.6478.5693.4532.9431 1.1077 1.0443 1.8284.1525 1.1262.0038 2.2726-.431 3.3225s-1.1401 1.9656-2.044 2.6538c-1.744 1.1911-3.488.4389-3.8848-1.6717-.1566-.8463 3.1329-1.7239 3.3522-2.6224 0 0-2.569-1.0448-2.9658-1.2851-.3812-.2328-.8228-.3471-1.269-.3285s-.8768.1693-1.2373.433l-8.90788 6.1121 2.08859 10.7406c.09193.5995.06354 1.2113-.08349 1.7997-.14702.5884-.40975 1.1416-.77283 1.6273-.20513.134-.44427.2065-.68924.2089-.71235-.0926-1.43253.0988-2.00505.5329-.89994.6951-1.60004 1.616-2.02922 2.6693s-.57217 2.2014-.41444 3.3279c.05571.4578.23206.8926.51098 1.2597.27892.3672.65039.6536 1.07635.8299.66836.2299 3.57151 1.4314 3.57151 1.4314.68923-.4702-.00001-3.0717.4386-3.8867.15817-.2465.35573-.4653.58481-.6478.67879-.1462 1.53512.0001 1.82751 1.5568l2.0051 10.7407 3.5297 1.4313 21.2828-18.3886c.4883-.3946.8662-.9089 1.0968-1.493s.3061-1.218.219-1.8399z" fill="#ff8661"/><path d="m28.3736 56.7958 2.7465-11.3571s-8.887-3.8449-8.7616-3.7404c.5692.4532.943 1.1076 1.0443 1.8284.1533 1.1191.0092 2.2588-.418 3.3043-.4272 1.0456-1.1223 1.96-2.0153 2.6511-1.7439 1.1911-3.1328-.7522-2.8509 1.3896.1044 1.0344 10.4743 7.0838 10.255 5.9241z" fill="#000"/><path d="m14.9544 53.5151-8.89745-3.3956 2.08859 10.7406c.09193.5995.06354 1.2113-.08349 1.7997-.14702.5884-.40975 1.1416-.77283 1.6273-.20718.1295-.44504.2016-.68924.209-.35283-.0488-.71182-.0268-1.05606.0647s-.66684.2506-.94899.4681c-.9016.6937-1.60291 1.6144-2.03226 2.6681-.42934 1.0537-.57132 2.2025-.4114 3.3291.05466.4582.2306.8934.50966 1.2608.27905.3673.65109.6535 1.07767.8288.66835.2299 3.57151 1.4314 3.57151 1.4314.68923-.4701 2.55853-4.5344 2.85089-2.9777l2.0051 10.7407 3.5297 1.4314 21.2828-18.3887c.919-.6373-21.2723-12.3288-22.0242-11.8377z" fill="#ce6e57"/><path d="m41.8241 63.4513-5.6183-30.0801-8.8765 6.0599c-.4965.3477-.9089.8022-1.2071 1.3301-.2981.5279-.4744 1.1158-.516 1.7207.0449.239.1573.4602.3237.6374.5667.4598.9396 1.1164 1.0443 1.8388.1591 1.1251.0167 2.2721-.4127 3.324-.4293 1.0519-1.1302 1.9708-2.0309 2.6628-1.744 1.1911-3.4775.4492-3.8744-1.6717-.1498-.8939-.0854-1.8106.188-2.6747.0441-.3014.0441-.6076 0-.909 0-.2821-.5222-.5433-.8354-.606-.5387-.0463-1.0769.0939-1.5247.3971l-8.86611 6.0912 2.01551 10.7406c.1032.5791.083 1.1734-.0591 1.7442-.1422.5707-.4032 1.105-.7659 1.5679-.0921.099-.2036.178-.3276.232-.124.0539-.2578.0816-.393.0814-.71373-.0896-1.43405.1055-2.00503.5433-.90074.692-1.60162 1.6109-2.03097 2.6628s-.57177 2.199-.41269 3.324c.39683 2.0896 2.0886 2.8627 3.87435 1.6717.71774-.5191 1.30424-1.1989 1.71264-1.9852.1554-.2486.3534-.4679.5848-.6478.6788-.1567 1.5351 0 1.8275 1.5464l2.0051 10.751 24.8125-16.9677c.5087-.3912.9037-.9113 1.1442-1.5064s.3178-1.2437.2238-1.8787z" fill="#ff8661"/></g><path d="m26.0657 32.6085 16.1344 6.3106-.4699 10.8974-20.4892-9.3406" fill="#efb484"/><path d="m25.084 32.3995 17.962 6.8226" stroke="#000" stroke-linecap="round" stroke-linejoin="round" stroke-width=".5"/><path d="m20.1758 39.9848 19.6642 9.3197" stroke="#000" stroke-linecap="round" stroke-linejoin="round" stroke-width=".5"/><path d="m17.9829 29.5472-2.6421-.7627s-2.4332.1045-1.2532 1.7866c1.1801 1.6821 4.1146 2.7165 5.7019 2.915s2.8092-2.1418 2.8092-2.1418z" fill="#efb484" stroke="#000" stroke-linecap="round" stroke-linejoin="round" stroke-width=".5"/></g></svg>