<svg viewBox="0 0 2848 1800" xmlns="http://www.w3.org/2000/svg"><path d="M2 1356c0-154.72 0-309.43.602-465.381 3.282-3.178 6.187-4.879 8.603-7.11 19.316-17.83 38.708-35.584 57.747-53.707 21.683-20.64 43.265-41.397 64.451-62.543 21.428-21.386 42.3-43.328 63.454-64.99 9.309-9.531 18.94-18.757 28.027-28.495 22.924-24.57 45.742-49.241 68.373-74.081 18.595-20.412 37.126-40.895 55.203-61.764 21.126-24.39 41.993-49.016 62.492-73.934 27.266-33.142 54.576-66.27 80.935-100.13 29.228-37.546 57.676-75.711 85.94-113.994 16.591-22.474 32.574-45.425 48.105-68.647 33.5-50.09 66.617-100.436 99.676-150.818C731.596 21.28 736.562 11.486 742 2h2108c0 90.214 0 180.182-.55 271.454-17.28 13.97-34.11 26.5-50.72 39.327-70.38 54.372-140.93 108.53-210.94 163.38-40.11 31.424-79.67 63.587-118.83 96.194a4901.952 4901.952 0 0 0-187.1 164.019c-69.08 63.741-136.01 129.657-200.56 197.955-53.32 56.415-105.46 113.941-154.61 174.051-40.27 49.24-80.4 98.64-119.3 148.96-47.68 61.69-92.87 125.23-136.33 189.97-23.95 35.68-48.43 71.05-71.01 107.58-39.1 63.27-72.77 129.51-103.07 197.43-7.32 16.41-14 33.11-20.98 49.68-348.05 0-696.1 0-1045.484-.52-4.471-3.51-7.599-6.5-10.743-9.47-66.783-63.17-132.455-127.47-196.496-193.42-74.03-76.24-145.568-154.75-213.91-236.15-2.073-2.46-4.894-4.31-7.367-6.44Z" style="fill:#082760;fill-rule:nonzero" transform="matrix(1.0007 0 0 1.00111 -3.001 -2.002)"/><path d="M1476.94 1802c6.04-16.57 12.72-33.27 20.04-49.68 30.3-67.92 63.97-134.16 103.07-197.43 22.58-36.53 47.06-71.9 71.01-107.58 43.46-64.74 88.65-128.28 136.33-189.97 38.9-50.32 79.03-99.72 119.3-148.96 49.15-60.11 101.29-117.636 154.61-174.051 64.55-68.298 131.48-134.214 200.56-197.955a4901.952 4901.952 0 0 1 187.1-164.019c39.16-32.607 78.72-64.77 118.83-96.194 70.01-54.85 140.56-109.008 210.94-163.38 16.61-12.828 33.44-25.357 50.72-38.402.55 508.8.55 1017.981.55 1527.621H1476.94Z" style="fill:#0072ee;fill-rule:nonzero" transform="matrix(1.00141 0 0 1.01007 -5.02 -16.762)"/><path d="M741.063 2c-4.5 9.486-9.467 19.281-15.455 28.406-33.06 50.382-66.176 100.728-99.676 150.818-15.531 23.222-31.514 46.173-48.105 68.647-28.264 38.283-56.712 76.448-85.94 113.994-26.359 33.86-53.669 66.988-80.935 100.13-20.5 24.918-41.366 49.544-62.492 73.934-18.077 20.87-36.608 41.352-55.203 61.764-22.63 24.84-45.449 49.511-68.373 74.081-9.086 9.738-18.718 18.964-28.027 28.496-21.154 21.661-42.026 43.603-63.454 64.99-21.186 21.145-42.768 41.903-64.45 62.542-19.04 18.123-38.432 35.877-57.748 53.708-2.416 2.23-5.321 3.931-8.603 6.184C2 594.159 2 298.318 2 2h739.063Z" style="fill:#046a6c;fill-rule:nonzero" transform="matrix(1.00127 0 0 1.00147 -3.003 -2.003)"/><path d="M2 1356.94c2.473 1.19 5.294 3.04 7.367 5.5 68.342 81.4 139.88 159.91 213.91 236.15 64.04 65.95 129.713 130.25 196.496 193.42a537.18 537.18 0 0 1 9.817 9.47c-142.114.52-284.637.52-427.59.52v-445.06Z" style="fill:#f6bd8b;fill-rule:nonzero" transform="matrix(1 0 0 1.00211 -2 -2.857)"/></svg>
