<svg viewBox="0 0 1424 900" fill="none" xmlns="http://www.w3.org/2000/svg"><path fill="#07265F" d="M0 0h1424v900H0z"/><path d="M-98.033-1146.49C-503.146-463.774-471.79 106.615-782.586 671.107-470.331 766.185 311.793 548.74 777.477-5.853 1243.12-560.183 1119.09-1229.18 1086.81-1419.66l-51.14-275.41c-242.277-199.25-892.897 116.74-1133.703 548.58Z" fill="#225D53"/><path d="M1143.9 1780.78C773.124 1116.53 316.711 979.801.557 457.905-197.265 782.345-338.137 1732.52-91.106 2426.6c246.846 693.95 816.762 755.63 977.826 776.63l234.66 25.29c251.15-213.84 263.18-1045.04 22.52-1447.74Z" fill="#FFB36B"/><path d="M714.346 836.345C980.476 228.86 1372.29 80.805 1603.41-397.993 1809.43-124.225 2023.96 704.1 1870.38 1330.36c-153.43 626.13-652.98 714.97-793.82 743.22l-205.687 36.49c-242.877-173.14-331.938-904.48-156.527-1273.725Z" fill="#0072EF"/></svg>
