<svg fill="none" viewBox="0 0 138 24" xmlns="http://www.w3.org/2000/svg"><g clip-rule="evenodd" fill-rule="evenodd"><path d="m0 0v24l24-24zm14.4 14.4-9.6 9.6h19.2z" fill="#0072ef"/><path d="m73.468 19.535 1.682-2.992c.705.686 1.629 1.317 2.877 1.317 1.709 0 2.78-1.153 2.78-2.937l-.007-12.242h3.895v12.297c0 4.337-2.653 6.34-6.37 6.34-1.818 0-3.554-.494-4.857-1.784zm-14.964-5.035 2.823-7.921 2.822 7.92h-5.645zm6.704 3.245 1.112 3.244h4.399l-6.976-18.307h-4.833l-7.002 18.308h4.396l1.14-3.244h7.764zm-26.343-4.085 5.484 7.329h4.75l-7.682-9.717 7.194-8.591h-4.75l-6.414 8.18v-8.18h-3.847v18.309h3.847v-5.627l1.418-1.702zm56.755.608 2.823-7.69 2.822 7.69zm6.705 3.708 1.113 3.013h4.398l-6.977-18.308h-4.833l-7.002 18.309h4.397l1.14-3.013h7.764zm21.123-2.476c0-1.153-.814-2.158-2.335-2.158h-5.029v4.17h5.029c1.466 0 2.335-.695 2.335-2.012zm-.353-7.467c0-1.153-.814-1.876-2.117-1.876h-4.894v3.94h4.894c1.303 0 2.117-.911 2.117-2.064zm-10.906 12.957v-18.308h9.63c3.447 0 5.212 2.224 5.212 4.666 0 2.305-1.412 3.843-3.122 4.2 1.926.302 3.474 2.196 3.474 4.502 0 2.744-1.818 4.94-5.265 4.94zm25.661 0h-3.846v-18.308h3.846z" fill="#263240"/></g></svg>