<svg fill="none" height="64" viewBox="0 0 64 64" width="64" xmlns="http://www.w3.org/2000/svg" xmlns:xlink="http://www.w3.org/1999/xlink"><clipPath id="a"><path d="m0 0h64v64h-64z"/></clipPath><g clip-path="url(#a)"><path clip-rule="evenodd" d="m14.2218 5.39299c5.2623-3.5162 11.4492-5.3929719 17.7782-5.3929719 4.2036-.00447341 8.3667.8201779 12.2512 2.4267419 3.8844 1.60657 7.4138 3.9635 10.3862 6.93587s5.3293 6.50177 6.9359 10.38627c1.6065 3.8844 2.4312 8.0476 2.4267 12.2511 0 6.329-1.8768 12.5159-5.393 17.7783-3.5162 5.2623-8.5139 9.3639-14.3611 11.7859-5.8473 2.422-12.2814 3.0557-18.4888 1.8209-6.2074-1.2347-11.9092-4.2824-16.3845-8.7577-4.47528-4.4752-7.52299-10.1771-8.757715-16.3845-1.234727-6.2074-.60102-12.6415 1.820985-18.4888 2.422-5.8472 6.52352-10.8449 11.78593-14.36111zm16.1782 24.20701c1.9.6 6.5.9 12-1.2 6.2-2.4 11.1-9.1 9.8-14.6-1.5-5.69998-10.9-7.59998-19.8-4.39998-5.3 1.89998-11.1 4.79998-15.2 8.69998-4.9 4.6-5.7 8.6-5.4 10.3.816 4.3766 5.4839 7.5977 9.187 10.153 1.2889.8895 2.461 1.6982 3.313 2.447-1 .5-8.1 4.1-9.8 7.8-1.8 3.9.2 6.7 1.6 7.1 2.0342.5052 4.1762.3514 6.1173-.4394 1.941-.7908 3.5808-2.1777 4.6827-3.9606.9508-1.4277 1.5467-3.062 1.7381-4.7666.1913-1.7047-.0275-3.4304-.6381-5.0334 1.5975-.4225 3.2629-.5245 4.9-.3 5.6.6 6.7 4.1 6.5 5.6-.0853.5279-.2923 1.0286-.6048 1.4626-.3124.4339-.7216.7891-1.1952 1.0374-.4.2-.5.3-.5.5.1.3.3.3.6.2.8512-.2591 1.6035-.7709 2.1572-1.4674.5536-.6965.8824-1.5449.9428-2.4326.1-3.5-3.2-7.3-9-7.2-1.6919-.0126-3.3766.2232-5 .7 0-.1-.1-.2-.2-.3-1.1034-1.1646-2.4979-2.226-3.8929-3.2876-3.1565-2.4023-6.3151-4.8061-6.1071-8.4124.1-1.8.7-6.8 12.8-12.8 9.8-5 17.7-3.6 19.1-.6 1.9 4.3-4.2 12.3-14.5 13.4-3.9.5-6-1-6.5-1.6s-.6-.6-.8-.5c-.2778.1852-.1268.6277-.0236.9304.0083.0241.0162.0474.0236.0696.8006 1.4185 2.1313 2.4615 3.7 2.9zm-12.2999 23.1c-1.2-.7-.6-3.5 1.6-5.8 1.6574-1.6757 3.5841-3.0616 5.7-4.1.05-.05.1-.075.15-.1s.1-.05.15-.1c.4196 1.5774.3849 3.2414-.1 4.8-.05.1-.075.175-.1.25s-.05.15-.1.25-.075.175-.1.25-.05.15-.1.25c-.4066.7929-.9105 1.5319-1.5 2.2-1.9 2-4.5 2.7-5.6 2.1z" fill="#cd679a" fill-rule="evenodd"/></g></svg>