<svg fill="none" height="64" viewBox="0 0 72 64" width="72" xmlns="http://www.w3.org/2000/svg" xmlns:xlink="http://www.w3.org/1999/xlink"><clipPath id="a"><path d="m0 0h72v64h-72z"/></clipPath><g clip-path="url(#a)"><path clip-rule="evenodd" d="m56.7636 19.9368c9.1407 2.7979 15.1027 7.3097 15.1027 12.0705 0 4.7462-5.9327 9.258-15.0149 12.0559 2.1241 9.2872 1.2012 16.6848-2.915 19.0579-.9668.5566-2.0801.8203-3.3106.8203-4.0284 0-9.3019-2.8418-14.634-7.7931-5.3322 4.9806-10.6057 7.8517-14.6341 7.8517-1.2304 0-2.3437-.2637-3.2959-.8203-4.1309-2.3731-5.0684-9.7853-2.959-19.1019-9.1408-2.7979-15.1028-7.3097-15.1028-12.0705 0-4.7461 5.93271-9.2433 15.0442-12.0558-2.1241-9.2873-1.2012-16.68485 2.9151-19.057932.9668-.556649 2.0801-.8203247 3.3106-.8203247v-.0146484c4.0283 0 9.3019 2.8418451 14.634 7.7930851 5.3321-4.98054 10.6056-7.85168 14.634-7.85168v.0146612c1.2101.0021111 2.3183.2658998 3.2666.8203118 4.131 2.373087 5.0685 9.785327 2.9591 19.101827zm-6.2404-16.67013c-3.0466.00778-7.5224 2.43877-12.2902 6.87023 2.0655 2.1533 4.1163 4.6143 6.0938 7.3243 3.296.3516 6.4308.8936 9.3019 1.5967.3223-1.4795.586-2.9297.7471-4.3067.6739-5.59579-.1904-9.94644-2.1826-11.08904-.4541-.24902-.9961-.38086-1.67-.38086zm-16.9485 6.88483c-4.7754-4.40923-9.2726-6.82625-12.3048-6.82625v.01464c-.6739 0-1.2452.11719-1.6846.38087-1.9776 1.15724-2.8272 5.50789-2.1387 11.10364.1757 1.3624.4248 2.7833.7617 4.2482 2.8711-.7178 6.0059-1.2598 9.3165-1.6114 1.9483-2.71 3.9991-5.1563 6.0499-7.3097zm17.2415 17.8714c.7617-1.9483 1.4356-3.8966 1.9776-5.7862-1.919-.4688-3.9259-.8497-6.006-1.1573.7178 1.1133 1.4356 2.2559 2.1094 3.4278.6885 1.1719 1.3184 2.3438 1.919 3.5157zm-8.2618 15.4104c1.2158-1.7432 2.3877-3.6182 3.5303-5.5958 1.0986-1.919 2.1094-3.8819 3.0323-5.8448-.9229-1.9629-1.9337-3.9112-3.047-5.8302-1.1426-1.9629-2.3291-3.8233-3.5449-5.5665-2.168-.1758-4.38-.2783-6.5919-.2783-2.2266 0-4.4386.1025-6.6212.293-1.2159 1.7432-2.3878 3.6182-3.5304 5.5958-1.0986 1.9189-2.124 3.8818-3.0322 5.8448.9228 1.9629 1.9336 3.9112 3.0469 5.8301 1.1426 1.963 2.3291 3.8233 3.545 5.5665 2.168.1758 4.3799.2783 6.5919.2783 2.2266 0 4.4385-.1025 6.6212-.2929zm10.2833-1.67c-.5566-1.9043-1.2305-3.8672-2.0215-5.8301-.6006 1.1719-1.2305 2.3584-1.9043 3.5303-.6739 1.1865-1.3916 2.3438-2.1094 3.4717 2.0947-.3076 4.1162-.7031 6.0352-1.1719zm-20.9476 5.1124c1.3477 1.7139 2.71 3.2813 4.0724 4.6876 1.3476-1.4063 2.71-2.9737 4.0283-4.6876-1.333.0733-2.6953.1026-4.0723.1026-1.3623 0-2.71-.044-4.0284-.1026zm-12.8322-5.0977c1.919.4687 3.9258.8496 6.006 1.1572-.7178-1.1133-1.421-2.2559-2.1094-3.4278-.6885-1.1719-1.3184-2.3437-1.919-3.5156-.7618 1.9482-1.4356 3.8965-1.9776 5.7862zm20.9036-24.6391c-1.3476-1.7139-2.71-3.2813-4.0723-4.6875-1.3477 1.4062-2.71 2.9736-4.0284 4.6875 1.3331-.0732 2.6954-.1025 4.0724-.1025 1.3623 0 2.71.0439 4.0283.1025zm-17.0217 7.4123c.6738-1.1866 1.3916-2.3438 2.1094-3.4718-2.0947.3076-4.1163.7032-6.0352 1.1573.5566 1.9043 1.2304 3.8672 2.0215 5.8301.6006-1.1719 1.2305-2.3438 1.9043-3.5156zm-19.6878 7.4561c0 2.2999 3.35455 5.2003 8.5402 7.4122 1.2744.542 2.6514 1.0401 4.1016 1.4942.8203-2.8565 1.9043-5.8302 3.252-8.8771-1.3623-3.0616-2.461-6.0499-3.2959-8.921-1.421.4541-2.7979.9375-4.0577 1.4795-5.18565 2.1973-8.5402 5.1124-8.5402 7.4122zm14.2385 17.2561c-.6738 5.5958.1904 9.9465 2.1827 11.0891.4394.249.9961.3808 1.6552.3955 3.047 0 7.5295-2.4317 12.3049-6.8702-2.0654-2.1534-4.1162-4.6144-6.0938-7.3244-3.296-.3515-6.4308-.8935-9.3019-1.5967-.3223 1.4795-.586 2.9298-.7471 4.3067zm34.7906 11.0305c1.9775-1.1573 2.8272-5.5079 2.1387-11.1037-.1612-1.3623-.4248-2.7832-.7618-4.2628-2.8711.7178-6.0059 1.2598-9.3165 1.6114-1.9483 2.71-3.9991 5.1563-6.0499 7.3097 4.7755 4.4092 9.2726 6.8263 12.3049 6.8263.6738 0 1.2451-.1172 1.6846-.3809zm3.7207-19.3948c1.4209-.4541 2.7979-.9376 4.0577-1.4796 5.1856-2.1973 8.5402-5.1123 8.5548-7.4122 0-2.2998-3.3545-5.2003-8.5401-7.4122-1.2891-.542-2.6661-1.0401-4.1163-1.4942-.8203 2.8565-1.9043 5.8302-3.252 8.8771 1.3623 3.0616 2.461 6.0499 3.2959 8.9211zm-13.3889-8.8917c0 3.6972-2.9972 6.6944-6.6944 6.6944s-6.6944-2.9972-6.6944-6.6944c0-3.6973 2.9972-6.6945 6.6944-6.6945s6.6944 2.9972 6.6944 6.6945z" fill="#61dafb" fill-rule="evenodd"/></g></svg>