<svg viewBox="0 0 416 170" xmlns="http://www.w3.org/2000/svg"><path d="M100.25.76C77.52 26.25 47.46 30.82 20.58 63.45 4.85 82.54-1.85 110.56 9.5 134c15.69-17.81 33.26-27.12 48.85-35 9-4.56 6.71-10.68-6.21-10.61C36 88.46 30 75.42 42.61 64.87 64.46 47.61 72.34 52 90.18 34.26c-3.07 22.59-23.41 22.4-40.76 36.05-6.89 5.43-4.46 9.91 4.27 10 23.57.18 24.56 18 11.14 25.1C39.68 118.65 16 126.31 1 166.09c3.26 3.51 10.15 3.14 10.15 3.14 4.57-12 12.6-29.87 19.69-30 10.49-.19 47.54-.2 66.56-35.08S111.57 18.83 100.25.76z" fill="#86d5bc"/><g fill="#fff"><path d="M173.51 74.34h19.65c-.17-15.88-12.81-26.62-32.54-26.62-19.4 0-33.37 10.57-33.25 26.37 0 12.89 9 20.14 23.67 23.5l8.87 2.07c9.33 2.16 13.52 4.69 13.6 9.46-.08 5.18-4.93 8.78-13.18 8.78-9.08 0-15.05-4.22-15.51-12.39h-19.65c.25 19.86 14.06 29.35 35.4 29.35 21.15 0 33.67-9.58 33.75-25.7-.08-13.56-9.25-21.85-26-25.54L161 82c-7.71-1.66-12.6-4.23-12.44-9.28 0-4.65 4-8 12-8s12.44 3.56 12.95 9.62zM225 134.86c8.87 0 15-3.44 18.49-10h.51v8.87h19V90.5c0-13.47-12-21.22-28.19-21.22-17.12 0-26.82 8.62-28.43 20.23l18.69.66c.87-4.06 4.23-6.55 9.58-6.55 5 0 8.12 2.41 8.12 6.68v.2c0 3.9-4.23 4.73-15.09 5.68C214.82 97.26 204 102 204 116.12c0 12.6 8.79 18.74 21 18.74zm6.26-13.27c-4.69 0-8-2.24-8-6.46s3.23-6.6 9-7.47c3.77-.53 8.42-1.36 10.7-2.57v6.06c-.03 6.21-5.26 10.44-11.72 10.44zM307.45 158.45c19.2 0 32.3-8.75 32.3-24.42V70.11h-20.19V81H319c-2.45-5.85-8-11.73-18-11.73-13.31 0-25.37 10.24-25.37 32.58 0 21.64 11.48 31.05 25.45 31.05 9.37 0 15.63-4.35 18-10.24h.71v11.19c0 7.63-5 10.53-11.78 10.53-6.51 0-10.4-2.48-11.48-5.88l-19.19 1.07c1.47 10.63 11.96 18.88 30.11 18.88zm.63-40.3c-7.51 0-11.69-6.09-11.69-16.29s4.14-16.75 11.69-16.75 11.73 6.43 11.73 16.75-4.36 16.29-11.73 16.29zM384.78 135c16.71 0 27.69-8.08 30-20.6l-18.61-.54c-1.58 4.23-5.72 6.51-11 6.51-7.79 0-12.6-5.18-12.6-13v-.53H415v-5.06c0-21-12.77-32.5-30.84-32.5-19.24 0-31.59 13.18-31.59 32.91 0 20.4 12.19 32.81 32.21 32.81zm-12.23-39.94a11.63 11.63 0 0112-11.15c6.68 0 11.49 4.64 11.57 11.15z"/></g></svg>