<svg viewBox="0 0 452 396" fill="none" xmlns="http://www.w3.org/2000/svg">
  <path d="M393.458 278.992c22.623-85.272-110.889-174.836-196.1-215.04-90.205-42.55-144.182 35.741-166.805 121.006C7.93 270.223 72.05 363.595 168.908 389.303c96.857 25.709 201.952-25.053 224.55-110.311Z" fill="#B4F2CD"/>
  <path d="M165.768 240.74c27.36 0 49.539-9.065 49.539-20.248 0-11.183-22.179-20.248-49.539-20.248-27.359 0-49.539 9.065-49.539 20.248 0 11.183 22.18 20.248 49.539 20.248Z" fill="#000" stroke="#000" stroke-width=".5" stroke-linecap="round" stroke-linejoin="round"/>
  <path d="m102.841 160.258 5.101 61.286c0 10.313 17.902 18.675 39.979 18.675 22.078 0 39.98-8.362 39.98-18.675l5.068-60.733-90.128-.553Z" fill="#fff" stroke="#000" stroke-width=".5" stroke-linecap="round" stroke-linejoin="round"/>
  <path d="M193.001 160.258c0 11.637-20.185 21.061-45.08 21.061-24.894 0-45.08-9.424-45.08-21.061.008-1.248.236-2.485.675-3.655 3.708-9.89 22.175-17.406 44.405-17.406 24.895 0 45.08 9.435 45.08 21.061Z" fill="#fff" stroke="#000" stroke-width=".5" stroke-linecap="round" stroke-linejoin="round"/>
  <path d="M187.803 159.911c0 10.292-17.847 18.632-39.882 18.632-22.034 0-39.881-8.34-39.881-18.632a9.18 9.18 0 0 1 .598-3.253c3.263-8.752 19.576-15.4 39.283-15.4 22.035.021 39.882 8.361 39.882 18.653Z" fill="#E4DDCE" stroke="#000" stroke-width=".5" stroke-linecap="round" stroke-linejoin="round"/>
  <path d="M182.778 168.967c-6.819-5.705-19.87-9.576-34.802-9.576-14.933 0-28.038 3.871-34.857 9.576 6.819 5.715 19.87 9.576 34.857 9.576 14.987 0 27.983-3.861 34.802-9.576Z" fill="#000"/>
  <path d="M161.668 171.906 225.074.271s-38.119 34.965-46.255 45.04c-8.135 10.075-35.748 86.11-35.748 86.11l15.78 37.221 2.817 3.264Z" fill="#6AC38B" stroke="#000" stroke-width=".5" stroke-linecap="round" stroke-linejoin="round"/>
  <path d="M225.074.271s-30.822 42.86-39.914 61.644c-9.092 18.784-31.105 79.267-31.105 79.267" stroke="#000" stroke-width=".5" stroke-linecap="round" stroke-linejoin="round"/>
  <path d="m143.082 171.906 18.586 1.529L255.57 48.044l-28.321 21.148-84.167 102.714Z" fill="#4F7E60" stroke="#000" stroke-width=".5" stroke-linecap="round" stroke-linejoin="round"/>
  <path d="M270.1 94.363c12.79 5.423 34.617 13.014 34.617 13.014s-25.395-48.488-33.519-57.663c-8.124-9.175-15.628-1.681-15.628-1.681l-28.277 21.148a15.266 15.266 0 0 1 8.539-.767 15.238 15.238 0 0 1 7.6 3.955c7.853 7.071 20.11 19.24 26.668 21.994ZM130.401 139.62s-28.854-66.665-43.732-72.576C71.791 61.135.272 71.773.272 71.773s47.973 11.659 60.698 20.54c12.724 8.883 65.885 68.683 65.885 68.683l6.732 9.251-3.186-30.627Z" fill="#6AC38B" stroke="#000" stroke-width=".5" stroke-linecap="round" stroke-linejoin="round"/>
  <path d="M5.177 71.079s66.82 0 80.763 16.658c6.112 7.31 40.915 55.31 40.915 55.31" stroke="#000" stroke-width=".5" stroke-linecap="round" stroke-linejoin="round"/>
  <path d="M161.668 143.416s-17.129-66.535-25.732-80.102c-8.602-13.567-35.259-39.498-35.259-39.498l33.421 140.986 27.57-21.386Z" fill="#6AC38B" stroke="#000" stroke-width=".5" stroke-linecap="round" stroke-linejoin="round"/>
  <path d="M101.906 25.009s24.775 44.465 29.267 61.134c4.491 16.669 6.982 50.278 6.982 50.278" stroke="#000" stroke-width=".5" stroke-linecap="round" stroke-linejoin="round"/>
  <path d="m119.623 161.462 20.772 16.799 3.644-1.963-39.49-53.163-35.553-7.212 50.627 45.539Z" fill="#4F7E60" stroke="#000" stroke-width=".5" stroke-linecap="round" stroke-linejoin="round"/>
  <path d="M104.549 123.135s-37.413.792-48.028 2.864c-10.614 2.071-25.786 18.534-25.786 18.534s2.251-22.677 11.757-26.028c9.505-3.352 26.286-3.796 26.286-3.796l35.771 8.426Z" fill="#6AC38B" stroke="#000" stroke-width=".5" stroke-linecap="round" stroke-linejoin="round"/>
  <path d="m168.661 166.245-9.984 11.062-12.083 1.03 3.785-11.127s16.009-41.797 17.401-52.198c1.393-10.4 5.993-9.511 5.993-9.511l33.443-2.928-38.555 63.672Z" fill="#4F7E60" stroke="#000" stroke-width=".5" stroke-linecap="round" stroke-linejoin="round"/>
  <path d="m154.98 177.621-14.585.64-4.84-4.826-20.914-62.62 35.738 2.376s7.004.347 7.406 7.591c.403 7.245-2.805 56.839-2.805 56.839Z" fill="#4F7E60" stroke="#000" stroke-width=".5" stroke-linecap="round" stroke-linejoin="round"/>
  <path d="M208.097 99.33s21.828 12.765 30.289 42.817c2.73 9.685 1.805 34.433 1.805 34.433s-21.947-8.08-29.723-27.568c-9.614-24.12-36.978-43.901-36.749-43.543l34.378-6.139ZM150.379 113.147s-10.604 5.162-15.346 9.988c-6.46 6.507-11.963 9.891-15.41 14.348-6.004 7.744-30.757 70.244-30.757 70.244s-9.56-40.756 15.683-84.592c6.405-11.127 10.092-12.363 10.092-12.363l35.738 2.375Z" fill="#6AC38B" stroke="#000" stroke-width=".5" stroke-linecap="round" stroke-linejoin="round"/>
  <path d="M134.511 112.095s-17.281 6.691-23.209 17.059c-18.488 32.416-22.839 76.339-22.839 76.339M190.652 102.541s19.392 11.799 26.874 24.336c7.483 12.537 22.72 49.703 22.72 49.703M246.586 56.362a18.536 18.536 0 0 1 9.164 1.063 18.491 18.491 0 0 1 7.509 5.347c7.482 8.329 40.534 44.28 40.534 44.28M30.92 143.036s11.137-20.486 16.912-21.69c5.775-1.204 36.368-3.037 36.368-3.037" stroke="#000" stroke-width=".5" stroke-linecap="round" stroke-linejoin="round"/>
  <g clip-path="url(#a)">
    <path d="m450.323 249.326-84.362-56.667a9.951 9.951 0 0 0-8.312-.833l-152.642 62.786c-2.41.983-2.629 3.003-.476 4.422l84.339 56.682c2.146 1.441 5.886 1.817 24.936-6.517l136.018-55.443c2.441-.991 2.652-2.981.499-4.43Z" fill="#000" stroke="#000" stroke-width=".5" stroke-linecap="round" stroke-linejoin="round"/>
    <path d="M438.98 256.556v-.082l.045-2.253-2.123-.375-83.741-56.307a9.953 9.953 0 0 0-8.313-.826l-70.472 28.934-.34.151-1.571-.278-.053 2.38a2.813 2.813 0 0 0 1.511 2.169l84.338 56.683a9.95 9.95 0 0 0 8.313.825l70.419-28.851c1.269-.518 1.927-1.314 1.964-2.155l.023-.015Z" fill="#0072EF" stroke="#000" stroke-width=".5" stroke-linecap="round" stroke-linejoin="round"/>
    <path d="m437.061 256.474-70.472 28.874a9.953 9.953 0 0 1-8.313-.826L273.93 227.84c-2.146-1.442-1.934-3.439.484-4.43l70.48-28.866a9.947 9.947 0 0 1 8.312.825l84.338 56.683c2.154 1.419 1.935 3.446-.483 4.422ZM356.758 290.475v-.082l.045-2.253-2.131-.375-83.734-56.307a9.946 9.946 0 0 0-8.312-.826l-70.465 28.927-.34.158-1.579-.278-.045 2.38c.058.455.226.89.489 1.268a2.89 2.89 0 0 0 1.022.902l84.331 56.682a9.946 9.946 0 0 0 8.312.826l70.48-28.867c1.262-.518 1.927-1.314 1.964-2.155h-.037Z" fill="#0072EF" stroke="#000" stroke-width=".5" stroke-linecap="round" stroke-linejoin="round"/>
    <path d="m354.838 290.4-70.487 28.874a9.95 9.95 0 0 1-8.312-.825L191.7 261.766c-2.153-1.449-1.934-3.438.484-4.429l70.48-28.867a9.946 9.946 0 0 1 8.312.826l84.338 56.682c2.154 1.442 1.942 3.439-.476 4.422Z" fill="#0072EF" stroke="#000" stroke-width=".5" stroke-linecap="round" stroke-linejoin="round"/>
    <path d="m435.051 256.428-68.621 28.109a9.71 9.71 0 0 1-8.086-.803l-83.189-55.872c-2.101-1.411-1.89-3.348.468-4.309l68.621-28.116a9.667 9.667 0 0 1 8.085.811l83.198 55.871c2.093 1.404 1.881 3.341-.476 4.309Z" fill="#fff" stroke="#000" stroke-width=".5" stroke-linecap="round" stroke-linejoin="round"/>
    <path d="m435.089 254.687-68.629 28.108a9.698 9.698 0 0 1-8.055-.796l-83.22-55.878c-2.093-1.412-1.882-3.349.468-4.317l68.629-28.109a9.68 9.68 0 0 1 8.085.804l83.19 55.879c2.093 1.403 1.882 3.34-.468 4.309Z" fill="#fff" stroke="#000" stroke-width=".5" stroke-linecap="round" stroke-linejoin="round"/>
    <path d="m435.126 252.945-68.628 28.108a9.696 9.696 0 0 1-8.086-.803l-83.19-55.879c-2.1-1.404-1.889-3.341.469-4.309l68.621-28.108a9.703 9.703 0 0 1 8.093.803l83.19 55.871c2.093 1.412 1.881 3.341-.469 4.317Z" fill="#fff" stroke="#000" stroke-width=".5" stroke-linecap="round" stroke-linejoin="round"/>
    <path d="m435.156 251.218-68.628 28.116a9.66 9.66 0 0 1-8.085-.811l-83.16-55.894c-2.093-1.404-1.882-3.341.469-4.309l68.628-28.108a9.692 9.692 0 0 1 8.085.803l83.19 55.871c2.093 1.412 1.852 3.349-.499 4.332Z" fill="#fff" stroke="#000" stroke-width=".5" stroke-linecap="round" stroke-linejoin="round"/>
    <path d="m435.194 249.454-68.628 28.116a9.674 9.674 0 0 1-8.086-.826l-83.197-55.856c-2.101-1.404-1.889-3.341.469-4.31l68.628-28.108a9.692 9.692 0 0 1 8.085.803l83.19 55.872c2.093 1.411 1.889 3.348-.461 4.309Z" fill="#fff" stroke="#000" stroke-width=".5" stroke-linecap="round" stroke-linejoin="round"/>
    <path d="m435.225 247.712-68.629 28.116a9.68 9.68 0 0 1-8.085-.811l-83.19-55.871c-2.093-1.404-1.882-3.348.468-4.309l68.629-28.109a9.65 9.65 0 0 1 8.085.804l83.19 55.871c2.093 1.411 1.889 3.348-.468 4.309Z" fill="#000" stroke="#000" stroke-width=".5" stroke-linecap="round" stroke-linejoin="round"/>
    <path d="m435.036 244.942-5.569 5.128-62.871 25.758a9.68 9.68 0 0 1-8.085-.811l-83.19-55.871c-2.093-1.404-1.882-3.348.468-4.309l68.629-28.109a9.65 9.65 0 0 1 8.085.804s74.666 50.173 76.722 51.524c2.055 1.351 5.833 1.464 5.833 1.464 2.373.405 1.64 3.048-.022 4.422ZM353.916 289.725l-68.628 28.108a9.667 9.667 0 0 1-8.086-.803l-83.189-55.872c-2.101-1.403-1.89-3.348.468-4.309l68.621-28.116a9.697 9.697 0 0 1 8.093.811l83.19 55.871c2.093 1.404 1.881 3.341-.469 4.31Z" fill="#fff" stroke="#000" stroke-width=".5" stroke-linecap="round" stroke-linejoin="round"/>
    <path d="m353.947 288.005-68.629 28.109a9.663 9.663 0 0 1-8.085-.803l-83.19-55.894c-2.093-1.412-1.882-3.349.468-4.31l68.629-28.116a9.68 9.68 0 0 1 8.085.811l83.19 55.872c2.093 1.403 1.882 3.348-.468 4.331Z" fill="#fff" stroke="#000" stroke-width=".5" stroke-linecap="round" stroke-linejoin="round"/>
    <path d="m353.984 286.241-68.628 28.109a9.699 9.699 0 0 1-4.133.489 9.65 9.65 0 0 1-3.953-1.293l-83.19-55.871c-2.1-1.412-1.889-3.348.469-4.309l68.643-28.116a9.672 9.672 0 0 1 8.086.81l83.19 55.872c2.078 1.404 1.866 3.341-.484 4.309Z" fill="#fff" stroke="#000" stroke-width=".5" stroke-linecap="round" stroke-linejoin="round"/>
    <path d="m354.014 284.499-68.628 28.109a9.694 9.694 0 0 1-8.086-.803l-83.189-55.872c-2.093-1.411-1.882-3.348.468-4.309l68.613-28.116a9.67 9.67 0 0 1 8.086.811l83.19 55.871c2.108 1.404 1.904 3.311-.454 4.309Z" fill="#fff" stroke="#000" stroke-width=".5" stroke-linecap="round" stroke-linejoin="round"/>
    <path d="M279.301 237.031c.015-.672-.852-1.235-1.937-1.259-1.085-.024-1.976.501-1.991 1.173-.015.671.852 1.235 1.937 1.259 1.085.024 1.976-.502 1.991-1.173ZM287.39 242.46c.015-.671-.853-1.235-1.938-1.259-1.084-.023-1.976.502-1.991 1.173-.015.672.853 1.236 1.938 1.259 1.084.024 1.976-.501 1.991-1.173ZM295.47 247.905c.015-.672-.852-1.236-1.937-1.259-1.085-.024-1.977.501-1.991 1.173-.015.671.852 1.235 1.937 1.259 1.085.023 1.976-.502 1.991-1.173ZM303.55 253.341c.015-.671-.852-1.235-1.937-1.258-1.085-.024-1.976.501-1.991 1.173-.015.671.852 1.235 1.937 1.258 1.085.024 1.976-.501 1.991-1.173ZM311.631 258.778c.015-.671-.853-1.235-1.937-1.259-1.085-.023-1.977.502-1.992 1.173-.014.672.853 1.235 1.938 1.259 1.085.024 1.976-.501 1.991-1.173ZM319.711 264.208c.015-.672-.852-1.236-1.937-1.259-1.085-.024-1.976.501-1.991 1.173-.015.671.853 1.235 1.937 1.259 1.085.023 1.977-.502 1.991-1.173ZM327.792 269.652c.015-.672-.853-1.235-1.938-1.259-1.084-.024-1.976.501-1.991 1.173-.015.672.853 1.235 1.938 1.259 1.084.024 1.976-.502 1.991-1.173ZM335.872 275.089c.015-.672-.852-1.236-1.937-1.259-1.085-.024-1.976.501-1.991 1.173-.015.671.852 1.235 1.937 1.259 1.085.023 1.977-.502 1.991-1.173ZM298.551 225.92c.014-.672-.853-1.235-1.938-1.259-1.085-.024-1.976.502-1.991 1.173-.015.672.853 1.235 1.937 1.259 1.085.024 1.977-.501 1.992-1.173ZM306.631 231.357c.015-.672-.852-1.235-1.937-1.259-1.085-.024-1.976.502-1.991 1.173-.015.672.852 1.235 1.937 1.259 1.085.024 1.976-.502 1.991-1.173ZM314.704 236.786c.015-.671-.852-1.235-1.937-1.259-1.085-.023-1.976.502-1.991 1.173-.015.672.852 1.235 1.937 1.259 1.085.024 1.976-.501 1.991-1.173ZM322.792 242.223c.015-.671-.852-1.235-1.937-1.259-1.085-.023-1.977.502-1.991 1.173-.015.672.852 1.235 1.937 1.259 1.085.024 1.976-.501 1.991-1.173ZM330.873 247.66c.014-.672-.853-1.235-1.938-1.259-1.085-.024-1.976.502-1.991 1.173-.015.672.853 1.235 1.937 1.259 1.085.024 1.977-.502 1.992-1.173ZM338.953 253.104c.015-.671-.853-1.235-1.937-1.259-1.085-.023-1.977.502-1.992 1.173-.014.672.853 1.236 1.938 1.259 1.085.024 1.976-.501 1.991-1.173ZM347.033 258.534c.015-.672-.852-1.235-1.937-1.259-1.085-.024-1.976.501-1.991 1.173-.015.671.853 1.235 1.937 1.259 1.085.023 1.977-.502 1.991-1.173ZM355.114 263.971c.015-.672-.852-1.236-1.937-1.259-1.085-.024-1.977.501-1.991 1.173-.015.671.852 1.235 1.937 1.259 1.085.023 1.976-.502 1.991-1.173Z" fill="#000" stroke="#000" stroke-width=".5" stroke-linecap="round" stroke-linejoin="round"/>
    <path d="M297.114 226.301c.657-.226.43-1.082.385-1.209a8.388 8.388 0 0 0-3.022-3.574 8.64 8.64 0 0 0-7.927-.6c-5.955 2.214-10.466 9.437-10.066 16.096a.787.787 0 0 0 .278.567.803.803 0 0 0 .607.184.89.89 0 0 0 .559-.316.872.872 0 0 0 .196-.608c-.363-5.938 3.642-12.372 8.917-14.339a7.094 7.094 0 0 1 6.476.45 6.445 6.445 0 0 1 1.836 1.802c.268.35.485.737.642 1.149a.923.923 0 0 0 1.119.398Z" fill="#B8BDBF" stroke="#000" stroke-width=".5" stroke-linecap="round" stroke-linejoin="round"/>
    <path d="M305.237 231.601c.657-.225.438-1.081.385-1.209a8.451 8.451 0 0 0-3.022-3.581 8.666 8.666 0 0 0-7.927-.593c-5.955 2.215-10.466 9.437-10.065 16.096a.774.774 0 0 0 .277.567.78.78 0 0 0 .607.184.867.867 0 0 0 .755-.923c-.362-5.939 3.643-12.373 8.925-14.34a7.093 7.093 0 0 1 6.476.451 6.495 6.495 0 0 1 1.828 1.802c.268.352.487.738.65 1.148a.915.915 0 0 0 1.111.398Z" fill="#B8BDBF" stroke="#000" stroke-width=".5" stroke-linecap="round" stroke-linejoin="round"/>
    <path d="M313.209 237.051c.658-.225.431-1.088.386-1.216a8.48 8.48 0 0 0-3.023-3.573 8.675 8.675 0 0 0-7.927-.601c-5.954 2.252-10.466 9.445-10.065 16.096a.784.784 0 0 0 .279.565.807.807 0 0 0 .605.186.878.878 0 0 0 .756-.923c-.363-5.946 3.642-12.373 8.916-14.34a7.072 7.072 0 0 1 6.476.451 6.525 6.525 0 0 1 1.837 1.794c.268.35.484.737.642 1.149a.923.923 0 0 0 1.118.412Z" fill="#B8BDBF" stroke="#000" stroke-width=".5" stroke-linecap="round" stroke-linejoin="round"/>
    <path d="M321.272 242.675c.657-.218.438-1.081.385-1.209a8.427 8.427 0 0 0-3.022-3.574 8.69 8.69 0 0 0-7.927-.6c-5.955 2.252-10.466 9.437-10.065 16.096a.784.784 0 0 0 .279.564c.083.07.179.123.283.155.104.032.214.043.322.032a.874.874 0 0 0 .755-.931c-.362-5.939 3.643-12.373 8.925-14.34a7.117 7.117 0 0 1 6.476.451 6.713 6.713 0 0 1 1.828 1.802c.268.351.487.738.65 1.148a.902.902 0 0 0 1.111.406Z" fill="#B8BDBF" stroke="#000" stroke-width=".5" stroke-linecap="round" stroke-linejoin="round"/>
    <path d="M329.35 248.155c.657-.225.431-1.089.385-1.216a8.167 8.167 0 0 0-1.854-2.648 8.228 8.228 0 0 0-5.942-2.263 8.256 8.256 0 0 0-3.161.737c-5.947 2.252-10.465 9.444-10.057 16.103a.738.738 0 0 0 .262.579.765.765 0 0 0 .614.172.872.872 0 0 0 .756-.923c-.355-5.946 3.642-12.373 8.924-14.34a7.085 7.085 0 0 1 6.476.451 6.407 6.407 0 0 1 1.829 1.802c.269.35.488.737.65 1.148a.927.927 0 0 0 1.118.398Z" fill="#B8BDBF" stroke="#000" stroke-width=".5" stroke-linecap="round" stroke-linejoin="round"/>
    <path d="M337.36 253.426c.657-.226.431-1.089.385-1.217a8.43 8.43 0 0 0-3.022-3.573 8.683 8.683 0 0 0-7.927-.601c-5.955 2.252-10.466 9.437-10.065 16.096a.784.784 0 0 0 .279.565.807.807 0 0 0 .605.186.874.874 0 0 0 .755-.931c-.362-5.938 3.643-12.372 8.917-14.339a7.137 7.137 0 0 1 6.484.45 6.713 6.713 0 0 1 1.828 1.802c.268.352.487.738.65 1.149a.908.908 0 0 0 1.111.413Z" fill="#B8BDBF" stroke="#000" stroke-width=".5" stroke-linecap="round" stroke-linejoin="round"/>
    <path d="M345.498 258.839c.658-.226.439-1.089.386-1.217a8.48 8.48 0 0 0-3.023-3.573 8.68 8.68 0 0 0-7.927-.601c-5.954 2.252-10.466 9.445-10.065 16.096a.801.801 0 0 0 .28.565.803.803 0 0 0 .604.186.879.879 0 0 0 .561-.313.868.868 0 0 0 .195-.61c-.363-5.946 3.642-12.373 8.924-14.34a7.08 7.08 0 0 1 6.476.451 6.498 6.498 0 0 1 1.829 1.802c.269.35.488.737.65 1.148a.913.913 0 0 0 1.11.406Z" fill="#B8BDBF" stroke="#000" stroke-width=".5" stroke-linecap="round" stroke-linejoin="round"/>
    <path d="M353.652 264.319c.657-.225.431-1.089.385-1.216a8.472 8.472 0 0 0-3.022-3.574 8.694 8.694 0 0 0-7.927-.6c-5.955 2.252-10.466 9.444-10.065 16.103a.784.784 0 0 0 .279.565.807.807 0 0 0 .605.186.884.884 0 0 0 .559-.315.872.872 0 0 0 .196-.608c-.362-5.946 3.643-12.373 8.917-14.34a7.083 7.083 0 0 1 6.476.451 6.406 6.406 0 0 1 1.836 1.802c.27.349.486.736.643 1.148a.927.927 0 0 0 1.118.398Z" fill="#B8BDBF" stroke="#000" stroke-width=".5" stroke-linecap="round" stroke-linejoin="round"/>
    <path d="m346.065 197.914 8.735-3.596" stroke="#000" stroke-width=".5" stroke-linecap="round" stroke-linejoin="round"/>
    <path d="m310.776 212.457 5.055-2.08 9.824-4.046.816-.338 1.481-.608 9.355-3.859 6.06-2.5" fill="#fff"/>
    <path d="m310.776 212.457 5.055-2.08 9.824-4.046.816-.338 1.481-.608 9.355-3.859 6.06-2.5M301.104 216.443l6.702-2.763" stroke="#000" stroke-width=".5" stroke-linecap="round" stroke-linejoin="round"/>
    <path d="m309.748 222.201 6.703-2.762 1.247-.518 1.723-.706 5.047-2.087 9.824-4.047.816-.338 1.489-.608 9.347-3.859 6.06-2.492 1.361-.563 1.345-.556 8.727-3.596" fill="#fff"/>
    <path d="m309.748 222.201 6.703-2.762 1.247-.518 1.723-.706 5.047-2.087 9.824-4.047.816-.338 1.489-.608 9.347-3.859 6.06-2.492 1.361-.563 1.345-.556 8.727-3.596" stroke="#000" stroke-width=".5" stroke-linecap="round" stroke-linejoin="round"/>
    <path d="m345.234 216.886 9.355-3.851 6.06-2.5 1.36-.563 1.345-.556 8.728-3.596" fill="#fff"/>
    <path d="m345.234 216.886 9.355-3.851 6.06-2.5 1.36-.563 1.345-.556 8.728-3.596" stroke="#000" stroke-width=".5" stroke-linecap="round" stroke-linejoin="round"/>
    <path d="m318.393 227.952 6.695-2.763 1.255-.518 1.715-.705 5.055-2.08 9.824-4.054" fill="#fff"/>
    <path d="m318.393 227.952 6.695-2.763 1.255-.518 1.715-.705 5.055-2.08 9.824-4.054" stroke="#000" stroke-width=".5" stroke-linecap="round" stroke-linejoin="round"/>
    <path d="m327.03 233.703 6.703-2.763 1.254-.518 1.715-.705 5.056-2.08 9.816-4.054.816-.33 1.488-.616 9.355-3.851 6.053-2.5 1.36-.564 1.345-.548 8.728-3.603" fill="#fff"/>
    <path d="m327.03 233.703 6.703-2.763 1.254-.518 1.715-.705 5.056-2.08 9.816-4.054.816-.33 1.488-.616 9.355-3.851 6.053-2.5 1.36-.564 1.345-.548 8.728-3.603M380.636 220.925l8.728-3.596" stroke="#000" stroke-width=".5" stroke-linecap="round" stroke-linejoin="round"/>
    <path d="m335.675 239.454 6.702-2.755 1.247-.518 1.716-.714 5.055-2.079 9.823-4.047.817-.338 1.481-.608 9.355-3.859 6.06-2.492" fill="#fff"/>
    <path d="m335.675 239.454 6.702-2.755 1.247-.518 1.716-.714 5.055-2.079 9.823-4.047.817-.338 1.481-.608 9.355-3.859 6.06-2.492" stroke="#000" stroke-width=".5" stroke-linecap="round" stroke-linejoin="round"/>
    <path d="m359.04 239.139 9.823-4.047.816-.338 1.481-.608 9.355-3.859 6.053-2.492 1.36-.563 1.345-.556 8.728-3.596" fill="#fff"/>
    <path d="m359.04 239.139 9.823-4.047.816-.338 1.481-.608 9.355-3.859 6.053-2.492 1.36-.563 1.345-.556 8.728-3.596" stroke="#000" stroke-width=".5" stroke-linecap="round" stroke-linejoin="round"/>
    <path d="m344.312 245.212 6.703-2.763 1.254-.518" fill="#fff"/>
    <path d="m344.312 245.212 6.703-2.763 1.254-.518" stroke="#000" stroke-width=".5" stroke-linecap="round" stroke-linejoin="round"/>
    <path d="m379.797 239.897 9.355-3.851 6.061-2.5 1.36-.563 1.345-.556 8.728-3.596" fill="#fff"/>
    <path d="m379.797 239.897 9.355-3.851 6.061-2.5 1.36-.563 1.345-.556 8.728-3.596" stroke="#000" stroke-width=".5" stroke-linecap="round" stroke-linejoin="round"/>
    <path d="m352.957 250.963 6.702-2.763 1.247-.518 1.723-.706 5.048-2.079 9.823-4.054" fill="#fff"/>
    <path d="m352.957 250.963 6.702-2.763 1.247-.518 1.723-.706 5.048-2.079 9.823-4.054M406.555 238.185l8.735-3.596" stroke="#000" stroke-width=".5" stroke-linecap="round" stroke-linejoin="round"/>
    <path d="m371.266 252.727 5.055-2.079 9.824-4.047.816-.338 1.481-.615 9.355-3.852 6.06-2.5" fill="#fff"/>
    <path d="m371.266 252.727 5.055-2.079 9.824-4.047.816-.338 1.481-.615 9.355-3.852 6.06-2.5M361.594 256.714l6.702-2.763M368.425 263.17l8.728-3.603" stroke="#000" stroke-width=".5" stroke-linecap="round" stroke-linejoin="round"/>
  </g>
  <g clip-path="url(#b)">
    <path d="m277.323 302.997-2.145-1.019 6.394-3.038 2.039.954.46-.225 67.358 34.099.5-.24 28.378 13.413-.613.297 2.54 1.203-5.676 2.71-2.539-1.203-.573.281-28.378-13.414.677-.329-69.035-33.193.613-.296Z" fill="#000" stroke="#000" stroke-width=".5" stroke-linecap="round" stroke-linejoin="round"/>
    <path d="M274.042 297.986a6.558 6.558 0 0 1 .946-3.17 6.609 6.609 0 0 1 2.375-2.314 2.38 2.38 0 0 1 2.145-.113l2.741 1.307-4.209 8.018-2.765-1.323a2.498 2.498 0 0 1-.972-1.022 2.475 2.475 0 0 1-.261-1.383Z" fill="#4C5FD5" stroke="#000" stroke-width=".5" stroke-linecap="round" stroke-linejoin="round"/>
    <path d="M282.548 299.008c1.212-2.193 1.078-4.58-.3-5.333-1.377-.753-3.476.413-4.688 2.606-1.212 2.192-1.078 4.58.3 5.333 1.377.753 3.476-.414 4.688-2.606Z" fill="#000"/>
    <path d="M276.13 299.148a7.002 7.002 0 0 1 1.012-3.39 7.053 7.053 0 0 1 2.543-2.471 2.542 2.542 0 0 1 2.29-.128l67.97 32.512-4.498 8.594-68.003-32.519a2.679 2.679 0 0 1-1.314-2.598Z" fill="#fff" stroke="#000" stroke-width=".5" stroke-linecap="round" stroke-linejoin="round"/>
    <path d="m348.051 331.572-2.604 2.693-68.003-32.519a2.679 2.679 0 0 1-1.314-2.598c.009-.7.137-1.394.379-2.052" fill="#C9B7A0"/>
    <path d="m348.051 331.572-2.604 2.693-68.003-32.519a2.679 2.679 0 0 1-1.314-2.598c.009-.7.137-1.394.379-2.052" stroke="#000" stroke-width=".5" stroke-linecap="round" stroke-linejoin="round"/>
    <path d="M344.423 332.301a7.703 7.703 0 0 1 1.121-3.71 7.764 7.764 0 0 1 2.789-2.704 2.826 2.826 0 0 1 2.515-.136l28.153 13.486-4.942 9.444-28.217-13.501c-.855-.441-1.419-1.444-1.419-2.879Z" fill="#FFEF57" stroke="#000" stroke-width=".5" stroke-linecap="round" stroke-linejoin="round"/>
    <path d="M344.423 332.301a7.703 7.703 0 0 1 1.121-3.71 7.764 7.764 0 0 1 2.789-2.704 2.826 2.826 0 0 1 2.515-.136l28.153 13.486-4.942 9.444-28.217-13.501c-.855-.441-1.419-1.444-1.419-2.879Z" fill="#fff" stroke="#000" stroke-width=".5" stroke-linecap="round" stroke-linejoin="round"/>
    <path d="m375.663 345.594-1.612 3.063-28.217-13.502c-.887-.417-1.451-1.419-1.451-2.854.004-.483.064-.965.177-1.435" fill="#C9B7A0"/>
    <path d="m375.663 345.594-1.612 3.063-28.217-13.502c-.887-.417-1.451-1.419-1.451-2.854.004-.483.064-.965.177-1.435" stroke="#000" stroke-width=".5" stroke-linecap="round" stroke-linejoin="round"/>
    <path d="M379.364 345.484c1.424-2.576 1.266-5.383-.353-6.268-1.62-.885-4.087.486-5.511 3.062-1.424 2.577-1.266 5.383.353 6.269 1.619.885 4.086-.486 5.511-3.063Z" fill="#000"/>
    <path d="M372.842 345.682a7.183 7.183 0 0 1 1.035-3.481 7.243 7.243 0 0 1 2.609-2.54 2.618 2.618 0 0 1 2.354-.128l3.007 1.435-4.62 8.819-3.039-1.451a2.713 2.713 0 0 1-1.346-2.654Z" fill="#4C5FD5" stroke="#000" stroke-width=".5" stroke-linecap="round" stroke-linejoin="round"/>
    <path d="M382.175 346.83c1.33-2.406 1.181-5.027-.333-5.855-1.514-.827-3.819.452-5.149 2.858-1.33 2.405-1.181 5.027.333 5.854 1.514.828 3.819-.451 5.149-2.857Z" fill="#4C5FD5" stroke="#000" stroke-width=".5" stroke-linecap="round" stroke-linejoin="round"/>
  </g>
  <path d="m51.44 299.503-8.088 34.72 132.996 30.503 20.891-16.122 15.487-11.972L51.44 299.503Z" fill="#000" stroke="#000" stroke-width=".5" stroke-linecap="round" stroke-linejoin="round"/>
  <path d="m209.197 339.338-12.605-56.604-6.686-.734-16.123 49.474 35.414 7.864Z" fill="#C8BFAD" stroke="#000" stroke-width=".5" stroke-linecap="round" stroke-linejoin="round"/>
  <path d="m185.094 357.694 11.498-74.96-66.827-12.902-11.651 72.375 66.98 15.487Z" fill="#E3DBD5" stroke="#000" stroke-width=".5" stroke-linecap="round" stroke-linejoin="round"/>
  <path d="m69.855 221.979-4.385 17.273-3.2 13.592 8.001 79.648 105.945 30.92 4.012-2.892 16.364-77.764-1.096-2.87-125.641-57.907ZM98.11 233.83c-.153.646-21.844-3.866-22.37-3.987a1.093 1.093 0 0 1-.69-1.38 1.092 1.092 0 0 1 .808-.917c.14-.036.286-.045.43-.025.526.121 21.965 5.674 21.822 6.309Zm43.042 11.008a1.097 1.097 0 0 1-.69-1.38 1.104 1.104 0 0 1 .423-.729 1.09 1.09 0 0 1 .815-.213 1.093 1.093 0 0 1 .68 1.38 1.093 1.093 0 0 1-1.228.942Z" fill="#fff" stroke="#000" stroke-width=".5" stroke-linecap="round" stroke-linejoin="round"/>
  <path d="M98.111 232.625h-.099c-.087.416-21.504-4.195-21.822-4.085a.761.761 0 0 1-.438 0 .8.8 0 0 1-.57-.504 1.358 1.358 0 0 1 0-.734 1.196 1.196 0 0 1 .69-.843.782.782 0 0 1 .45 0c.252 0 21.592 5.169 21.69 5.476.078.239.078.496 0 .734h.187a1.477 1.477 0 0 0-.066-.876c-.12-.318-21.515-5.477-21.844-5.564a.895.895 0 0 0-.537 0 1.328 1.328 0 0 0-.79.964c-.088.285-.088.59 0 .876a1.09 1.09 0 0 0 .713.646.98.98 0 0 0 .537 0c.373-.142 21.822 4.436 21.921 3.965l-.022-.055Zm43.042 10.953v-.099a.771.771 0 0 1-.559-.504 1.192 1.192 0 0 1 0-.733 1.103 1.103 0 0 1 .68-.844.798.798 0 0 1 .449 0 .8.8 0 0 1 .559.504c.068.24.068.494 0 .734a1.145 1.145 0 0 1-.69.843.747.747 0 0 1-.439 0v.197a.882.882 0 0 0 .538 0 1.326 1.326 0 0 0 .789-.963 1.485 1.485 0 0 0-.055-.877 1.098 1.098 0 0 0-.713-.646 1 1 0 0 0-.537 0 1.337 1.337 0 0 0-.789.964c-.065.291-.046.595.055.876a1.01 1.01 0 0 0 .712.636v-.088Z" fill="#000E07"/>
  <path d="m203.059 250.051-28.092-5.706-20.135-4.097 24.76 17.612 17 24.874 7.497-31.018-1.03-1.665Zm-33.704-1.161a1.093 1.093 0 0 1-1.228.942 1.094 1.094 0 0 1-.69-1.38 1.098 1.098 0 0 1 1.227-.942 1.092 1.092 0 0 1 .691 1.38Zm27.018 6.21a1.097 1.097 0 0 1-1.228.931 1.207 1.207 0 0 1-1.095-1.57 1.207 1.207 0 0 1 2.266-.085c.093.23.113.483.057.724Z" fill="#F5BD61" stroke="#000" stroke-width=".5" stroke-linecap="round" stroke-linejoin="round"/>
  <path d="M169.355 248.89h-.088a1.199 1.199 0 0 1-.69.843.784.784 0 0 1-.45 0 .813.813 0 0 1-.342-.189.813.813 0 0 1-.217-.325 1.274 1.274 0 0 1 0-.734 1.19 1.19 0 0 1 .691-.844.78.78 0 0 1 .449 0 .814.814 0 0 1 .548.504c.091.238.11.497.055.745h.175a1.51 1.51 0 0 0-.054-.865 1.03 1.03 0 0 0-.713-.647.894.894 0 0 0-.537 0 1.32 1.32 0 0 0-.789.964 1.365 1.365 0 0 0 0 .866 1.108 1.108 0 0 0 .712.646.914.914 0 0 0 .538 0 1.32 1.32 0 0 0 .789-.964h-.077Zm27.018 6.21h-.088a1.174 1.174 0 0 1-.69.843.747.747 0 0 1-.439 0 .78.78 0 0 1-.559-.503 1.18 1.18 0 0 1 0-.734c.037-.187.119-.362.239-.509.121-.147.276-.262.452-.335a.76.76 0 0 1 .438 0 .785.785 0 0 1 .559.504 1.18 1.18 0 0 1 0 .734h.175a1.396 1.396 0 0 0 0-.876 1.026 1.026 0 0 0-.701-.646.98.98 0 0 0-.537 0 1.356 1.356 0 0 0-.8.964c-.068.292-.045.597.066.876a1.004 1.004 0 0 0 .701.635.894.894 0 0 0 .537 0 1.327 1.327 0 0 0 .789-.964l-.142.011Z" fill="#000E07"/>
  <path d="M195.441 280.916 61.294 250.139 42.07 332.635l134.146 30.777 19.225-82.496Z" fill="#fff" stroke="#000" stroke-width=".5" stroke-linecap="round" stroke-linejoin="round"/>
  <path d="m90.362 267.641-3.65 15.454 19.159 4.392 3.639-15.454-19.148-4.392ZM85.802 286.962l-4.548 19.32 19.159 4.392 3.639-15.454-19.16-4.403.91-3.855ZM80.344 310.138l-4.549 19.331 19.16 4.392 3.638-15.454-19.159-4.403.91-3.866Z" fill="#fff" stroke="#000" stroke-width=".5" stroke-linecap="round" stroke-linejoin="round"/>
  <path d="m110.42 268.167-19.148-4.392-.91 3.866 19.148 4.392.91-3.866ZM104.961 291.354l-19.159-4.392-.91 3.855 19.16 4.403.909-3.866ZM99.503 314.541l-19.159-4.403-.91 3.866 19.16 4.403.91-3.866Z" fill="#000" stroke="#000" stroke-width=".5" stroke-linecap="round" stroke-linejoin="round"/>
  <path d="m65.8 261.858-3.64 15.444 19.149 4.403 3.639-15.455-19.149-4.392Z" fill="#DBE371" stroke="#000" stroke-width=".5" stroke-linecap="round" stroke-linejoin="round"/>
  <path d="m61.25 281.168-4.548 19.32 19.148 4.403 3.639-15.454-19.148-4.403.91-3.866Z" fill="#F5BDCE" stroke="#000" stroke-width=".5" stroke-linecap="round" stroke-linejoin="round"/>
  <path d="m55.792 304.355-4.548 19.32 19.148 4.403 3.639-15.465-19.148-4.392.91-3.866Z" fill="#fff" stroke="#000" stroke-width=".5" stroke-linecap="round" stroke-linejoin="round"/>
  <path d="m85.857 262.384-19.148-4.392-.91 3.866 19.148 4.392.91-3.866ZM80.399 285.571l-19.148-4.403-.91 3.866 19.148 4.403.91-3.866ZM74.94 308.758l-19.148-4.403-.91 3.866 19.149 4.392.91-3.855Z" fill="#000" stroke="#000" stroke-width=".5" stroke-linecap="round" stroke-linejoin="round"/>
  <path d="m116.054 269.416-4.56 19.32 19.159 4.392 3.639-15.454-19.148-4.392.91-3.866ZM110.584 292.592l-4.538 19.331 19.149 4.392 3.638-15.454-19.159-4.403.91-3.866Z" fill="#F7CC97" stroke="#000" stroke-width=".5" stroke-linecap="round" stroke-linejoin="round"/>
  <path d="m105.126 315.778-4.549 19.321 19.159 4.403 3.639-15.454-19.159-4.403.91-3.867Z" fill="#fff" stroke="#000" stroke-width=".5" stroke-linecap="round" stroke-linejoin="round"/>
  <path d="m135.202 273.808-19.148-4.392-.91 3.866 19.148 4.392.91-3.866ZM129.743 296.995l-19.159-4.403-.909 3.866 19.159 4.403.909-3.866ZM124.285 320.181l-19.159-4.403-.91 3.867 19.159 4.403.91-3.867Z" fill="#000" stroke="#000" stroke-width=".5" stroke-linecap="round" stroke-linejoin="round"/>
  <path d="m140.671 275.012-4.549 19.321 19.159 4.392 3.639-15.454-19.159-4.392.91-3.867Z" fill="#fff" stroke="#000" stroke-width=".5" stroke-linecap="round" stroke-linejoin="round"/>
  <path d="m135.213 298.199-4.549 19.321 19.159 4.392 3.639-15.454-19.159-4.403.91-3.856Z" fill="#0072EF" stroke="#000" stroke-width=".5" stroke-linecap="round" stroke-linejoin="round"/>
  <path d="m129.754 321.375-4.548 19.332 19.148 4.392 3.65-15.454-19.159-4.403.909-3.867Z" fill="#EE7561" stroke="#000" stroke-width=".5" stroke-linecap="round" stroke-linejoin="round"/>
  <path d="m159.83 279.404-19.159-4.392-.91 3.867 19.159 4.392.91-3.867ZM154.372 302.591l-19.159-4.392-.91 3.856 19.159 4.403.91-3.867ZM148.913 325.778l-19.159-4.403-.91 3.867 19.16 4.403.909-3.867Z" fill="#000" stroke="#000" stroke-width=".5" stroke-linecap="round" stroke-linejoin="round"/>
  <path d="m165.552 280.708-4.549 19.32 19.148 4.392 3.639-15.454-19.148-4.392.91-3.866Z" fill="#EE7561" stroke="#000" stroke-width=".5" stroke-linecap="round" stroke-linejoin="round"/>
  <path d="m160.093 303.884-4.549 19.331 19.149 4.392 3.639-15.454-19.149-4.403.91-3.866ZM153.725 330.937l-3.639 15.454 19.148 4.403 3.639-15.454-19.148-4.403Z" fill="#fff" stroke="#000" stroke-width=".5" stroke-linecap="round" stroke-linejoin="round"/>
  <path d="m184.7 285.1-19.148-4.392-.91 3.866 19.148 4.392.91-3.866ZM179.241 308.287l-19.148-4.403-.909 3.866 19.148 4.403.909-3.866ZM173.783 331.474l-19.148-4.403-.91 3.866 19.148 4.403.91-3.866Z" fill="#000" stroke="#000" stroke-width=".5" stroke-linecap="round" stroke-linejoin="round"/>
  <path d="m153.911 238.77-84.999-19.496-4.384 17.283-3.2 13.582 99.171 22.749 34.975 8.028 7.672-30.865-49.235-11.281Z" fill="#F5BD61" stroke="#000" stroke-width=".5" stroke-linecap="round" stroke-linejoin="round"/>
  <path d="M104.556 231.464a1.097 1.097 0 0 0-1.228.942.992.992 0 0 0 .14.536.992.992 0 0 0 .948.484.997.997 0 0 0 .14-1.962ZM159.677 243.939a1.107 1.107 0 0 0-.816.213 1.09 1.09 0 0 0-.423.729 1.097 1.097 0 0 0 .691 1.369 1.204 1.204 0 0 0 .548-2.311ZM141.954 283.052a54.87 54.87 0 0 0 7.332 11.215c.778.92 1.929-.241 1.096-1.15a53.38 53.38 0 0 1-7.069-10.788.823.823 0 0 0-.472-.486.801.801 0 0 0-.676.041.791.791 0 0 0-.263.225.8.8 0 0 0-.147.66.815.815 0 0 0 .144.315l.055-.032Z" fill="#000"/>
  <path d="M143.17 291.902a48.986 48.986 0 0 0 8.067-5.203.966.966 0 0 0 0-1.281.797.797 0 0 0-1.173-.132 47.872 47.872 0 0 1-7.738 4.962c-.921.471-.055 2.135.866 1.654h-.022ZM117.972 326.578a55.85 55.85 0 0 0-12.737 4.863c-1.096.558-.131 1.927.943 1.369a54.288 54.288 0 0 1 12.276-4.688c1.195-.296.712-1.84-.482-1.544Z" fill="#000"/>
  <path d="M114.322 334.168a53.235 53.235 0 0 1-6.335-7.798c-.252-.384 0-.975.482-1.194a.92.92 0 0 1 1.238.306 50.612 50.612 0 0 0 6.084 7.448c.767.778-.702 2.016-1.469 1.238ZM74.13 291.332a56.721 56.721 0 0 0-12.737 4.863c-1.096.569-.132 1.938.943 1.369a53.983 53.983 0 0 1 12.287-4.677c1.194-.307.712-1.851-.494-1.555Z" fill="#000"/>
  <path d="M70.49 298.933a53.196 53.196 0 0 1-6.335-7.809.918.918 0 0 1 .482-1.194.932.932 0 0 1 1.239.307 49.398 49.398 0 0 0 6.083 7.458c.767.778-.702 2.016-1.469 1.238Z" fill="#000"/>
  <defs>
    <clipPath id="a">
      <path fill="#fff" transform="translate(190 186)" d="M0 0h262v136.24H0z"/>
    </clipPath>
    <clipPath id="b">
      <path fill="#fff" transform="translate(273.84 291.964)" d="M0 0h109.458v59.387H0z"/>
    </clipPath>
  </defs>
</svg>
